<ttFont>
<head>
    <!-- Most of this table will be recalculated by the compiler -->
    <tableVersion value="1.0"/>
    <fontRevision value="0.053"/>
    <checkSumAdjustment value="0xf15071df"/>
    <magicNumber value="0x5f0f3cf5"/>
    <flags value="00000000 00000011"/>
    <unitsPerEm value="1024"/>
    <created value="Mon Sep 28 18:41:54 2020"/>
    <modified value="Fri May 14 16:12:19 2021"/>
    <xMin value="-159"/>
    <yMin value="-205"/>
    <xMax value="684"/>
    <yMax value="1035"/>
    <macStyle value="00000000 00000011"/>
    <lowestRecPPEM value="7"/>
    <fontDirectionHint value="2"/>
    <indexToLocFormat value="0"/>
    <glyphDataFormat value="0"/>
  </head>
    <TTGlyph name=".notdef" xMin="-17" yMin="-30" xMax="503" yMax="670">
      <contour>
        <pt x="123" y="670" on="1"/>
        <pt x="503" y="670" on="1"/>
        <pt x="363" y="-30" on="1"/>
        <pt x="-17" y="-30" on="1"/>
      </contour>
      <contour>
        <pt x="108" y="23" on="0"/>
        <pt x="150" y="-10" on="0"/>
        <pt x="184" y="-10" on="1"/>
        <pt x="223" y="-10" on="0"/>
        <pt x="276" y="33" on="0"/>
        <pt x="276" y="73" on="1"/>
        <pt x="276" y="103" on="0"/>
        <pt x="234" y="138" on="0"/>
        <pt x="200" y="138" on="1"/>
        <pt x="162" y="138" on="0"/>
        <pt x="108" y="93" on="0"/>
        <pt x="108" y="54" on="1"/>
      </contour>
      <contour>
        <pt x="261" y="558" on="0"/>
        <pt x="336" y="525" on="0"/>
        <pt x="336" y="501" on="1"/>
        <pt x="336" y="494" on="0"/>
        <pt x="335" y="490" on="1"/>
        <pt x="330" y="467" on="0"/>
        <pt x="302" y="430" on="0"/>
        <pt x="276" y="405" on="1"/>
        <pt x="245" y="375" on="0"/>
        <pt x="205" y="326" on="0"/>
        <pt x="169" y="247" on="0"/>
        <pt x="161" y="192" on="1"/>
        <pt x="267" y="192" on="1"/>
        <pt x="278" y="247" on="0"/>
        <pt x="325" y="312" on="0"/>
        <pt x="366" y="351" on="1"/>
        <pt x="402" y="385" on="0"/>
        <pt x="440" y="436" on="0"/>
        <pt x="448" y="476" on="1"/>
        <pt x="452" y="500" on="0"/>
        <pt x="452" y="510" on="1"/>
        <pt x="452" y="576" on="0"/>
        <pt x="319" y="645" on="0"/>
        <pt x="167" y="645" on="1"/>
        <pt x="152" y="565" on="1"/>
      </contour>
    </TTGlyph>
    <TTGlyph name="A" xMin="-20" yMin="0" xMax="399" yMax="640">
      <contour>
        <pt x="32" y="187" on="0"/>
        <pt x="171" y="519" on="0"/>
        <pt x="252" y="640" on="1"/>
        <pt x="356" y="640" on="1"/>
        <pt x="399" y="498" on="0"/>
        <pt x="399" y="295" on="1"/>
        <pt x="399" y="165" on="0"/>
        <pt x="378" y="0" on="1"/>
        <pt x="263" y="0" on="1"/>
        <pt x="273" y="79" on="0"/>
        <pt x="281" y="160" on="1"/>
        <pt x="144" y="160" on="1"/>
        <pt x="120" y="88" on="0"/>
        <pt x="96" y="0" on="1"/>
        <pt x="-20" y="0" on="1"/>
      </contour>
      <contour>
        <pt x="287" y="240" on="1"/>
        <pt x="292" y="320" on="0"/>
        <pt x="292" y="376" on="1"/>
        <pt x="292" y="444" on="0"/>
        <pt x="285" y="519" on="1"/>
        <pt x="225" y="397" on="0"/>
        <pt x="170" y="240" on="1"/>
      </contour>
    </TTGlyph>
    <TTGlyph name="A.sups" xMin="147" yMin="320" xMax="403" yMax="640">
      <contour>
        <pt x="403" y="640" on="1"/>
        <pt x="390" y="576" on="1"/>
        <pt x="378" y="512" on="1"/>
        <pt x="339" y="320" on="1"/>
        <pt x="275" y="320" on="1"/>
        <pt x="301" y="448" on="1"/>
        <pt x="237" y="448" on="1"/>
        <pt x="211" y="320" on="1"/>
        <pt x="147" y="320" on="1"/>
        <pt x="186" y="512" on="1"/>
        <pt x="198" y="576" on="1"/>
        <pt x="211" y="640" on="1"/>
      </contour>
      <contour>
        <pt x="314" y="512" on="1"/>
        <pt x="326" y="576" on="1"/>
        <pt x="262" y="576" on="1"/>
        <pt x="250" y="512" on="1"/>
      </contour>
    </TTGlyph>
    <TTGlyph name="AE" xMin="-73" yMin="0" xMax="541" yMax="640">
      <contour>
        <pt x="439" y="80" on="1"/>
        <pt x="423" y="0" on="1"/>
        <pt x="142" y="0" on="1"/>
        <pt x="174" y="160" on="1"/>
        <pt x="88" y="160" on="1"/>
        <pt x="80" y="133" on="1"/>
        <pt x="56" y="53" on="0"/>
        <pt x="42" y="0" on="1"/>
        <pt x="-73" y="0" on="1"/>
        <pt x="-23" y="186" on="0"/>
        <pt x="107" y="517" on="0"/>
        <pt x="181" y="640" on="1"/>
        <pt x="541" y="640" on="1"/>
        <pt x="525" y="560" on="1"/>
        <pt x="366" y="560" on="1"/>
        <pt x="320" y="327" on="1"/>
        <pt x="430" y="327" on="1"/>
        <pt x="414" y="248" on="1"/>
        <pt x="304" y="248" on="1"/>
        <pt x="270" y="80" on="1"/>
      </contour>
      <contour>
        <pt x="190" y="240" on="1"/>
        <pt x="254" y="560" on="1"/>
        <pt x="240" y="560" on="1"/>
        <pt x="173" y="416" on="0"/>
        <pt x="114" y="240" on="1"/>
      </contour>
    </TTGlyph>
    <TTGlyph name="AEacute" xMin="-73" yMin="0" xMax="541" yMax="846">
      <component glyphName="AE" x="0" y="0" flags="0x0"/>
      <component glyphName="acutecomb.case" x="0" y="0" flags="0x0"/>
    </TTGlyph>
    <TTGlyph name="Aacute" xMin="-20" yMin="0" xMax="500" yMax="846">
      <component glyphName="A" x="0" y="0" flags="0x0"/>
      <component glyphName="acutecomb.case" x="0" y="0" flags="0x0"/>
    </TTGlyph>
    <TTGlyph name="Abreve" xMin="-20" yMin="0" xMax="487" yMax="846">
      <component glyphName="A" x="0" y="0" flags="0x0"/>
      <component glyphName="uni0306.case" x="0" y="0" flags="0x0"/>
    </TTGlyph>
    <TTGlyph name="Acircumflex" xMin="-20" yMin="0" xMax="475" yMax="842">
      <component glyphName="A" x="0" y="0" flags="0x0"/>
      <component glyphName="uni0302.case" x="0" y="0" flags="0x0"/>
    </TTGlyph>
    <TTGlyph name="Adieresis" xMin="-20" yMin="0" xMax="477" yMax="830">
      <component glyphName="A" x="0" y="0" flags="0x0"/>
      <component glyphName="uni0308.case" x="0" y="0" flags="0x0"/>
    </TTGlyph>
    <TTGlyph name="Agrave" xMin="-20" yMin="0" xMax="399" yMax="832">
      <component glyphName="A" x="0" y="0" flags="0x0"/>
      <component glyphName="gravecomb.case" x="0" y="0" flags="0x0"/>
    </TTGlyph>
    <TTGlyph name="Alpha" xMin="-20" yMin="0" xMax="399" yMax="640">
      <component glyphName="A" x="0" y="0" flags="0x0"/>
    </TTGlyph>
    <TTGlyph name="Alphatonos" xMin="-20" yMin="0" xMax="399" yMax="704">
      <component glyphName="A" x="0" y="0" flags="0x0"/>
      <component glyphName="tonos" x="-192" y="0" flags="0x0"/>
    </TTGlyph>
    <TTGlyph name="Amacron" xMin="-20" yMin="0" xMax="464" yMax="776">
      <component glyphName="A" x="0" y="0" flags="0x0"/>
      <component glyphName="uni0304.case" x="0" y="0" flags="0x0"/>
    </TTGlyph>
    <TTGlyph name="Aogonek" xMin="-20" yMin="-197" xMax="399" yMax="640">
      <component glyphName="A" x="0" y="0" flags="0x0"/>
      <component glyphName="uni0328" x="33" y="0" flags="0x0"/>
    </TTGlyph>
    <TTGlyph name="Aring" xMin="-20" yMin="0" xMax="469" yMax="899">
      <component glyphName="A" x="0" y="0" flags="0x0"/>
      <component glyphName="uni030A.case" x="0" y="0" flags="0x0"/>
    </TTGlyph>
    <TTGlyph name="Aringacute" xMin="-20" yMin="0" xMax="506" yMax="896">
      <component glyphName="A" x="0" y="0" flags="0x0"/>
      <component glyphName="uni030A.case" x="-20" y="-97" flags="0x4"/>
      <component glyphName="acutecomb.case" x="6" y="50" flags="0x4"/>
    </TTGlyph>
    <TTGlyph name="Atilde" xMin="-20" yMin="0" xMax="507" yMax="843">
      <component glyphName="A" x="0" y="0" flags="0x0"/>
      <component glyphName="tildecomb.case" x="0" y="0" flags="0x0"/>
    </TTGlyph>
    <TTGlyph name="B" xMin="5" yMin="0" xMax="453" yMax="640">
      <contour>
        <pt x="133" y="640" on="1"/>
        <pt x="275" y="640" on="1"/>
        <pt x="360" y="640" on="0"/>
        <pt x="453" y="573" on="0"/>
        <pt x="453" y="508" on="1"/>
        <pt x="453" y="487" on="0"/>
        <pt x="449" y="467" on="1"/>
        <pt x="433" y="383" on="0"/>
        <pt x="342" y="312" on="1"/>
        <pt x="413" y="281" on="0"/>
        <pt x="413" y="202" on="1"/>
        <pt x="413" y="182" on="0"/>
        <pt x="409" y="163" on="1"/>
        <pt x="394" y="85" on="0"/>
        <pt x="267" y="0" on="0"/>
        <pt x="173" y="0" on="1"/>
        <pt x="5" y="0" on="1"/>
      </contour>
      <contour>
        <pt x="159" y="80" on="1"/>
        <pt x="222" y="80" on="0"/>
        <pt x="286" y="131" on="0"/>
        <pt x="297" y="183" on="1"/>
        <pt x="299" y="191" on="0"/>
        <pt x="299" y="205" on="1"/>
        <pt x="299" y="234" on="0"/>
        <pt x="254" y="264" on="0"/>
        <pt x="202" y="264" on="1"/>
        <pt x="170" y="264" on="1"/>
        <pt x="133" y="80" on="1"/>
      </contour>
      <contour>
        <pt x="251" y="344" on="1"/>
        <pt x="288" y="372" on="0"/>
        <pt x="335" y="460" on="0"/>
        <pt x="335" y="502" on="1"/>
        <pt x="335" y="531" on="0"/>
        <pt x="293" y="560" on="0"/>
        <pt x="245" y="560" on="1"/>
        <pt x="229" y="560" on="1"/>
        <pt x="186" y="344" on="1"/>
      </contour>
    </TTGlyph>
    <TTGlyph name="B.sups" xMin="147" yMin="320" xMax="403" yMax="640">
      <contour>
        <pt x="403" y="640" on="1"/>
        <pt x="390" y="576" on="1"/>
        <pt x="378" y="512" on="1"/>
        <pt x="314" y="512" on="1"/>
        <pt x="326" y="576" on="1"/>
        <pt x="262" y="576" on="1"/>
        <pt x="250" y="512" on="1"/>
        <pt x="314" y="512" on="1"/>
        <pt x="301" y="448" on="1"/>
        <pt x="237" y="448" on="1"/>
        <pt x="224" y="384" on="1"/>
        <pt x="288" y="384" on="1"/>
        <pt x="301" y="448" on="1"/>
        <pt x="365" y="448" on="1"/>
        <pt x="339" y="320" on="1"/>
        <pt x="147" y="320" on="1"/>
        <pt x="186" y="512" on="1"/>
        <pt x="198" y="576" on="1"/>
        <pt x="211" y="640" on="1"/>
      </contour>
    </TTGlyph>
    <TTGlyph name="Beta" xMin="5" yMin="0" xMax="453" yMax="640">
      <component glyphName="B" x="0" y="0" flags="0x0"/>
    </TTGlyph>
    <TTGlyph name="C" xMin="36" yMin="-9" xMax="435" yMax="647">
      <contour>
        <pt x="117" y="-9" on="0"/>
        <pt x="36" y="73" on="0"/>
        <pt x="36" y="167" on="1"/>
        <pt x="36" y="234" on="0"/>
        <pt x="55" y="328" on="1"/>
        <pt x="79" y="447" on="0"/>
        <pt x="146" y="586" on="0"/>
        <pt x="247" y="647" on="0"/>
        <pt x="323" y="647" on="1"/>
        <pt x="381" y="647" on="0"/>
        <pt x="435" y="631" on="1"/>
        <pt x="412" y="559" on="1"/>
        <pt x="379" y="567" on="0"/>
        <pt x="340" y="567" on="1"/>
        <pt x="287" y="567" on="0"/>
        <pt x="227" y="516" on="0"/>
        <pt x="189" y="411" on="0"/>
        <pt x="169" y="310" on="1"/>
        <pt x="146" y="198" on="0"/>
        <pt x="146" y="152" on="1"/>
        <pt x="146" y="109" on="0"/>
        <pt x="184" y="71" on="0"/>
        <pt x="229" y="71" on="1"/>
        <pt x="270" y="71" on="0"/>
        <pt x="316" y="83" on="1"/>
        <pt x="322" y="7" on="1"/>
        <pt x="267" y="-9" on="0"/>
        <pt x="205" y="-9" on="1"/>
      </contour>
    </TTGlyph>
    <TTGlyph name="C.sups" xMin="175" yMin="316" xMax="405" yMax="644">
      <contour>
        <pt x="303" y="370" on="0"/>
        <pt x="343" y="378" on="1"/>
        <pt x="349" y="325" on="1"/>
        <pt x="316" y="316" on="0"/>
        <pt x="277" y="316" on="1"/>
        <pt x="227" y="316" on="0"/>
        <pt x="175" y="375" on="0"/>
        <pt x="175" y="430" on="1"/>
        <pt x="175" y="458" on="0"/>
        <pt x="181" y="489" on="1"/>
        <pt x="196" y="565" on="0"/>
        <pt x="273" y="644" on="0"/>
        <pt x="330" y="644" on="1"/>
        <pt x="368" y="644" on="0"/>
        <pt x="405" y="633" on="1"/>
        <pt x="391" y="584" on="1"/>
        <pt x="363" y="590" on="0"/>
        <pt x="336" y="590" on="1"/>
        <pt x="300" y="590" on="0"/>
        <pt x="255" y="541" on="0"/>
        <pt x="241" y="471" on="1"/>
        <pt x="235" y="437" on="0"/>
        <pt x="235" y="416" on="1"/>
        <pt x="235" y="389" on="0"/>
        <pt x="257" y="370" on="0"/>
        <pt x="279" y="370" on="1"/>
      </contour>
    </TTGlyph>
    <TTGlyph name="Cacute" xMin="36" yMin="-9" xMax="500" yMax="846">
      <component glyphName="C" x="0" y="0" flags="0x0"/>
      <component glyphName="acutecomb.case" x="0" y="0" flags="0x0"/>
    </TTGlyph>
    <TTGlyph name="Ccaron" xMin="36" yMin="-9" xMax="508" yMax="846">
      <component glyphName="C" x="0" y="0" flags="0x0"/>
      <component glyphName="uni030C.case" x="0" y="0" flags="0x0"/>
    </TTGlyph>
    <TTGlyph name="Ccedilla" xMin="16" yMin="-192" xMax="435" yMax="647">
      <component glyphName="C" x="0" y="0" flags="0x0"/>
      <component glyphName="uni0327" x="-32" y="0" flags="0x0"/>
    </TTGlyph>
    <TTGlyph name="Ccircumflex" xMin="36" yMin="-9" xMax="475" yMax="842">
      <component glyphName="C" x="0" y="0" flags="0x0"/>
      <component glyphName="uni0302.case" x="0" y="0" flags="0x0"/>
    </TTGlyph>
    <TTGlyph name="Cdotaccent" xMin="36" yMin="-9" xMax="435" yMax="826">
      <component glyphName="C" x="0" y="0" flags="0x0"/>
      <component glyphName="uni0307.case" x="32" y="0" flags="0x0"/>
    </TTGlyph>
    <TTGlyph name="Chi" xMin="-9" yMin="0" xMax="486" yMax="640">
      <component glyphName="X" x="0" y="0" flags="0x0"/>
    </TTGlyph>
    <TTGlyph name="D" xMin="5" yMin="0" xMax="470" yMax="640">
      <contour>
        <pt x="385" y="640" on="0"/>
        <pt x="470" y="552" on="0"/>
        <pt x="470" y="456" on="1"/>
        <pt x="470" y="396" on="0"/>
        <pt x="453" y="308" on="1"/>
        <pt x="430" y="194" on="0"/>
        <pt x="360" y="60" on="0"/>
        <pt x="253" y="0" on="0"/>
        <pt x="173" y="0" on="1"/>
        <pt x="5" y="0" on="1"/>
        <pt x="133" y="640" on="1"/>
        <pt x="294" y="640" on="1"/>
      </contour>
      <contour>
        <pt x="176" y="80" on="1"/>
        <pt x="225" y="80" on="0"/>
        <pt x="283" y="130" on="0"/>
        <pt x="319" y="233" on="0"/>
        <pt x="338" y="326" on="1"/>
        <pt x="360" y="434" on="0"/>
        <pt x="360" y="476" on="1"/>
        <pt x="360" y="521" on="0"/>
        <pt x="323" y="560" on="0"/>
        <pt x="278" y="560" on="1"/>
        <pt x="229" y="560" on="1"/>
        <pt x="133" y="80" on="1"/>
      </contour>
    </TTGlyph>
    <TTGlyph name="D.sups" xMin="147" yMin="320" xMax="390" yMax="640">
      <contour>
        <pt x="339" y="640" on="1"/>
        <pt x="326" y="576" on="1"/>
        <pt x="262" y="576" on="1"/>
        <pt x="250" y="512" on="1"/>
        <pt x="224" y="384" on="1"/>
        <pt x="288" y="384" on="1"/>
        <pt x="275" y="320" on="1"/>
        <pt x="147" y="320" on="1"/>
        <pt x="186" y="512" on="1"/>
        <pt x="198" y="576" on="1"/>
        <pt x="211" y="640" on="1"/>
      </contour>
      <contour>
        <pt x="314" y="512" on="1"/>
        <pt x="326" y="576" on="1"/>
        <pt x="390" y="576" on="1"/>
        <pt x="378" y="512" on="1"/>
        <pt x="352" y="384" on="1"/>
        <pt x="288" y="384" on="1"/>
      </contour>
    </TTGlyph>
    <TTGlyph name="Dcaron" xMin="5" yMin="0" xMax="512" yMax="846">
      <component glyphName="D" x="0" y="0" flags="0x0"/>
      <component glyphName="uni030C.case" x="4" y="0" flags="0x0"/>
    </TTGlyph>
    <TTGlyph name="Dcroat" xMin="-5" yMin="0" xMax="470" yMax="640">
      <component glyphName="Eth" x="0" y="0" flags="0x0"/>
    </TTGlyph>
    <TTGlyph name="E" xMin="5" yMin="0" xMax="477" yMax="640">
      <contour>
        <pt x="133" y="640" on="1"/>
        <pt x="477" y="640" on="1"/>
        <pt x="461" y="560" on="1"/>
        <pt x="229" y="560" on="1"/>
        <pt x="183" y="328" on="1"/>
        <pt x="361" y="328" on="1"/>
        <pt x="345" y="248" on="1"/>
        <pt x="167" y="248" on="1"/>
        <pt x="133" y="80" on="1"/>
        <pt x="375" y="80" on="1"/>
        <pt x="359" y="0" on="1"/>
        <pt x="5" y="0" on="1"/>
      </contour>
    </TTGlyph>
    <TTGlyph name="E.sups" xMin="147" yMin="320" xMax="399" yMax="640">
      <contour>
        <pt x="211" y="640" on="1"/>
        <pt x="399" y="640" on="1"/>
        <pt x="388" y="584" on="1"/>
        <pt x="264" y="584" on="1"/>
        <pt x="249" y="508" on="1"/>
        <pt x="361" y="508" on="1"/>
        <pt x="350" y="452" on="1"/>
        <pt x="238" y="452" on="1"/>
        <pt x="222" y="376" on="1"/>
        <pt x="350" y="376" on="1"/>
        <pt x="339" y="320" on="1"/>
        <pt x="147" y="320" on="1"/>
      </contour>
    </TTGlyph>
    <TTGlyph name="Eacute" xMin="5" yMin="0" xMax="496" yMax="846">
      <component glyphName="E" x="0" y="0" flags="0x0"/>
      <component glyphName="acutecomb.case" x="-4" y="0" flags="0x0"/>
    </TTGlyph>
    <TTGlyph name="Ebreve" xMin="5" yMin="0" xMax="483" yMax="846">
      <component glyphName="E" x="0" y="0" flags="0x0"/>
      <component glyphName="uni0306.case" x="-4" y="0" flags="0x0"/>
    </TTGlyph>
    <TTGlyph name="Ecaron" xMin="5" yMin="0" xMax="504" yMax="846">
      <component glyphName="E" x="0" y="0" flags="0x0"/>
      <component glyphName="uni030C.case" x="-4" y="0" flags="0x0"/>
    </TTGlyph>
    <TTGlyph name="Ecircumflex" xMin="5" yMin="0" xMax="477" yMax="842">
      <component glyphName="E" x="0" y="0" flags="0x0"/>
      <component glyphName="uni0302.case" x="-4" y="0" flags="0x0"/>
    </TTGlyph>
    <TTGlyph name="Edieresis" xMin="5" yMin="0" xMax="477" yMax="830">
      <component glyphName="E" x="0" y="0" flags="0x0"/>
      <component glyphName="uni0308.case" x="-4" y="0" flags="0x0"/>
    </TTGlyph>
    <TTGlyph name="Edotaccent" xMin="5" yMin="0" xMax="477" yMax="826">
      <component glyphName="E" x="0" y="0" flags="0x0"/>
      <component glyphName="uni0307.case" x="-4" y="0" flags="0x0"/>
    </TTGlyph>
    <TTGlyph name="Egrave" xMin="5" yMin="0" xMax="477" yMax="832">
      <component glyphName="E" x="0" y="0" flags="0x0"/>
      <component glyphName="gravecomb.case" x="-4" y="0" flags="0x0"/>
    </TTGlyph>
    <TTGlyph name="Emacron" xMin="5" yMin="0" xMax="477" yMax="776">
      <component glyphName="E" x="0" y="0" flags="0x0"/>
      <component glyphName="uni0304.case" x="-4" y="0" flags="0x0"/>
    </TTGlyph>
    <TTGlyph name="Eng" xMin="5" yMin="-198" xMax="481" yMax="640">
      <contour>
        <pt x="335" y="-90" on="0"/>
        <pt x="259" y="-173" on="0"/>
        <pt x="186" y="-198" on="1"/>
        <pt x="157" y="-114" on="1"/>
        <pt x="201" y="-97" on="0"/>
        <pt x="242" y="-52" on="0"/>
        <pt x="250" y="-9" on="1"/>
        <pt x="253" y="6" on="1"/>
        <pt x="200" y="368" on="1"/>
        <pt x="197" y="483" on="1"/>
        <pt x="107" y="0" on="1"/>
        <pt x="5" y="0" on="1"/>
        <pt x="133" y="640" on="1"/>
        <pt x="244" y="640" on="1"/>
        <pt x="296" y="274" on="1"/>
        <pt x="298" y="201" on="1"/>
        <pt x="379" y="640" on="1"/>
        <pt x="481" y="640" on="1"/>
        <pt x="351" y="-9" on="1"/>
      </contour>
    </TTGlyph>
    <TTGlyph name="Eogonek" xMin="5" yMin="-197" xMax="477" yMax="640">
      <component glyphName="E" x="0" y="0" flags="0x0"/>
      <component glyphName="uni0328" x="14" y="0" flags="0x0"/>
    </TTGlyph>
    <TTGlyph name="Epsilon" xMin="5" yMin="0" xMax="477" yMax="640">
      <component glyphName="E" x="0" y="0" flags="0x0"/>
    </TTGlyph>
    <TTGlyph name="Epsilontonos" xMin="-20" yMin="0" xMax="477" yMax="704">
      <component glyphName="E" x="0" y="0" flags="0x0"/>
      <component glyphName="tonos" x="-256" y="0" flags="0x0"/>
    </TTGlyph>
    <TTGlyph name="Eta" xMin="5" yMin="0" xMax="513" yMax="640">
      <component glyphName="H" x="0" y="0" flags="0x0"/>
    </TTGlyph>
    <TTGlyph name="Etatonos" xMin="-20" yMin="0" xMax="513" yMax="704">
      <component glyphName="H" x="0" y="0" flags="0x0"/>
      <component glyphName="tonos" x="-256" y="0" flags="0x0"/>
    </TTGlyph>
    <TTGlyph name="Eth" xMin="-5" yMin="0" xMax="470" yMax="640">
      <contour>
        <pt x="71" y="328" on="1"/>
        <pt x="133" y="640" on="1"/>
        <pt x="294" y="640" on="1"/>
        <pt x="385" y="640" on="0"/>
        <pt x="470" y="552" on="0"/>
        <pt x="470" y="456" on="1"/>
        <pt x="470" y="396" on="0"/>
        <pt x="453" y="308" on="1"/>
        <pt x="430" y="194" on="0"/>
        <pt x="360" y="60" on="0"/>
        <pt x="253" y="0" on="0"/>
        <pt x="173" y="0" on="1"/>
        <pt x="5" y="0" on="1"/>
        <pt x="55" y="248" on="1"/>
        <pt x="-5" y="248" on="1"/>
        <pt x="-5" y="328" on="1"/>
      </contour>
      <contour>
        <pt x="176" y="80" on="1"/>
        <pt x="225" y="80" on="0"/>
        <pt x="283" y="130" on="0"/>
        <pt x="319" y="233" on="0"/>
        <pt x="338" y="326" on="1"/>
        <pt x="360" y="434" on="0"/>
        <pt x="360" y="476" on="1"/>
        <pt x="360" y="521" on="0"/>
        <pt x="323" y="560" on="0"/>
        <pt x="278" y="560" on="1"/>
        <pt x="229" y="560" on="1"/>
        <pt x="183" y="328" on="1"/>
        <pt x="246" y="328" on="1"/>
        <pt x="246" y="248" on="1"/>
        <pt x="167" y="248" on="1"/>
        <pt x="133" y="80" on="1"/>
      </contour>
    </TTGlyph>
    <TTGlyph name="Euro" xMin="58" yMin="-7" xMax="474" yMax="583">
      <contour>
        <pt x="309" y="57" on="0"/>
        <pt x="359" y="73" on="1"/>
        <pt x="369" y="11" on="1"/>
        <pt x="345" y="2" on="0"/>
        <pt x="291" y="-7" on="0"/>
        <pt x="268" y="-7" on="1"/>
        <pt x="184" y="-7" on="0"/>
        <pt x="108" y="94" on="0"/>
        <pt x="113" y="192" on="1"/>
        <pt x="58" y="192" on="1"/>
        <pt x="70" y="254" on="1"/>
        <pt x="119" y="254" on="1"/>
        <pt x="127" y="297" on="1"/>
        <pt x="132" y="322" on="1"/>
        <pt x="84" y="322" on="1"/>
        <pt x="96" y="384" on="1"/>
        <pt x="149" y="384" on="1"/>
        <pt x="181" y="482" on="0"/>
        <pt x="291" y="583" on="0"/>
        <pt x="373" y="583" on="1"/>
        <pt x="423" y="583" on="0"/>
        <pt x="474" y="561" on="1"/>
        <pt x="452" y="505" on="1"/>
        <pt x="414" y="519" on="0"/>
        <pt x="373" y="519" on="1"/>
        <pt x="323" y="519" on="0"/>
        <pt x="249" y="455" on="0"/>
        <pt x="223" y="384" on="1"/>
        <pt x="400" y="384" on="1"/>
        <pt x="372" y="322" on="1"/>
        <pt x="205" y="322" on="1"/>
        <pt x="200" y="306" on="0"/>
        <pt x="195" y="279" on="1"/>
        <pt x="190" y="254" on="1"/>
        <pt x="346" y="254" on="1"/>
        <pt x="319" y="192" on="1"/>
        <pt x="182" y="192" on="1"/>
        <pt x="181" y="182" on="0"/>
        <pt x="181" y="163" on="1"/>
        <pt x="181" y="106" on="0"/>
        <pt x="224" y="57" on="0"/>
        <pt x="268" y="57" on="1"/>
      </contour>
    </TTGlyph>
    <TTGlyph name="F" xMin="5" yMin="0" xMax="443" yMax="640">
      <contour>
        <pt x="133" y="640" on="1"/>
        <pt x="443" y="640" on="1"/>
        <pt x="427" y="560" on="1"/>
        <pt x="229" y="560" on="1"/>
        <pt x="183" y="328" on="1"/>
        <pt x="333" y="328" on="1"/>
        <pt x="317" y="248" on="1"/>
        <pt x="167" y="248" on="1"/>
        <pt x="117" y="0" on="1"/>
        <pt x="5" y="0" on="1"/>
      </contour>
    </TTGlyph>
    <TTGlyph name="F.sups" xMin="147" yMin="320" xMax="403" yMax="640">
      <contour>
        <pt x="211" y="640" on="1"/>
        <pt x="403" y="640" on="1"/>
        <pt x="392" y="584" on="1"/>
        <pt x="264" y="584" on="1"/>
        <pt x="248" y="504" on="1"/>
        <pt x="356" y="504" on="1"/>
        <pt x="345" y="448" on="1"/>
        <pt x="237" y="448" on="1"/>
        <pt x="211" y="320" on="1"/>
        <pt x="147" y="320" on="1"/>
      </contour>
    </TTGlyph>
    <TTGlyph name="G" xMin="47" yMin="-9" xMax="473" yMax="647">
      <contour>
        <pt x="136" y="-9" on="0"/>
        <pt x="47" y="76" on="0"/>
        <pt x="47" y="173" on="1"/>
        <pt x="47" y="237" on="0"/>
        <pt x="65" y="328" on="1"/>
        <pt x="89" y="447" on="0"/>
        <pt x="159" y="586" on="0"/>
        <pt x="267" y="647" on="0"/>
        <pt x="349" y="647" on="1"/>
        <pt x="378" y="647" on="0"/>
        <pt x="445" y="637" on="0"/>
        <pt x="473" y="628" on="1"/>
        <pt x="450" y="556" on="1"/>
        <pt x="410" y="567" on="0"/>
        <pt x="367" y="567" on="1"/>
        <pt x="307" y="567" on="0"/>
        <pt x="239" y="516" on="0"/>
        <pt x="200" y="411" on="0"/>
        <pt x="179" y="310" on="1"/>
        <pt x="167" y="246" on="0"/>
        <pt x="156" y="178" on="0"/>
        <pt x="156" y="153" on="1"/>
        <pt x="156" y="109" on="0"/>
        <pt x="193" y="71" on="0"/>
        <pt x="238" y="71" on="1"/>
        <pt x="256" y="71" on="1"/>
        <pt x="291" y="248" on="1"/>
        <pt x="216" y="248" on="1"/>
        <pt x="232" y="328" on="1"/>
        <pt x="419" y="328" on="1"/>
        <pt x="355" y="7" on="1"/>
        <pt x="328" y="-1" on="0"/>
        <pt x="260" y="-9" on="0"/>
        <pt x="232" y="-9" on="1"/>
      </contour>
    </TTGlyph>
    <TTGlyph name="G.sups" xMin="160" yMin="320" xMax="403" yMax="640">
      <contour>
        <pt x="262" y="576" on="1"/>
        <pt x="250" y="512" on="1"/>
        <pt x="224" y="384" on="1"/>
        <pt x="160" y="384" on="1"/>
        <pt x="186" y="512" on="1"/>
        <pt x="198" y="576" on="1"/>
      </contour>
      <contour>
        <pt x="224" y="384" on="1"/>
        <pt x="288" y="384" on="1"/>
        <pt x="314" y="512" on="1"/>
        <pt x="378" y="512" on="1"/>
        <pt x="339" y="320" on="1"/>
        <pt x="211" y="320" on="1"/>
      </contour>
      <contour>
        <pt x="275" y="640" on="1"/>
        <pt x="403" y="640" on="1"/>
        <pt x="390" y="576" on="1"/>
        <pt x="262" y="576" on="1"/>
      </contour>
    </TTGlyph>
    <TTGlyph name="Gamma" xMin="5" yMin="0" xMax="443" yMax="640">
      <component glyphName="uni0413" x="0" y="0" flags="0x0"/>
    </TTGlyph>
    <TTGlyph name="Gbreve" xMin="47" yMin="-9" xMax="507" yMax="846">
      <component glyphName="G" x="0" y="0" flags="0x0"/>
      <component glyphName="uni0306.case" x="20" y="0" flags="0x0"/>
    </TTGlyph>
    <TTGlyph name="Gcaron" xMin="47" yMin="-9" xMax="528" yMax="846">
      <component glyphName="G" x="0" y="0" flags="0x0"/>
      <component glyphName="uni030C.case" x="20" y="0" flags="0x0"/>
    </TTGlyph>
    <TTGlyph name="Gcircumflex" xMin="47" yMin="-9" xMax="495" yMax="842">
      <component glyphName="G" x="0" y="0" flags="0x0"/>
      <component glyphName="uni0302.case" x="20" y="0" flags="0x0"/>
    </TTGlyph>
    <TTGlyph name="Gdotaccent" xMin="47" yMin="-9" xMax="473" yMax="826">
      <component glyphName="G" x="0" y="0" flags="0x0"/>
      <component glyphName="uni0307.case" x="20" y="0" flags="0x0"/>
    </TTGlyph>
    <TTGlyph name="H" xMin="5" yMin="0" xMax="513" yMax="640">
      <contour>
        <pt x="133" y="640" on="1"/>
        <pt x="245" y="640" on="1"/>
        <pt x="183" y="328" on="1"/>
        <pt x="339" y="328" on="1"/>
        <pt x="401" y="640" on="1"/>
        <pt x="513" y="640" on="1"/>
        <pt x="385" y="0" on="1"/>
        <pt x="273" y="0" on="1"/>
        <pt x="323" y="248" on="1"/>
        <pt x="167" y="248" on="1"/>
        <pt x="117" y="0" on="1"/>
        <pt x="5" y="0" on="1"/>
      </contour>
    </TTGlyph>
    <TTGlyph name="H.sups" xMin="147" yMin="320" xMax="403" yMax="640">
      <contour>
        <pt x="249" y="508" on="1"/>
        <pt x="313" y="508" on="1"/>
        <pt x="339" y="640" on="1"/>
        <pt x="403" y="640" on="1"/>
        <pt x="339" y="320" on="1"/>
        <pt x="275" y="320" on="1"/>
        <pt x="302" y="452" on="1"/>
        <pt x="238" y="452" on="1"/>
        <pt x="211" y="320" on="1"/>
        <pt x="147" y="320" on="1"/>
        <pt x="211" y="640" on="1"/>
        <pt x="275" y="640" on="1"/>
      </contour>
    </TTGlyph>
    <TTGlyph name="Hbar" xMin="0" yMin="0" xMax="513" yMax="640">
      <contour>
        <pt x="108" y="516" on="1"/>
        <pt x="133" y="640" on="1"/>
        <pt x="245" y="640" on="1"/>
        <pt x="220" y="516" on="1"/>
        <pt x="376" y="516" on="1"/>
        <pt x="401" y="640" on="1"/>
        <pt x="513" y="640" on="1"/>
        <pt x="385" y="0" on="1"/>
        <pt x="273" y="0" on="1"/>
        <pt x="323" y="248" on="1"/>
        <pt x="167" y="248" on="1"/>
        <pt x="117" y="0" on="1"/>
        <pt x="5" y="0" on="1"/>
        <pt x="93" y="440" on="1"/>
        <pt x="0" y="440" on="1"/>
        <pt x="0" y="516" on="1"/>
      </contour>
      <contour>
        <pt x="339" y="328" on="1"/>
        <pt x="361" y="440" on="1"/>
        <pt x="205" y="440" on="1"/>
        <pt x="183" y="328" on="1"/>
      </contour>
    </TTGlyph>
    <TTGlyph name="Hcircumflex" xMin="5" yMin="0" xMax="513" yMax="842">
      <component glyphName="H" x="0" y="0" flags="0x0"/>
      <component glyphName="uni0302.case" x="16" y="0" flags="0x0"/>
    </TTGlyph>
    <TTGlyph name="I" xMin="-1" yMin="0" xMax="354" yMax="640">
      <contour>
        <pt x="14" y="76" on="1"/>
        <pt x="75" y="80" on="1"/>
        <pt x="171" y="560" on="1"/>
        <pt x="116" y="564" on="1"/>
        <pt x="131" y="640" on="1"/>
        <pt x="354" y="640" on="1"/>
        <pt x="339" y="564" on="1"/>
        <pt x="283" y="560" on="1"/>
        <pt x="187" y="80" on="1"/>
        <pt x="246" y="76" on="1"/>
        <pt x="231" y="0" on="1"/>
        <pt x="-1" y="0" on="1"/>
      </contour>
    </TTGlyph>
    <TTGlyph name="I.ss02" xMin="-23" yMin="0" xMax="313" yMax="640">
      <contour>
        <pt x="-9" y="68" on="1"/>
        <pt x="43" y="80" on="1"/>
        <pt x="139" y="560" on="1"/>
        <pt x="96" y="572" on="1"/>
        <pt x="109" y="640" on="1"/>
        <pt x="313" y="640" on="1"/>
        <pt x="300" y="572" on="1"/>
        <pt x="251" y="560" on="1"/>
        <pt x="155" y="80" on="1"/>
        <pt x="203" y="68" on="1"/>
        <pt x="189" y="0" on="1"/>
        <pt x="-23" y="0" on="1"/>
      </contour>
    </TTGlyph>
    <TTGlyph name="I.sups" xMin="147" yMin="320" xMax="403" yMax="640">
      <contour>
        <pt x="339" y="320" on="1"/>
        <pt x="147" y="320" on="1"/>
        <pt x="157" y="368" on="1"/>
        <pt x="222" y="376" on="1"/>
        <pt x="264" y="584" on="1"/>
        <pt x="202" y="592" on="1"/>
        <pt x="211" y="640" on="1"/>
        <pt x="403" y="640" on="1"/>
        <pt x="394" y="592" on="1"/>
        <pt x="328" y="584" on="1"/>
        <pt x="286" y="376" on="1"/>
        <pt x="349" y="368" on="1"/>
      </contour>
    </TTGlyph>
    <TTGlyph name="IJ" xMin="-45" yMin="0" xMax="501" yMax="640">
      <contour>
        <pt x="-31" y="68" on="1"/>
        <pt x="13" y="80" on="1"/>
        <pt x="109" y="560" on="1"/>
        <pt x="70" y="572" on="1"/>
        <pt x="83" y="640" on="1"/>
        <pt x="271" y="640" on="1"/>
        <pt x="258" y="572" on="1"/>
        <pt x="222" y="560" on="1"/>
        <pt x="125" y="80" on="1"/>
        <pt x="202" y="80" on="1"/>
        <pt x="242" y="80" on="0"/>
        <pt x="287" y="133" on="0"/>
        <pt x="297" y="181" on="1"/>
        <pt x="373" y="560" on="1"/>
        <pt x="289" y="560" on="1"/>
        <pt x="305" y="640" on="1"/>
        <pt x="501" y="640" on="1"/>
        <pt x="409" y="177" on="1"/>
        <pt x="374" y="0" on="0"/>
        <pt x="192" y="0" on="1"/>
        <pt x="-45" y="0" on="1"/>
      </contour>
    </TTGlyph>
    <TTGlyph name="Iacute" xMin="-1" yMin="0" xMax="436" yMax="846">
      <component glyphName="I" x="0" y="0" flags="0x0"/>
      <component glyphName="acutecomb.case" x="-64" y="0" flags="0x0"/>
    </TTGlyph>
    <TTGlyph name="Iacute_J.loclNLD" xMin="-45" yMin="0" xMax="501" yMax="846">
      <component glyphName="IJ" x="0" y="0" flags="0x0"/>
      <component glyphName="acutecomb.case" x="0" y="0" flags="0x0"/>
    </TTGlyph>
    <TTGlyph name="Ibreve" xMin="-1" yMin="0" xMax="423" yMax="846">
      <component glyphName="I" x="0" y="0" flags="0x0"/>
      <component glyphName="uni0306.case" x="-64" y="0" flags="0x0"/>
    </TTGlyph>
    <TTGlyph name="Icircumflex" xMin="-1" yMin="0" xMax="411" yMax="842">
      <component glyphName="I" x="0" y="0" flags="0x0"/>
      <component glyphName="uni0302.case" x="-64" y="0" flags="0x0"/>
    </TTGlyph>
    <TTGlyph name="Idieresis" xMin="-1" yMin="0" xMax="413" yMax="830">
      <component glyphName="I" x="0" y="0" flags="0x0"/>
      <component glyphName="uni0308.case" x="-64" y="0" flags="0x0"/>
    </TTGlyph>
    <TTGlyph name="Idotaccent" xMin="-1" yMin="0" xMax="399" yMax="826">
      <component glyphName="I" x="0" y="0" flags="0x0"/>
      <component glyphName="uni0307.case" x="0" y="0" flags="0x0"/>
    </TTGlyph>
    <TTGlyph name="Igrave" xMin="-1" yMin="0" xMax="354" yMax="832">
      <component glyphName="I" x="0" y="0" flags="0x0"/>
      <component glyphName="gravecomb.case" x="-64" y="0" flags="0x0"/>
    </TTGlyph>
    <TTGlyph name="Imacron" xMin="-1" yMin="0" xMax="400" yMax="776">
      <component glyphName="I" x="0" y="0" flags="0x0"/>
      <component glyphName="uni0304.case" x="-64" y="0" flags="0x0"/>
    </TTGlyph>
    <TTGlyph name="Iogonek" xMin="-1" yMin="-197" xMax="359" yMax="640">
      <component glyphName="I" x="0" y="0" flags="0x0"/>
      <component glyphName="uni0328" x="14" y="0" flags="0x0"/>
    </TTGlyph>
    <TTGlyph name="Iota" xMin="-1" yMin="0" xMax="354" yMax="640">
      <component glyphName="I" x="0" y="0" flags="0x0"/>
    </TTGlyph>
    <TTGlyph name="Iotadieresis" xMin="-1" yMin="0" xMax="413" yMax="830">
      <component glyphName="I" x="0" y="0" flags="0x0"/>
      <component glyphName="uni0308.case" x="-64" y="0" flags="0x0"/>
    </TTGlyph>
    <TTGlyph name="Iotatonos" xMin="-20" yMin="0" xMax="354" yMax="704">
      <component glyphName="I" x="0" y="0" flags="0x0"/>
      <component glyphName="tonos" x="-256" y="0" flags="0x0"/>
    </TTGlyph>
    <TTGlyph name="Itilde" xMin="-1" yMin="0" xMax="443" yMax="843">
      <component glyphName="I" x="0" y="0" flags="0x0"/>
      <component glyphName="tildecomb.case" x="-64" y="0" flags="0x0"/>
    </TTGlyph>
    <TTGlyph name="J" xMin="36" yMin="-8" xMax="481" yMax="640">
      <contour>
        <pt x="143" y="111" on="0"/>
        <pt x="163" y="72" on="0"/>
        <pt x="187" y="72" on="1"/>
        <pt x="255" y="72" on="0"/>
        <pt x="276" y="173" on="1"/>
        <pt x="352" y="552" on="1"/>
        <pt x="198" y="552" on="1"/>
        <pt x="215" y="640" on="1"/>
        <pt x="481" y="640" on="1"/>
        <pt x="387" y="169" on="1"/>
        <pt x="352" y="-8" on="0"/>
        <pt x="184" y="-8" on="1"/>
        <pt x="109" y="-8" on="0"/>
        <pt x="37" y="71" on="0"/>
        <pt x="36" y="140" on="1"/>
        <pt x="141" y="156" on="1"/>
      </contour>
    </TTGlyph>
    <TTGlyph name="J.sups" xMin="147" yMin="320" xMax="403" yMax="640">
      <contour>
        <pt x="403" y="640" on="1"/>
        <pt x="390" y="576" on="1"/>
        <pt x="378" y="512" on="1"/>
        <pt x="352" y="384" on="1"/>
        <pt x="288" y="384" on="1"/>
        <pt x="314" y="512" on="1"/>
        <pt x="326" y="576" on="1"/>
        <pt x="198" y="576" on="1"/>
        <pt x="211" y="640" on="1"/>
      </contour>
      <contour>
        <pt x="160" y="384" on="1"/>
        <pt x="288" y="384" on="1"/>
        <pt x="275" y="320" on="1"/>
        <pt x="147" y="320" on="1"/>
      </contour>
    </TTGlyph>
    <TTGlyph name="Jcircumflex" xMin="36" yMin="-8" xMax="521" yMax="842">
      <component glyphName="J" x="0" y="0" flags="0x0"/>
      <component glyphName="uni0302.case" x="46" y="0" flags="0x0"/>
    </TTGlyph>
    <TTGlyph name="K" xMin="5" yMin="0" xMax="498" yMax="640">
      <contour>
        <pt x="133" y="640" on="1"/>
        <pt x="245" y="640" on="1"/>
        <pt x="184" y="333" on="1"/>
        <pt x="191" y="333" on="1"/>
        <pt x="253" y="400" on="0"/>
        <pt x="340" y="543" on="0"/>
        <pt x="377" y="640" on="1"/>
        <pt x="498" y="640" on="1"/>
        <pt x="459" y="537" on="0"/>
        <pt x="374" y="388" on="0"/>
        <pt x="311" y="318" on="1"/>
        <pt x="385" y="286" on="0"/>
        <pt x="385" y="183" on="1"/>
        <pt x="385" y="171" on="0"/>
        <pt x="383" y="145" on="1"/>
        <pt x="367" y="0" on="1"/>
        <pt x="250" y="0" on="1"/>
        <pt x="272" y="145" on="1"/>
        <pt x="276" y="168" on="0"/>
        <pt x="276" y="189" on="1"/>
        <pt x="276" y="224" on="0"/>
        <pt x="245" y="253" on="0"/>
        <pt x="208" y="253" on="1"/>
        <pt x="168" y="253" on="1"/>
        <pt x="117" y="0" on="1"/>
        <pt x="5" y="0" on="1"/>
      </contour>
    </TTGlyph>
    <TTGlyph name="K.sups" xMin="147" yMin="320" xMax="403" yMax="640">
      <contour>
        <pt x="275" y="640" on="1"/>
        <pt x="262" y="576" on="1"/>
        <pt x="250" y="512" on="1"/>
        <pt x="314" y="512" on="1"/>
        <pt x="301" y="448" on="1"/>
        <pt x="237" y="448" on="1"/>
        <pt x="211" y="320" on="1"/>
        <pt x="147" y="320" on="1"/>
        <pt x="186" y="512" on="1"/>
        <pt x="198" y="576" on="1"/>
        <pt x="211" y="640" on="1"/>
      </contour>
      <contour>
        <pt x="301" y="448" on="1"/>
        <pt x="365" y="448" on="1"/>
        <pt x="339" y="320" on="1"/>
        <pt x="275" y="320" on="1"/>
      </contour>
      <contour>
        <pt x="326" y="576" on="1"/>
        <pt x="339" y="640" on="1"/>
        <pt x="403" y="640" on="1"/>
        <pt x="390" y="576" on="1"/>
        <pt x="378" y="512" on="1"/>
        <pt x="314" y="512" on="1"/>
      </contour>
    </TTGlyph>
    <TTGlyph name="Kappa" xMin="5" yMin="0" xMax="498" yMax="640">
      <component glyphName="K" x="0" y="0" flags="0x0"/>
    </TTGlyph>
    <TTGlyph name="L" xMin="5" yMin="0" xMax="315" yMax="640">
      <contour>
        <pt x="133" y="640" on="1"/>
        <pt x="245" y="640" on="1"/>
        <pt x="135" y="88" on="1"/>
        <pt x="315" y="88" on="1"/>
        <pt x="297" y="0" on="1"/>
        <pt x="5" y="0" on="1"/>
      </contour>
    </TTGlyph>
    <TTGlyph name="L.sups" xMin="147" yMin="320" xMax="350" yMax="640">
      <contour>
        <pt x="339" y="320" on="1"/>
        <pt x="147" y="320" on="1"/>
        <pt x="211" y="640" on="1"/>
        <pt x="275" y="640" on="1"/>
        <pt x="222" y="376" on="1"/>
        <pt x="350" y="376" on="1"/>
      </contour>
    </TTGlyph>
    <TTGlyph name="Lacute" xMin="5" yMin="0" xMax="382" yMax="846">
      <component glyphName="L" x="0" y="0" flags="0x0"/>
      <component glyphName="acutecomb.case" x="-118" y="0" flags="0x0"/>
    </TTGlyph>
    <TTGlyph name="Lambda" xMin="-20" yMin="0" xMax="396" yMax="644">
      <contour>
        <pt x="32" y="189" on="0"/>
        <pt x="172" y="522" on="0"/>
        <pt x="255" y="644" on="1"/>
        <pt x="357" y="636" on="1"/>
        <pt x="396" y="499" on="0"/>
        <pt x="396" y="295" on="1"/>
        <pt x="396" y="160" on="0"/>
        <pt x="377" y="0" on="1"/>
        <pt x="263" y="0" on="1"/>
        <pt x="292" y="212" on="0"/>
        <pt x="292" y="376" on="1"/>
        <pt x="292" y="459" on="0"/>
        <pt x="285" y="519" on="1"/>
        <pt x="183" y="317" on="0"/>
        <pt x="96" y="0" on="1"/>
        <pt x="-20" y="0" on="1"/>
      </contour>
    </TTGlyph>
    <TTGlyph name="Lcaron" xMin="5" yMin="0" xMax="454" yMax="644">
      <component glyphName="L" x="0" y="0" flags="0x0"/>
      <component glyphName="uni0315" x="-64" y="0" flags="0x0"/>
    </TTGlyph>
    <TTGlyph name="Ldot" xMin="5" yMin="0" xMax="315" yMax="640">
      <component glyphName="L" x="0" y="0" flags="0x0"/>
      <component glyphName="period" x="128" y="256" flags="0x4"/>
    </TTGlyph>
    <TTGlyph name="Lslash" xMin="-43" yMin="0" xMax="315" yMax="640">
      <component glyphName="L" x="0" y="0" flags="0x0"/>
      <component glyphName="_part.slash.comp" x="-112" y="0" flags="0x0"/>
    </TTGlyph>
    <TTGlyph name="M" xMin="5" yMin="0" xMax="609" yMax="640">
      <contour>
        <pt x="133" y="640" on="1"/>
        <pt x="264" y="640" on="1"/>
        <pt x="295" y="348" on="1"/>
        <pt x="298" y="282" on="1"/>
        <pt x="327" y="348" on="1"/>
        <pt x="476" y="640" on="1"/>
        <pt x="609" y="640" on="1"/>
        <pt x="481" y="0" on="1"/>
        <pt x="369" y="0" on="1"/>
        <pt x="434" y="325" on="1"/>
        <pt x="469" y="456" on="1"/>
        <pt x="447" y="400" on="1"/>
        <pt x="313" y="150" on="1"/>
        <pt x="235" y="150" on="1"/>
        <pt x="204" y="400" on="1"/>
        <pt x="201" y="456" on="1"/>
        <pt x="182" y="325" on="1"/>
        <pt x="117" y="0" on="1"/>
        <pt x="5" y="0" on="1"/>
      </contour>
    </TTGlyph>
    <TTGlyph name="M.sups" xMin="147" yMin="320" xMax="403" yMax="640">
      <contour>
        <pt x="198" y="576" on="1"/>
        <pt x="211" y="640" on="1"/>
        <pt x="403" y="640" on="1"/>
        <pt x="390" y="576" on="1"/>
        <pt x="378" y="512" on="1"/>
        <pt x="339" y="320" on="1"/>
        <pt x="275" y="320" on="1"/>
        <pt x="288" y="384" on="1"/>
        <pt x="224" y="384" on="1"/>
        <pt x="211" y="320" on="1"/>
        <pt x="147" y="320" on="1"/>
        <pt x="186" y="512" on="1"/>
      </contour>
    </TTGlyph>
    <TTGlyph name="Mu" xMin="5" yMin="0" xMax="609" yMax="640">
      <component glyphName="M" x="0" y="0" flags="0x0"/>
    </TTGlyph>
    <TTGlyph name="N" xMin="7" yMin="0" xMax="511" yMax="640">
      <contour>
        <pt x="256" y="2" on="1"/>
        <pt x="189" y="465" on="1"/>
        <pt x="95" y="0" on="1"/>
        <pt x="7" y="0" on="1"/>
        <pt x="135" y="640" on="1"/>
        <pt x="270" y="640" on="1"/>
        <pt x="268" y="639" on="1"/>
        <pt x="332" y="192" on="1"/>
        <pt x="423" y="640" on="1"/>
        <pt x="511" y="640" on="1"/>
        <pt x="383" y="0" on="1"/>
        <pt x="253" y="0" on="1"/>
      </contour>
    </TTGlyph>
    <TTGlyph name="N.sups" xMin="147" yMin="320" xMax="390" yMax="640">
      <contour>
        <pt x="339" y="640" on="1"/>
        <pt x="326" y="576" on="1"/>
        <pt x="262" y="576" on="1"/>
        <pt x="250" y="512" on="1"/>
        <pt x="211" y="320" on="1"/>
        <pt x="147" y="320" on="1"/>
        <pt x="186" y="512" on="1"/>
        <pt x="198" y="576" on="1"/>
        <pt x="211" y="640" on="1"/>
      </contour>
      <contour>
        <pt x="314" y="512" on="1"/>
        <pt x="326" y="576" on="1"/>
        <pt x="390" y="576" on="1"/>
        <pt x="378" y="512" on="1"/>
        <pt x="339" y="320" on="1"/>
        <pt x="275" y="320" on="1"/>
      </contour>
    </TTGlyph>
    <TTGlyph name="Nacute" xMin="7" yMin="0" xMax="516" yMax="846">
      <component glyphName="N" x="0" y="0" flags="0x0"/>
      <component glyphName="acutecomb.case" x="16" y="0" flags="0x0"/>
    </TTGlyph>
    <TTGlyph name="Ncaron" xMin="7" yMin="0" xMax="524" yMax="846">
      <component glyphName="N" x="0" y="0" flags="0x0"/>
      <component glyphName="uni030C.case" x="16" y="0" flags="0x0"/>
    </TTGlyph>
    <TTGlyph name="Ntilde" xMin="7" yMin="0" xMax="523" yMax="843">
      <component glyphName="N" x="0" y="0" flags="0x0"/>
      <component glyphName="tildecomb.case" x="16" y="0" flags="0x0"/>
    </TTGlyph>
    <TTGlyph name="Nu" xMin="7" yMin="0" xMax="511" yMax="640">
      <component glyphName="N" x="0" y="0" flags="0x0"/>
    </TTGlyph>
    <TTGlyph name="O" xMin="32" yMin="-10" xMax="487" yMax="650">
      <contour>
        <pt x="116" y="-10" on="0"/>
        <pt x="32" y="90" on="0"/>
        <pt x="32" y="189" on="1"/>
        <pt x="32" y="252" on="0"/>
        <pt x="48" y="328" on="1"/>
        <pt x="80" y="491" on="0"/>
        <pt x="214" y="650" on="0"/>
        <pt x="319" y="650" on="1"/>
        <pt x="487" y="650" on="0"/>
        <pt x="487" y="456" on="1"/>
        <pt x="487" y="395" on="0"/>
        <pt x="470" y="310" on="1"/>
        <pt x="438" y="149" on="0"/>
        <pt x="306" y="-10" on="0"/>
        <pt x="200" y="-10" on="1"/>
      </contour>
      <contour>
        <pt x="140" y="212" on="0"/>
        <pt x="140" y="160" on="1"/>
        <pt x="140" y="113" on="0"/>
        <pt x="170" y="72" on="0"/>
        <pt x="203" y="72" on="1"/>
        <pt x="259" y="72" on="0"/>
        <pt x="330" y="190" on="0"/>
        <pt x="358" y="328" on="1"/>
        <pt x="378" y="428" on="0"/>
        <pt x="378" y="480" on="1"/>
        <pt x="378" y="527" on="0"/>
        <pt x="348" y="568" on="0"/>
        <pt x="315" y="568" on="1"/>
        <pt x="259" y="568" on="0"/>
        <pt x="188" y="449" on="0"/>
        <pt x="160" y="310" on="1"/>
      </contour>
    </TTGlyph>
    <TTGlyph name="O.sups" xMin="147" yMin="320" xMax="403" yMax="640">
      <contour>
        <pt x="403" y="640" on="1"/>
        <pt x="390" y="576" on="1"/>
        <pt x="378" y="512" on="1"/>
        <pt x="339" y="320" on="1"/>
        <pt x="147" y="320" on="1"/>
        <pt x="186" y="512" on="1"/>
        <pt x="198" y="576" on="1"/>
        <pt x="211" y="640" on="1"/>
      </contour>
      <contour>
        <pt x="288" y="384" on="1"/>
        <pt x="314" y="512" on="1"/>
        <pt x="326" y="576" on="1"/>
        <pt x="262" y="576" on="1"/>
        <pt x="250" y="512" on="1"/>
        <pt x="224" y="384" on="1"/>
      </contour>
    </TTGlyph>
    <TTGlyph name="OE" xMin="-10" yMin="0" xMax="529" yMax="640">
      <contour>
        <pt x="-10" y="0" on="0"/>
        <pt x="-10" y="181" on="1"/>
        <pt x="-10" y="241" on="0"/>
        <pt x="7" y="328" on="1"/>
        <pt x="39" y="486" on="0"/>
        <pt x="156" y="640" on="0"/>
        <pt x="248" y="640" on="1"/>
        <pt x="529" y="640" on="1"/>
        <pt x="513" y="560" on="1"/>
        <pt x="369" y="560" on="1"/>
        <pt x="323" y="328" on="1"/>
        <pt x="434" y="328" on="1"/>
        <pt x="418" y="248" on="1"/>
        <pt x="307" y="248" on="1"/>
        <pt x="273" y="80" on="1"/>
        <pt x="427" y="80" on="1"/>
        <pt x="411" y="0" on="1"/>
        <pt x="126" y="0" on="1"/>
      </contour>
      <contour>
        <pt x="97" y="201" on="0"/>
        <pt x="97" y="146" on="1"/>
        <pt x="97" y="111" on="0"/>
        <pt x="116" y="80" on="0"/>
        <pt x="136" y="80" on="1"/>
        <pt x="161" y="80" on="1"/>
        <pt x="257" y="560" on="1"/>
        <pt x="238" y="560" on="1"/>
        <pt x="201" y="560" on="0"/>
        <pt x="145" y="443" on="0"/>
        <pt x="119" y="310" on="1"/>
      </contour>
    </TTGlyph>
    <TTGlyph name="Oacute" xMin="32" yMin="-10" xMax="516" yMax="846">
      <component glyphName="O" x="0" y="0" flags="0x0"/>
      <component glyphName="acutecomb.case" x="16" y="0" flags="0x0"/>
    </TTGlyph>
    <TTGlyph name="Obreve" xMin="32" yMin="-10" xMax="503" yMax="846">
      <component glyphName="O" x="0" y="0" flags="0x0"/>
      <component glyphName="uni0306.case" x="16" y="0" flags="0x0"/>
    </TTGlyph>
    <TTGlyph name="Ocircumflex" xMin="32" yMin="-10" xMax="491" yMax="842">
      <component glyphName="O" x="0" y="0" flags="0x0"/>
      <component glyphName="uni0302.case" x="16" y="0" flags="0x0"/>
    </TTGlyph>
    <TTGlyph name="Odieresis" xMin="32" yMin="-10" xMax="493" yMax="830">
      <component glyphName="O" x="0" y="0" flags="0x0"/>
      <component glyphName="uni0308.case" x="16" y="0" flags="0x0"/>
    </TTGlyph>
    <TTGlyph name="Ograve" xMin="32" yMin="-10" xMax="487" yMax="832">
      <component glyphName="O" x="0" y="0" flags="0x0"/>
      <component glyphName="gravecomb.case" x="16" y="0" flags="0x0"/>
    </TTGlyph>
    <TTGlyph name="Ohungarumlaut" xMin="32" yMin="-10" xMax="539" yMax="832">
      <component glyphName="O" x="0" y="0" flags="0x0"/>
      <component glyphName="uni030B.case" x="16" y="0" flags="0x0"/>
    </TTGlyph>
    <TTGlyph name="Omacron" xMin="32" yMin="-10" xMax="487" yMax="776">
      <component glyphName="O" x="0" y="0" flags="0x0"/>
      <component glyphName="uni0304.case" x="16" y="0" flags="0x0"/>
    </TTGlyph>
    <TTGlyph name="Omegatonos" xMin="-20" yMin="0" xMax="454" yMax="704">
      <component glyphName="uni03A9" x="0" y="0" flags="0x0"/>
      <component glyphName="tonos" x="-256" y="0" flags="0x0"/>
    </TTGlyph>
    <TTGlyph name="Omicron" xMin="32" yMin="-10" xMax="487" yMax="650">
      <component glyphName="O" x="0" y="0" flags="0x0"/>
    </TTGlyph>
    <TTGlyph name="Omicrontonos" xMin="-20" yMin="-10" xMax="487" yMax="704">
      <component glyphName="O" x="0" y="0" flags="0x0"/>
      <component glyphName="tonos" x="-256" y="0" flags="0x0"/>
    </TTGlyph>
    <TTGlyph name="Oslash" xMin="-20" yMin="-26" xMax="507" yMax="666">
      <contour>
        <pt x="507" y="626" on="1"/>
        <pt x="467" y="568" on="1"/>
        <pt x="487" y="523" on="0"/>
        <pt x="487" y="457" on="1"/>
        <pt x="487" y="397" on="0"/>
        <pt x="470" y="310" on="1"/>
        <pt x="438" y="149" on="0"/>
        <pt x="306" y="-10" on="0"/>
        <pt x="200" y="-10" on="1"/>
        <pt x="130" y="-10" on="0"/>
        <pt x="89" y="25" on="1"/>
        <pt x="53" y="-26" on="1"/>
        <pt x="-20" y="15" on="1"/>
        <pt x="42" y="104" on="1"/>
        <pt x="32" y="138" on="0"/>
        <pt x="32" y="188" on="1"/>
        <pt x="32" y="251" on="0"/>
        <pt x="48" y="328" on="1"/>
        <pt x="80" y="491" on="0"/>
        <pt x="214" y="650" on="0"/>
        <pt x="319" y="650" on="1"/>
        <pt x="373" y="650" on="0"/>
        <pt x="410" y="630" on="1"/>
        <pt x="435" y="666" on="1"/>
      </contour>
      <contour>
        <pt x="160" y="72" on="0"/>
        <pt x="203" y="72" on="1"/>
        <pt x="259" y="72" on="0"/>
        <pt x="330" y="190" on="0"/>
        <pt x="358" y="328" on="1"/>
        <pt x="371" y="399" on="0"/>
        <pt x="375" y="437" on="1"/>
        <pt x="147" y="109" on="1"/>
      </contour>
      <contour>
        <pt x="357" y="554" on="1"/>
        <pt x="343" y="568" on="0"/>
        <pt x="315" y="568" on="1"/>
        <pt x="259" y="568" on="0"/>
        <pt x="188" y="449" on="0"/>
        <pt x="160" y="310" on="1"/>
        <pt x="154" y="283" on="0"/>
        <pt x="151" y="259" on="1"/>
      </contour>
    </TTGlyph>
    <TTGlyph name="Oslashacute" xMin="-20" yMin="-26" xMax="516" yMax="846">
      <component glyphName="Oslash" x="0" y="0" flags="0x0"/>
      <component glyphName="acutecomb.case" x="16" y="0" flags="0x0"/>
    </TTGlyph>
    <TTGlyph name="Otilde" xMin="32" yMin="-10" xMax="523" yMax="843">
      <component glyphName="O" x="0" y="0" flags="0x0"/>
      <component glyphName="tildecomb.case" x="16" y="0" flags="0x0"/>
    </TTGlyph>
    <TTGlyph name="P" xMin="5" yMin="0" xMax="454" yMax="640">
      <contour>
        <pt x="133" y="640" on="1"/>
        <pt x="298" y="640" on="1"/>
        <pt x="371" y="640" on="0"/>
        <pt x="454" y="554" on="0"/>
        <pt x="454" y="474" on="1"/>
        <pt x="454" y="443" on="0"/>
        <pt x="446" y="401" on="1"/>
        <pt x="425" y="295" on="0"/>
        <pt x="302" y="184" on="0"/>
        <pt x="213" y="184" on="1"/>
        <pt x="154" y="184" on="1"/>
        <pt x="117" y="0" on="1"/>
        <pt x="5" y="0" on="1"/>
      </contour>
      <contour>
        <pt x="199" y="263" on="1"/>
        <pt x="257" y="263" on="0"/>
        <pt x="318" y="342" on="0"/>
        <pt x="334" y="418" on="1"/>
        <pt x="342" y="456" on="0"/>
        <pt x="342" y="482" on="1"/>
        <pt x="342" y="521" on="0"/>
        <pt x="306" y="560" on="0"/>
        <pt x="264" y="560" on="1"/>
        <pt x="229" y="560" on="1"/>
        <pt x="170" y="263" on="1"/>
      </contour>
    </TTGlyph>
    <TTGlyph name="P.sups" xMin="147" yMin="320" xMax="403" yMax="640">
      <contour>
        <pt x="403" y="640" on="1"/>
        <pt x="390" y="576" on="1"/>
        <pt x="378" y="512" on="1"/>
        <pt x="365" y="448" on="1"/>
        <pt x="237" y="448" on="1"/>
        <pt x="211" y="320" on="1"/>
        <pt x="147" y="320" on="1"/>
        <pt x="186" y="512" on="1"/>
        <pt x="198" y="576" on="1"/>
        <pt x="211" y="640" on="1"/>
      </contour>
      <contour>
        <pt x="314" y="512" on="1"/>
        <pt x="326" y="576" on="1"/>
        <pt x="262" y="576" on="1"/>
        <pt x="250" y="512" on="1"/>
      </contour>
    </TTGlyph>
    <TTGlyph name="Phi" xMin="45" yMin="0" xMax="442" yMax="640">
      <component glyphName="uni0424" x="0" y="0" flags="0x0"/>
    </TTGlyph>
    <TTGlyph name="Pi" xMin="5" yMin="0" xMax="481" yMax="640">
      <component glyphName="uni041F" x="0" y="0" flags="0x0"/>
    </TTGlyph>
    <TTGlyph name="Psi" xMin="83" yMin="0" xMax="467" yMax="640">
      <contour>
        <pt x="198" y="256" on="1"/>
        <pt x="134" y="256" on="1"/>
        <pt x="147" y="320" on="1"/>
        <pt x="211" y="320" on="1"/>
        <pt x="250" y="512" on="1"/>
        <pt x="262" y="576" on="1"/>
        <pt x="275" y="640" on="1"/>
        <pt x="339" y="640" on="1"/>
        <pt x="326" y="576" on="1"/>
        <pt x="314" y="512" on="1"/>
        <pt x="275" y="320" on="1"/>
        <pt x="339" y="320" on="1"/>
        <pt x="326" y="256" on="1"/>
        <pt x="262" y="256" on="1"/>
        <pt x="250" y="192" on="1"/>
        <pt x="211" y="0" on="1"/>
        <pt x="147" y="0" on="1"/>
        <pt x="186" y="192" on="1"/>
      </contour>
      <contour>
        <pt x="122" y="512" on="1"/>
        <pt x="134" y="576" on="1"/>
        <pt x="147" y="640" on="1"/>
        <pt x="211" y="640" on="1"/>
        <pt x="198" y="576" on="1"/>
        <pt x="186" y="512" on="1"/>
        <pt x="147" y="320" on="1"/>
        <pt x="83" y="320" on="1"/>
      </contour>
      <contour>
        <pt x="378" y="512" on="1"/>
        <pt x="390" y="576" on="1"/>
        <pt x="403" y="640" on="1"/>
        <pt x="467" y="640" on="1"/>
        <pt x="454" y="576" on="1"/>
        <pt x="442" y="512" on="1"/>
        <pt x="403" y="320" on="1"/>
        <pt x="339" y="320" on="1"/>
      </contour>
    </TTGlyph>
    <TTGlyph name="Q" xMin="32" yMin="-152" xMax="487" yMax="650">
      <contour>
        <pt x="263" y="-148" on="0"/>
        <pt x="168" y="-77" on="0"/>
        <pt x="162" y="-7" on="1"/>
        <pt x="32" y="14" on="0"/>
        <pt x="32" y="189" on="1"/>
        <pt x="32" y="252" on="0"/>
        <pt x="48" y="328" on="1"/>
        <pt x="80" y="491" on="0"/>
        <pt x="214" y="650" on="0"/>
        <pt x="319" y="650" on="1"/>
        <pt x="487" y="650" on="0"/>
        <pt x="487" y="456" on="1"/>
        <pt x="487" y="395" on="0"/>
        <pt x="470" y="310" on="1"/>
        <pt x="442" y="170" on="0"/>
        <pt x="336" y="14" on="0"/>
        <pt x="253" y="-5" on="1"/>
        <pt x="257" y="-36" on="0"/>
        <pt x="316" y="-58" on="0"/>
        <pt x="377" y="-60" on="1"/>
        <pt x="356" y="-152" on="1"/>
      </contour>
      <contour>
        <pt x="140" y="212" on="0"/>
        <pt x="140" y="160" on="1"/>
        <pt x="140" y="113" on="0"/>
        <pt x="170" y="72" on="0"/>
        <pt x="203" y="72" on="1"/>
        <pt x="259" y="72" on="0"/>
        <pt x="330" y="190" on="0"/>
        <pt x="358" y="328" on="1"/>
        <pt x="378" y="428" on="0"/>
        <pt x="378" y="480" on="1"/>
        <pt x="378" y="527" on="0"/>
        <pt x="348" y="568" on="0"/>
        <pt x="315" y="568" on="1"/>
        <pt x="259" y="568" on="0"/>
        <pt x="188" y="449" on="0"/>
        <pt x="160" y="310" on="1"/>
      </contour>
    </TTGlyph>
    <TTGlyph name="Q.sups" xMin="147" yMin="256" xMax="403" yMax="640">
      <contour>
        <pt x="403" y="640" on="1"/>
        <pt x="390" y="576" on="1"/>
        <pt x="378" y="512" on="1"/>
        <pt x="339" y="320" on="1"/>
        <pt x="275" y="320" on="1"/>
        <pt x="262" y="256" on="1"/>
        <pt x="198" y="256" on="1"/>
        <pt x="211" y="320" on="1"/>
        <pt x="147" y="320" on="1"/>
        <pt x="186" y="512" on="1"/>
        <pt x="198" y="576" on="1"/>
        <pt x="211" y="640" on="1"/>
      </contour>
      <contour>
        <pt x="288" y="384" on="1"/>
        <pt x="314" y="512" on="1"/>
        <pt x="326" y="576" on="1"/>
        <pt x="262" y="576" on="1"/>
        <pt x="250" y="512" on="1"/>
        <pt x="224" y="384" on="1"/>
      </contour>
    </TTGlyph>
    <TTGlyph name="R" xMin="5" yMin="0" xMax="458" yMax="640">
      <contour>
        <pt x="373" y="640" on="0"/>
        <pt x="458" y="559" on="0"/>
        <pt x="458" y="485" on="1"/>
        <pt x="458" y="463" on="0"/>
        <pt x="451" y="424" on="1"/>
        <pt x="436" y="352" on="0"/>
        <pt x="354" y="266" on="0"/>
        <pt x="291" y="251" on="1"/>
        <pt x="333" y="223" on="0"/>
        <pt x="378" y="122" on="0"/>
        <pt x="378" y="54" on="1"/>
        <pt x="378" y="29" on="0"/>
        <pt x="375" y="0" on="1"/>
        <pt x="262" y="0" on="1"/>
        <pt x="266" y="31" on="0"/>
        <pt x="266" y="63" on="1"/>
        <pt x="266" y="126" on="0"/>
        <pt x="229" y="207" on="0"/>
        <pt x="190" y="233" on="1"/>
        <pt x="164" y="233" on="1"/>
        <pt x="117" y="0" on="1"/>
        <pt x="5" y="0" on="1"/>
        <pt x="133" y="640" on="1"/>
        <pt x="298" y="640" on="1"/>
      </contour>
      <contour>
        <pt x="209" y="313" on="1"/>
        <pt x="267" y="313" on="0"/>
        <pt x="327" y="385" on="0"/>
        <pt x="340" y="451" on="1"/>
        <pt x="346" y="485" on="0"/>
        <pt x="346" y="499" on="1"/>
        <pt x="346" y="533" on="0"/>
        <pt x="309" y="570" on="0"/>
        <pt x="266" y="570" on="1"/>
        <pt x="231" y="570" on="1"/>
        <pt x="180" y="313" on="1"/>
      </contour>
    </TTGlyph>
    <TTGlyph name="R.sups" xMin="147" yMin="320" xMax="403" yMax="640">
      <contour>
        <pt x="403" y="640" on="1"/>
        <pt x="390" y="576" on="1"/>
        <pt x="378" y="512" on="1"/>
        <pt x="314" y="512" on="1"/>
        <pt x="326" y="576" on="1"/>
        <pt x="262" y="576" on="1"/>
        <pt x="250" y="512" on="1"/>
        <pt x="314" y="512" on="1"/>
        <pt x="301" y="448" on="1"/>
        <pt x="237" y="448" on="1"/>
        <pt x="211" y="320" on="1"/>
        <pt x="147" y="320" on="1"/>
        <pt x="186" y="512" on="1"/>
        <pt x="198" y="576" on="1"/>
        <pt x="211" y="640" on="1"/>
      </contour>
      <contour>
        <pt x="301" y="448" on="1"/>
        <pt x="365" y="448" on="1"/>
        <pt x="339" y="320" on="1"/>
        <pt x="275" y="320" on="1"/>
      </contour>
    </TTGlyph>
    <TTGlyph name="Racute" xMin="5" yMin="0" xMax="500" yMax="846">
      <component glyphName="R" x="0" y="0" flags="0x0"/>
      <component glyphName="acutecomb.case" x="0" y="0" flags="0x0"/>
    </TTGlyph>
    <TTGlyph name="Rcaron" xMin="5" yMin="0" xMax="508" yMax="846">
      <component glyphName="R" x="0" y="0" flags="0x0"/>
      <component glyphName="uni030C.case" x="0" y="0" flags="0x0"/>
    </TTGlyph>
    <TTGlyph name="Rho" xMin="5" yMin="0" xMax="454" yMax="640">
      <component glyphName="P" x="0" y="0" flags="0x0"/>
    </TTGlyph>
    <TTGlyph name="S" xMin="4" yMin="-8" xMax="461" yMax="648">
      <contour>
        <pt x="120" y="-8" on="0"/>
        <pt x="38" y="8" on="0"/>
        <pt x="4" y="25" on="1"/>
        <pt x="27" y="99" on="1"/>
        <pt x="90" y="74" on="0"/>
        <pt x="161" y="74" on="1"/>
        <pt x="273" y="74" on="0"/>
        <pt x="273" y="155" on="1"/>
        <pt x="273" y="184" on="0"/>
        <pt x="238" y="226" on="0"/>
        <pt x="200" y="256" on="1"/>
        <pt x="166" y="283" on="0"/>
        <pt x="123" y="327" on="0"/>
        <pt x="92" y="393" on="0"/>
        <pt x="92" y="437" on="1"/>
        <pt x="92" y="535" on="0"/>
        <pt x="217" y="648" on="0"/>
        <pt x="334" y="648" on="1"/>
        <pt x="402" y="648" on="0"/>
        <pt x="461" y="627" on="1"/>
        <pt x="444" y="551" on="1"/>
        <pt x="391" y="566" on="0"/>
        <pt x="334" y="566" on="1"/>
        <pt x="271" y="566" on="0"/>
        <pt x="208" y="511" on="0"/>
        <pt x="208" y="462" on="1"/>
        <pt x="208" y="433" on="0"/>
        <pt x="230" y="389" on="0"/>
        <pt x="261" y="359" on="0"/>
        <pt x="290" y="336" on="1"/>
        <pt x="322" y="311" on="0"/>
        <pt x="362" y="271" on="0"/>
        <pt x="389" y="209" on="0"/>
        <pt x="389" y="166" on="1"/>
        <pt x="389" y="86" on="0"/>
        <pt x="271" y="-8" on="0"/>
        <pt x="161" y="-8" on="1"/>
      </contour>
    </TTGlyph>
    <TTGlyph name="S.sups" xMin="148" yMin="316" xMax="394" yMax="644">
      <contour>
        <pt x="199" y="316" on="0"/>
        <pt x="148" y="327" on="1"/>
        <pt x="161" y="376" on="1"/>
        <pt x="207" y="370" on="0"/>
        <pt x="231" y="370" on="1"/>
        <pt x="286" y="370" on="0"/>
        <pt x="295" y="419" on="1"/>
        <pt x="296" y="423" on="0"/>
        <pt x="296" y="428" on="1"/>
        <pt x="296" y="439" on="0"/>
        <pt x="283" y="449" on="0"/>
        <pt x="259" y="459" on="0"/>
        <pt x="254" y="461" on="1"/>
        <pt x="223" y="471" on="0"/>
        <pt x="192" y="503" on="0"/>
        <pt x="192" y="532" on="1"/>
        <pt x="192" y="578" on="0"/>
        <pt x="248" y="644" on="0"/>
        <pt x="312" y="644" on="1"/>
        <pt x="352" y="644" on="0"/>
        <pt x="394" y="633" on="1"/>
        <pt x="380" y="584" on="1"/>
        <pt x="347" y="590" on="0"/>
        <pt x="318" y="590" on="1"/>
        <pt x="293" y="590" on="0"/>
        <pt x="260" y="566" on="0"/>
        <pt x="256" y="543" on="1"/>
        <pt x="255" y="540" on="0"/>
        <pt x="255" y="535" on="1"/>
        <pt x="255" y="526" on="0"/>
        <pt x="266" y="518" on="0"/>
        <pt x="285" y="510" on="0"/>
        <pt x="291" y="507" on="1"/>
        <pt x="325" y="497" on="0"/>
        <pt x="359" y="465" on="0"/>
        <pt x="359" y="433" on="1"/>
        <pt x="359" y="420" on="0"/>
        <pt x="356" y="403" on="1"/>
        <pt x="348" y="361" on="0"/>
        <pt x="289" y="316" on="0"/>
        <pt x="239" y="316" on="1"/>
      </contour>
    </TTGlyph>
    <TTGlyph name="Sacute" xMin="4" yMin="-8" xMax="500" yMax="846">
      <component glyphName="S" x="0" y="0" flags="0x0"/>
      <component glyphName="acutecomb.case" x="0" y="0" flags="0x0"/>
    </TTGlyph>
    <TTGlyph name="Scaron" xMin="4" yMin="-8" xMax="508" yMax="846">
      <component glyphName="S" x="0" y="0" flags="0x0"/>
      <component glyphName="uni030C.case" x="0" y="0" flags="0x0"/>
    </TTGlyph>
    <TTGlyph name="Scedilla" xMin="-3" yMin="-172" xMax="461" yMax="648">
      <component glyphName="S" x="0" y="0" flags="0x0"/>
      <component glyphName="uni0327" x="-51" y="20" flags="0x4"/>
    </TTGlyph>
    <TTGlyph name="Scircumflex" xMin="4" yMin="-8" xMax="475" yMax="842">
      <component glyphName="S" x="0" y="0" flags="0x0"/>
      <component glyphName="uni0302.case" x="0" y="0" flags="0x0"/>
    </TTGlyph>
    <TTGlyph name="Sigma" xMin="19" yMin="0" xMax="467" yMax="640">
      <contour>
        <pt x="467" y="640" on="1"/>
        <pt x="454" y="576" on="1"/>
        <pt x="198" y="576" on="1"/>
        <pt x="186" y="512" on="1"/>
        <pt x="122" y="512" on="1"/>
        <pt x="134" y="576" on="1"/>
        <pt x="147" y="640" on="1"/>
      </contour>
      <contour>
        <pt x="45" y="128" on="1"/>
        <pt x="109" y="128" on="1"/>
        <pt x="96" y="64" on="1"/>
        <pt x="352" y="64" on="1"/>
        <pt x="339" y="0" on="1"/>
        <pt x="19" y="0" on="1"/>
      </contour>
      <contour>
        <pt x="122" y="192" on="1"/>
        <pt x="134" y="256" on="1"/>
        <pt x="198" y="256" on="1"/>
        <pt x="186" y="192" on="1"/>
        <pt x="173" y="128" on="1"/>
        <pt x="109" y="128" on="1"/>
      </contour>
      <contour>
        <pt x="186" y="512" on="1"/>
        <pt x="250" y="512" on="1"/>
        <pt x="224" y="384" on="1"/>
        <pt x="160" y="384" on="1"/>
      </contour>
      <contour>
        <pt x="224" y="384" on="1"/>
        <pt x="288" y="384" on="1"/>
        <pt x="262" y="256" on="1"/>
        <pt x="198" y="256" on="1"/>
      </contour>
    </TTGlyph>
    <TTGlyph name="T" xMin="91" yMin="0" xMax="507" yMax="640">
      <contour>
        <pt x="347" y="560" on="1"/>
        <pt x="235" y="0" on="1"/>
        <pt x="123" y="0" on="1"/>
        <pt x="235" y="560" on="1"/>
        <pt x="91" y="560" on="1"/>
        <pt x="107" y="640" on="1"/>
        <pt x="507" y="640" on="1"/>
        <pt x="491" y="560" on="1"/>
      </contour>
    </TTGlyph>
    <TTGlyph name="T.sups" xMin="192" yMin="320" xMax="411" yMax="640">
      <contour>
        <pt x="400" y="584" on="1"/>
        <pt x="328" y="584" on="1"/>
        <pt x="275" y="320" on="1"/>
        <pt x="211" y="320" on="1"/>
        <pt x="264" y="584" on="1"/>
        <pt x="192" y="584" on="1"/>
        <pt x="203" y="640" on="1"/>
        <pt x="411" y="640" on="1"/>
      </contour>
    </TTGlyph>
    <TTGlyph name="Tau" xMin="91" yMin="0" xMax="507" yMax="640">
      <component glyphName="T" x="0" y="0" flags="0x0"/>
    </TTGlyph>
    <TTGlyph name="Tbar" xMin="74" yMin="0" xMax="507" yMax="640">
      <contour>
        <pt x="285" y="250" on="1"/>
        <pt x="235" y="0" on="1"/>
        <pt x="123" y="0" on="1"/>
        <pt x="173" y="250" on="1"/>
        <pt x="74" y="250" on="1"/>
        <pt x="74" y="326" on="1"/>
        <pt x="188" y="326" on="1"/>
        <pt x="235" y="560" on="1"/>
        <pt x="91" y="560" on="1"/>
        <pt x="107" y="640" on="1"/>
        <pt x="507" y="640" on="1"/>
        <pt x="491" y="560" on="1"/>
        <pt x="347" y="560" on="1"/>
        <pt x="300" y="326" on="1"/>
        <pt x="374" y="326" on="1"/>
        <pt x="374" y="250" on="1"/>
      </contour>
    </TTGlyph>
    <TTGlyph name="Tcaron" xMin="91" yMin="0" xMax="508" yMax="846">
      <component glyphName="T" x="0" y="0" flags="0x0"/>
      <component glyphName="uni030C.case" x="0" y="0" flags="0x0"/>
    </TTGlyph>
    <TTGlyph name="Theta" xMin="32" yMin="-10" xMax="487" yMax="650">
      <contour>
        <pt x="116" y="-10" on="0"/>
        <pt x="32" y="90" on="0"/>
        <pt x="32" y="189" on="1"/>
        <pt x="32" y="252" on="0"/>
        <pt x="48" y="328" on="1"/>
        <pt x="80" y="491" on="0"/>
        <pt x="214" y="650" on="0"/>
        <pt x="319" y="650" on="1"/>
        <pt x="487" y="650" on="0"/>
        <pt x="487" y="456" on="1"/>
        <pt x="487" y="395" on="0"/>
        <pt x="470" y="310" on="1"/>
        <pt x="438" y="149" on="0"/>
        <pt x="306" y="-10" on="0"/>
        <pt x="200" y="-10" on="1"/>
      </contour>
      <contour>
        <pt x="141" y="201" on="0"/>
        <pt x="141" y="160" on="1"/>
        <pt x="141" y="114" on="0"/>
        <pt x="171" y="72" on="0"/>
        <pt x="203" y="72" on="1"/>
        <pt x="250" y="72" on="0"/>
        <pt x="315" y="155" on="0"/>
        <pt x="340" y="248" on="1"/>
        <pt x="149" y="248" on="1"/>
      </contour>
      <contour>
        <pt x="358" y="328" on="1"/>
        <pt x="378" y="428" on="0"/>
        <pt x="378" y="480" on="1"/>
        <pt x="378" y="527" on="0"/>
        <pt x="348" y="568" on="0"/>
        <pt x="315" y="568" on="1"/>
        <pt x="261" y="568" on="0"/>
        <pt x="191" y="457" on="0"/>
        <pt x="164" y="328" on="1"/>
      </contour>
    </TTGlyph>
    <TTGlyph name="Thorn" xMin="5" yMin="0" xMax="434" yMax="640">
      <contour>
        <pt x="349" y="520" on="0"/>
        <pt x="434" y="440" on="0"/>
        <pt x="434" y="366" on="1"/>
        <pt x="434" y="341" on="0"/>
        <pt x="428" y="309" on="1"/>
        <pt x="410" y="217" on="0"/>
        <pt x="289" y="120" on="0"/>
        <pt x="201" y="120" on="1"/>
        <pt x="141" y="120" on="1"/>
        <pt x="117" y="0" on="1"/>
        <pt x="5" y="0" on="1"/>
        <pt x="133" y="640" on="1"/>
        <pt x="245" y="640" on="1"/>
        <pt x="221" y="520" on="1"/>
        <pt x="275" y="520" on="1"/>
      </contour>
      <contour>
        <pt x="186" y="200" on="1"/>
        <pt x="244" y="200" on="0"/>
        <pt x="305" y="265" on="0"/>
        <pt x="318" y="327" on="1"/>
        <pt x="323" y="354" on="0"/>
        <pt x="323" y="372" on="1"/>
        <pt x="323" y="406" on="0"/>
        <pt x="285" y="440" on="0"/>
        <pt x="240" y="440" on="1"/>
        <pt x="205" y="440" on="1"/>
        <pt x="157" y="200" on="1"/>
      </contour>
    </TTGlyph>
    <TTGlyph name="U" xMin="52" yMin="-8" xMax="497" yMax="640">
      <contour>
        <pt x="261" y="640" on="1"/>
        <pt x="169" y="178" on="1"/>
        <pt x="161" y="140" on="0"/>
        <pt x="161" y="117" on="1"/>
        <pt x="161" y="94" on="0"/>
        <pt x="180" y="72" on="0"/>
        <pt x="203" y="72" on="1"/>
        <pt x="240" y="72" on="0"/>
        <pt x="284" y="131" on="0"/>
        <pt x="294" y="186" on="1"/>
        <pt x="385" y="640" on="1"/>
        <pt x="497" y="640" on="1"/>
        <pt x="406" y="183" on="1"/>
        <pt x="367" y="-8" on="0"/>
        <pt x="200" y="-8" on="1"/>
        <pt x="131" y="-8" on="0"/>
        <pt x="52" y="59" on="0"/>
        <pt x="52" y="130" on="1"/>
        <pt x="52" y="151" on="0"/>
        <pt x="59" y="191" on="1"/>
        <pt x="149" y="640" on="1"/>
      </contour>
    </TTGlyph>
    <TTGlyph name="U.sups" xMin="160" yMin="320" xMax="403" yMax="640">
      <contour>
        <pt x="275" y="640" on="1"/>
        <pt x="262" y="576" on="1"/>
        <pt x="250" y="512" on="1"/>
        <pt x="224" y="384" on="1"/>
        <pt x="160" y="384" on="1"/>
        <pt x="186" y="512" on="1"/>
        <pt x="198" y="576" on="1"/>
        <pt x="211" y="640" on="1"/>
      </contour>
      <contour>
        <pt x="224" y="384" on="1"/>
        <pt x="288" y="384" on="1"/>
        <pt x="314" y="512" on="1"/>
        <pt x="326" y="576" on="1"/>
        <pt x="339" y="640" on="1"/>
        <pt x="403" y="640" on="1"/>
        <pt x="390" y="576" on="1"/>
        <pt x="378" y="512" on="1"/>
        <pt x="339" y="320" on="1"/>
        <pt x="211" y="320" on="1"/>
      </contour>
    </TTGlyph>
    <TTGlyph name="Uacute" xMin="52" yMin="-8" xMax="516" yMax="846">
      <component glyphName="U" x="0" y="0" flags="0x0"/>
      <component glyphName="acutecomb.case" x="16" y="0" flags="0x0"/>
    </TTGlyph>
    <TTGlyph name="Ubreve" xMin="52" yMin="-8" xMax="503" yMax="846">
      <component glyphName="U" x="0" y="0" flags="0x0"/>
      <component glyphName="uni0306.case" x="16" y="0" flags="0x0"/>
    </TTGlyph>
    <TTGlyph name="Ucircumflex" xMin="52" yMin="-8" xMax="497" yMax="842">
      <component glyphName="U" x="0" y="0" flags="0x0"/>
      <component glyphName="uni0302.case" x="16" y="0" flags="0x0"/>
    </TTGlyph>
    <TTGlyph name="Udieresis" xMin="52" yMin="-8" xMax="497" yMax="830">
      <component glyphName="U" x="0" y="0" flags="0x0"/>
      <component glyphName="uni0308.case" x="16" y="0" flags="0x0"/>
    </TTGlyph>
    <TTGlyph name="Ugrave" xMin="52" yMin="-8" xMax="497" yMax="832">
      <component glyphName="U" x="0" y="0" flags="0x0"/>
      <component glyphName="gravecomb.case" x="16" y="0" flags="0x0"/>
    </TTGlyph>
    <TTGlyph name="Uhungarumlaut" xMin="52" yMin="-8" xMax="539" yMax="832">
      <component glyphName="U" x="0" y="0" flags="0x0"/>
      <component glyphName="uni030B.case" x="16" y="0" flags="0x0"/>
    </TTGlyph>
    <TTGlyph name="Umacron" xMin="52" yMin="-8" xMax="497" yMax="776">
      <component glyphName="U" x="0" y="0" flags="0x0"/>
      <component glyphName="uni0304.case" x="16" y="0" flags="0x0"/>
    </TTGlyph>
    <TTGlyph name="Uogonek" xMin="52" yMin="-197" xMax="497" yMax="640">
      <component glyphName="U" x="0" y="0" flags="0x0"/>
      <component glyphName="uni0328" x="-88" y="0" flags="0x0"/>
    </TTGlyph>
    <TTGlyph name="Upsilon" xMin="104" yMin="0" xMax="506" yMax="640">
      <component glyphName="Y" x="0" y="0" flags="0x0"/>
    </TTGlyph>
    <TTGlyph name="Upsilondieresis" xMin="104" yMin="0" xMax="506" yMax="830">
      <component glyphName="Y" x="0" y="0" flags="0x0"/>
      <component glyphName="uni0308.case" x="0" y="0" flags="0x0"/>
    </TTGlyph>
    <TTGlyph name="Upsilontonos" xMin="-20" yMin="0" xMax="506" yMax="704">
      <component glyphName="Y" x="0" y="0" flags="0x0"/>
      <component glyphName="tonos" x="-256" y="0" flags="0x0"/>
    </TTGlyph>
    <TTGlyph name="Uring" xMin="52" yMin="-8" xMax="497" yMax="899">
      <component glyphName="U" x="0" y="0" flags="0x0"/>
      <component glyphName="uni030A.case" x="16" y="0" flags="0x0"/>
    </TTGlyph>
    <TTGlyph name="Utilde" xMin="52" yMin="-8" xMax="523" yMax="843">
      <component glyphName="U" x="0" y="0" flags="0x0"/>
      <component glyphName="tildecomb.case" x="16" y="0" flags="0x0"/>
    </TTGlyph>
    <TTGlyph name="V" xMin="90" yMin="0" xMax="507" yMax="640">
      <contour>
        <pt x="90" y="145" on="0"/>
        <pt x="90" y="351" on="1"/>
        <pt x="90" y="492" on="0"/>
        <pt x="108" y="640" on="1"/>
        <pt x="222" y="640" on="1"/>
        <pt x="196" y="427" on="0"/>
        <pt x="196" y="267" on="1"/>
        <pt x="196" y="188" on="0"/>
        <pt x="202" y="122" on="1"/>
        <pt x="302" y="323" on="0"/>
        <pt x="391" y="640" on="1"/>
        <pt x="507" y="640" on="1"/>
        <pt x="454" y="451" on="0"/>
        <pt x="316" y="120" on="0"/>
        <pt x="235" y="0" on="1"/>
        <pt x="130" y="0" on="1"/>
      </contour>
    </TTGlyph>
    <TTGlyph name="V.sups" xMin="188" yMin="316" xMax="424" yMax="644">
      <contour>
        <pt x="247" y="585" on="0"/>
        <pt x="247" y="535" on="1"/>
        <pt x="247" y="453" on="0"/>
        <pt x="254" y="384" on="1"/>
        <pt x="325" y="522" on="0"/>
        <pt x="364" y="644" on="1"/>
        <pt x="424" y="636" on="1"/>
        <pt x="368" y="468" on="0"/>
        <pt x="272" y="316" on="1"/>
        <pt x="217" y="324" on="1"/>
        <pt x="188" y="455" on="0"/>
        <pt x="188" y="582" on="1"/>
        <pt x="188" y="602" on="0"/>
        <pt x="190" y="644" on="1"/>
        <pt x="250" y="636" on="1"/>
      </contour>
    </TTGlyph>
    <TTGlyph name="W" xMin="46" yMin="0" xMax="509" yMax="640">
      <contour>
        <pt x="46" y="57" on="0"/>
        <pt x="46" y="112" on="1"/>
        <pt x="46" y="230" on="0"/>
        <pt x="74" y="476" on="0"/>
        <pt x="105" y="640" on="1"/>
        <pt x="217" y="640" on="1"/>
        <pt x="183" y="465" on="0"/>
        <pt x="148" y="244" on="0"/>
        <pt x="140" y="136" on="1"/>
        <pt x="192" y="277" on="0"/>
        <pt x="227" y="448" on="1"/>
        <pt x="311" y="448" on="1"/>
        <pt x="276" y="280" on="0"/>
        <pt x="271" y="137" on="1"/>
        <pt x="307" y="244" on="0"/>
        <pt x="361" y="464" on="0"/>
        <pt x="397" y="640" on="1"/>
        <pt x="509" y="640" on="1"/>
        <pt x="467" y="437" on="0"/>
        <pt x="380" y="149" on="0"/>
        <pt x="313" y="0" on="1"/>
        <pt x="215" y="0" on="1"/>
        <pt x="209" y="47" on="0"/>
        <pt x="209" y="95" on="1"/>
        <pt x="209" y="112" on="0"/>
        <pt x="211" y="150" on="1"/>
        <pt x="184" y="69" on="0"/>
        <pt x="148" y="0" on="1"/>
        <pt x="49" y="0" on="1"/>
      </contour>
    </TTGlyph>
    <TTGlyph name="W.sups" xMin="147" yMin="320" xMax="403" yMax="640">
      <contour>
        <pt x="275" y="640" on="1"/>
        <pt x="262" y="576" on="1"/>
        <pt x="326" y="576" on="1"/>
        <pt x="339" y="640" on="1"/>
        <pt x="403" y="640" on="1"/>
        <pt x="390" y="576" on="1"/>
        <pt x="378" y="512" on="1"/>
        <pt x="339" y="320" on="1"/>
        <pt x="147" y="320" on="1"/>
        <pt x="186" y="512" on="1"/>
        <pt x="198" y="576" on="1"/>
        <pt x="211" y="640" on="1"/>
      </contour>
    </TTGlyph>
    <TTGlyph name="Wacute" xMin="46" yMin="0" xMax="509" yMax="846">
      <component glyphName="W" x="0" y="0" flags="0x0"/>
      <component glyphName="acutecomb.case" x="0" y="0" flags="0x0"/>
    </TTGlyph>
    <TTGlyph name="Wcircumflex" xMin="46" yMin="0" xMax="509" yMax="842">
      <component glyphName="W" x="0" y="0" flags="0x0"/>
      <component glyphName="uni0302.case" x="0" y="0" flags="0x0"/>
    </TTGlyph>
    <TTGlyph name="Wdieresis" xMin="46" yMin="0" xMax="509" yMax="830">
      <component glyphName="W" x="0" y="0" flags="0x0"/>
      <component glyphName="uni0308.case" x="0" y="0" flags="0x0"/>
    </TTGlyph>
    <TTGlyph name="Wgrave" xMin="46" yMin="0" xMax="509" yMax="832">
      <component glyphName="W" x="0" y="0" flags="0x0"/>
      <component glyphName="gravecomb.case" x="0" y="0" flags="0x0"/>
    </TTGlyph>
    <TTGlyph name="X" xMin="-9" yMin="0" xMax="486" yMax="640">
      <contour>
        <pt x="28" y="99" on="0"/>
        <pt x="105" y="234" on="0"/>
        <pt x="170" y="307" on="1"/>
        <pt x="144" y="352" on="0"/>
        <pt x="121" y="449" on="0"/>
        <pt x="121" y="513" on="1"/>
        <pt x="121" y="563" on="0"/>
        <pt x="129" y="640" on="1"/>
        <pt x="240" y="640" on="1"/>
        <pt x="230" y="548" on="0"/>
        <pt x="230" y="501" on="1"/>
        <pt x="230" y="426" on="0"/>
        <pt x="251" y="377" on="1"/>
        <pt x="290" y="421" on="0"/>
        <pt x="344" y="540" on="0"/>
        <pt x="373" y="640" on="1"/>
        <pt x="486" y="640" on="1"/>
        <pt x="450" y="513" on="0"/>
        <pt x="372" y="361" on="0"/>
        <pt x="307" y="294" on="1"/>
        <pt x="338" y="230" on="0"/>
        <pt x="365" y="113" on="0"/>
        <pt x="365" y="37" on="1"/>
        <pt x="364" y="0" on="1"/>
        <pt x="253" y="0" on="1"/>
        <pt x="253" y="37" on="1"/>
        <pt x="253" y="97" on="0"/>
        <pt x="242" y="181" on="0"/>
        <pt x="227" y="220" on="1"/>
        <pt x="189" y="174" on="0"/>
        <pt x="136" y="76" on="0"/>
        <pt x="107" y="0" on="1"/>
        <pt x="-9" y="0" on="1"/>
      </contour>
    </TTGlyph>
    <TTGlyph name="X.sups" xMin="147" yMin="320" xMax="403" yMax="640">
      <contour>
        <pt x="275" y="640" on="1"/>
        <pt x="262" y="576" on="1"/>
        <pt x="250" y="512" on="1"/>
        <pt x="186" y="512" on="1"/>
        <pt x="198" y="576" on="1"/>
        <pt x="211" y="640" on="1"/>
      </contour>
      <contour>
        <pt x="173" y="448" on="1"/>
        <pt x="237" y="448" on="1"/>
        <pt x="211" y="320" on="1"/>
        <pt x="147" y="320" on="1"/>
      </contour>
      <contour>
        <pt x="250" y="512" on="1"/>
        <pt x="314" y="512" on="1"/>
        <pt x="301" y="448" on="1"/>
        <pt x="237" y="448" on="1"/>
      </contour>
      <contour>
        <pt x="301" y="448" on="1"/>
        <pt x="365" y="448" on="1"/>
        <pt x="339" y="320" on="1"/>
        <pt x="275" y="320" on="1"/>
      </contour>
      <contour>
        <pt x="326" y="576" on="1"/>
        <pt x="339" y="640" on="1"/>
        <pt x="403" y="640" on="1"/>
        <pt x="390" y="576" on="1"/>
        <pt x="378" y="512" on="1"/>
        <pt x="314" y="512" on="1"/>
      </contour>
    </TTGlyph>
    <TTGlyph name="Xi" xMin="5" yMin="0" xMax="476" yMax="640">
      <contour>
        <pt x="476" y="640" on="1"/>
        <pt x="457" y="544" on="1"/>
        <pt x="119" y="544" on="1"/>
        <pt x="138" y="640" on="1"/>
      </contour>
      <contour>
        <pt x="24" y="96" on="1"/>
        <pt x="372" y="96" on="1"/>
        <pt x="353" y="0" on="1"/>
        <pt x="5" y="0" on="1"/>
      </contour>
      <contour>
        <pt x="126" y="336" on="1"/>
        <pt x="366" y="336" on="1"/>
        <pt x="347" y="240" on="1"/>
        <pt x="107" y="240" on="1"/>
      </contour>
    </TTGlyph>
    <TTGlyph name="Y" xMin="104" yMin="0" xMax="506" yMax="640">
      <contour>
        <pt x="164" y="202" on="1"/>
        <pt x="104" y="327" on="0"/>
        <pt x="104" y="510" on="1"/>
        <pt x="104" y="571" on="0"/>
        <pt x="110" y="640" on="1"/>
        <pt x="221" y="640" on="1"/>
        <pt x="206" y="537" on="0"/>
        <pt x="206" y="465" on="1"/>
        <pt x="206" y="370" on="0"/>
        <pt x="232" y="278" on="1"/>
        <pt x="293" y="366" on="0"/>
        <pt x="364" y="524" on="0"/>
        <pt x="393" y="640" on="1"/>
        <pt x="506" y="640" on="1"/>
        <pt x="461" y="496" on="0"/>
        <pt x="351" y="284" on="0"/>
        <pt x="276" y="202" on="1"/>
        <pt x="254" y="203" on="1"/>
        <pt x="255" y="202" on="1"/>
        <pt x="276" y="202" on="1"/>
        <pt x="235" y="0" on="1"/>
        <pt x="123" y="0" on="1"/>
      </contour>
    </TTGlyph>
    <TTGlyph name="Y.sups" xMin="147" yMin="320" xMax="403" yMax="640">
      <contour>
        <pt x="275" y="640" on="1"/>
        <pt x="262" y="576" on="1"/>
        <pt x="250" y="512" on="1"/>
        <pt x="314" y="512" on="1"/>
        <pt x="326" y="576" on="1"/>
        <pt x="339" y="640" on="1"/>
        <pt x="403" y="640" on="1"/>
        <pt x="390" y="576" on="1"/>
        <pt x="378" y="512" on="1"/>
        <pt x="352" y="384" on="1"/>
        <pt x="288" y="384" on="1"/>
        <pt x="301" y="448" on="1"/>
        <pt x="173" y="448" on="1"/>
        <pt x="186" y="512" on="1"/>
        <pt x="198" y="576" on="1"/>
        <pt x="211" y="640" on="1"/>
      </contour>
      <contour>
        <pt x="160" y="384" on="1"/>
        <pt x="288" y="384" on="1"/>
        <pt x="275" y="320" on="1"/>
        <pt x="147" y="320" on="1"/>
      </contour>
    </TTGlyph>
    <TTGlyph name="Yacute" xMin="104" yMin="0" xMax="506" yMax="846">
      <component glyphName="Y" x="0" y="0" flags="0x0"/>
      <component glyphName="acutecomb.case" x="0" y="0" flags="0x0"/>
    </TTGlyph>
    <TTGlyph name="Ycircumflex" xMin="104" yMin="0" xMax="506" yMax="842">
      <component glyphName="Y" x="0" y="0" flags="0x0"/>
      <component glyphName="uni0302.case" x="0" y="0" flags="0x0"/>
    </TTGlyph>
    <TTGlyph name="Ydieresis" xMin="104" yMin="0" xMax="506" yMax="830">
      <component glyphName="Y" x="0" y="0" flags="0x0"/>
      <component glyphName="uni0308.case" x="0" y="0" flags="0x0"/>
    </TTGlyph>
    <TTGlyph name="Ygrave" xMin="104" yMin="0" xMax="506" yMax="832">
      <component glyphName="Y" x="0" y="0" flags="0x0"/>
      <component glyphName="gravecomb.case" x="0" y="0" flags="0x0"/>
    </TTGlyph>
    <TTGlyph name="Z" xMin="0" yMin="0" xMax="481" yMax="640">
      <contour>
        <pt x="12" y="60" on="1"/>
        <pt x="11" y="60" on="1"/>
        <pt x="337" y="560" on="1"/>
        <pt x="124" y="560" on="1"/>
        <pt x="140" y="640" on="1"/>
        <pt x="481" y="640" on="1"/>
        <pt x="470" y="580" on="1"/>
        <pt x="144" y="80" on="1"/>
        <pt x="369" y="80" on="1"/>
        <pt x="353" y="0" on="1"/>
        <pt x="0" y="0" on="1"/>
      </contour>
    </TTGlyph>
    <TTGlyph name="Z.sups" xMin="147" yMin="320" xMax="403" yMax="640">
      <contour>
        <pt x="403" y="640" on="1"/>
        <pt x="390" y="576" on="1"/>
        <pt x="378" y="512" on="1"/>
        <pt x="314" y="512" on="1"/>
        <pt x="326" y="576" on="1"/>
        <pt x="198" y="576" on="1"/>
        <pt x="211" y="640" on="1"/>
      </contour>
      <contour>
        <pt x="173" y="448" on="1"/>
        <pt x="237" y="448" on="1"/>
        <pt x="224" y="384" on="1"/>
        <pt x="352" y="384" on="1"/>
        <pt x="339" y="320" on="1"/>
        <pt x="147" y="320" on="1"/>
      </contour>
      <contour>
        <pt x="250" y="512" on="1"/>
        <pt x="314" y="512" on="1"/>
        <pt x="301" y="448" on="1"/>
        <pt x="237" y="448" on="1"/>
      </contour>
    </TTGlyph>
    <TTGlyph name="Zacute" xMin="0" yMin="0" xMax="500" yMax="846">
      <component glyphName="Z" x="0" y="0" flags="0x0"/>
      <component glyphName="acutecomb.case" x="0" y="0" flags="0x0"/>
    </TTGlyph>
    <TTGlyph name="Zcaron" xMin="0" yMin="0" xMax="508" yMax="846">
      <component glyphName="Z" x="0" y="0" flags="0x0"/>
      <component glyphName="uni030C.case" x="0" y="0" flags="0x0"/>
    </TTGlyph>
    <TTGlyph name="Zdotaccent" xMin="0" yMin="0" xMax="481" yMax="850">
      <component glyphName="Z" x="0" y="0" flags="0x0"/>
      <component glyphName="uni0307" x="38" y="192" flags="0x4"/>
    </TTGlyph>
    <TTGlyph name="Zeta" xMin="0" yMin="0" xMax="481" yMax="640">
      <component glyphName="Z" x="0" y="0" flags="0x0"/>
    </TTGlyph>
    <TTGlyph name="_part.slash.comp" xMin="69" yMin="148" xMax="397" yMax="390">
      <contour>
        <pt x="370" y="390" on="1"/>
        <pt x="397" y="338" on="1"/>
        <pt x="96" y="148" on="1"/>
        <pt x="69" y="200" on="1"/>
      </contour>
    </TTGlyph>
    <TTGlyph name="a" xMin="8" yMin="-4" xMax="387" yMax="454">
      <contour>
        <pt x="230" y="26" on="1"/>
        <pt x="172" y="-4" on="0"/>
        <pt x="117" y="-4" on="1"/>
        <pt x="66" y="-4" on="0"/>
        <pt x="8" y="47" on="0"/>
        <pt x="8" y="96" on="1"/>
        <pt x="8" y="115" on="0"/>
        <pt x="12" y="132" on="1"/>
        <pt x="26" y="200" on="0"/>
        <pt x="145" y="268" on="0"/>
        <pt x="266" y="275" on="1"/>
        <pt x="269" y="289" on="1"/>
        <pt x="273" y="308" on="0"/>
        <pt x="273" y="325" on="1"/>
        <pt x="273" y="348" on="0"/>
        <pt x="248" y="366" on="0"/>
        <pt x="217" y="366" on="1"/>
        <pt x="167" y="366" on="0"/>
        <pt x="93" y="343" on="1"/>
        <pt x="85" y="425" on="1"/>
        <pt x="168" y="454" on="0"/>
        <pt x="246" y="454" on="1"/>
        <pt x="387" y="454" on="0"/>
        <pt x="387" y="342" on="1"/>
        <pt x="387" y="323" on="0"/>
        <pt x="382" y="295" on="1"/>
        <pt x="336" y="64" on="1"/>
        <pt x="325" y="0" on="1"/>
        <pt x="231" y="0" on="1"/>
      </contour>
      <contour>
        <pt x="124" y="114" on="0"/>
        <pt x="124" y="105" on="1"/>
        <pt x="124" y="76" on="0"/>
        <pt x="157" y="76" on="1"/>
        <pt x="187" y="76" on="0"/>
        <pt x="232" y="102" on="1"/>
        <pt x="252" y="203" on="1"/>
        <pt x="192" y="196" on="0"/>
        <pt x="132" y="153" on="0"/>
        <pt x="125" y="119" on="1"/>
      </contour>
    </TTGlyph>
    <TTGlyph name="aacute" xMin="8" yMin="-4" xMax="448" yMax="654">
      <component glyphName="a" x="0" y="0" flags="0x0"/>
      <component glyphName="acutecomb" x="-14" y="0" flags="0x0"/>
    </TTGlyph>
    <TTGlyph name="abreve" xMin="8" yMin="-4" xMax="434" yMax="654">
      <component glyphName="a" x="0" y="0" flags="0x0"/>
      <component glyphName="uni0306" x="-14" y="0" flags="0x0"/>
    </TTGlyph>
    <TTGlyph name="acircumflex" xMin="8" yMin="-4" xMax="423" yMax="650">
      <component glyphName="a" x="0" y="0" flags="0x0"/>
      <component glyphName="uni0302" x="-14" y="0" flags="0x0"/>
    </TTGlyph>
    <TTGlyph name="acute" xMin="160" yMin="384" xMax="416" yMax="640">
      <contour>
        <pt x="160" y="384" on="1"/>
        <pt x="277" y="640" on="1"/>
        <pt x="416" y="640" on="1"/>
        <pt x="274" y="384" on="1"/>
      </contour>
    </TTGlyph>
    <TTGlyph name="acutecomb" xMin="235" yMin="508" xMax="462" yMax="654">
      <contour>
        <pt x="295" y="654" on="1"/>
        <pt x="462" y="654" on="1"/>
        <pt x="327" y="508" on="1"/>
        <pt x="235" y="508" on="1"/>
      </contour>
    </TTGlyph>
    <TTGlyph name="acutecomb.case" xMin="273" yMin="700" xMax="500" yMax="846">
      <component glyphName="acutecomb" x="38" y="192" flags="0x4"/>
    </TTGlyph>
    <TTGlyph name="adieresis" xMin="8" yMin="-4" xMax="428" yMax="658">
      <component glyphName="a" x="0" y="0" flags="0x0"/>
      <component glyphName="uni0308" x="-14" y="0" flags="0x0"/>
    </TTGlyph>
    <TTGlyph name="ae" xMin="30" yMin="-11" xMax="658" yMax="459">
      <contour>
        <pt x="361" y="-11" on="0"/>
        <pt x="324" y="49" on="1"/>
        <pt x="276" y="23" on="0"/>
        <pt x="190" y="-8" on="0"/>
        <pt x="146" y="-8" on="1"/>
        <pt x="94" y="-8" on="0"/>
        <pt x="30" y="44" on="0"/>
        <pt x="30" y="91" on="1"/>
        <pt x="30" y="105" on="0"/>
        <pt x="33" y="121" on="1"/>
        <pt x="47" y="190" on="0"/>
        <pt x="181" y="260" on="0"/>
        <pt x="320" y="264" on="1"/>
        <pt x="325" y="288" on="1"/>
        <pt x="330" y="311" on="0"/>
        <pt x="330" y="334" on="1"/>
        <pt x="330" y="365" on="0"/>
        <pt x="297" y="390" on="0"/>
        <pt x="258" y="390" on="1"/>
        <pt x="207" y="390" on="0"/>
        <pt x="129" y="362" on="1"/>
        <pt x="114" y="422" on="1"/>
        <pt x="193" y="455" on="0"/>
        <pt x="261" y="455" on="1"/>
        <pt x="363" y="455" on="0"/>
        <pt x="386" y="390" on="1"/>
        <pt x="441" y="459" on="0"/>
        <pt x="526" y="459" on="1"/>
        <pt x="590" y="459" on="0"/>
        <pt x="658" y="381" on="0"/>
        <pt x="658" y="310" on="1"/>
        <pt x="658" y="256" on="0"/>
        <pt x="641" y="198" on="1"/>
        <pt x="381" y="201" on="1"/>
        <pt x="374" y="165" on="0"/>
        <pt x="374" y="134" on="1"/>
        <pt x="374" y="90" on="0"/>
        <pt x="415" y="53" on="0"/>
        <pt x="462" y="53" on="1"/>
        <pt x="510" y="53" on="0"/>
        <pt x="584" y="77" on="1"/>
        <pt x="591" y="17" on="1"/>
        <pt x="522" y="-11" on="0"/>
        <pt x="455" y="-11" on="1"/>
      </contour>
      <contour>
        <pt x="106" y="101" on="0"/>
        <pt x="106" y="96" on="1"/>
        <pt x="106" y="56" on="0"/>
        <pt x="156" y="56" on="1"/>
        <pt x="215" y="56" on="0"/>
        <pt x="304" y="107" on="1"/>
        <pt x="302" y="119" on="0"/>
        <pt x="302" y="145" on="1"/>
        <pt x="302" y="176" on="0"/>
        <pt x="306" y="201" on="1"/>
        <pt x="208" y="198" on="0"/>
        <pt x="116" y="154" on="0"/>
        <pt x="108" y="113" on="1"/>
      </contour>
      <contour>
        <pt x="579" y="263" on="1"/>
        <pt x="585" y="295" on="0"/>
        <pt x="585" y="319" on="1"/>
        <pt x="585" y="358" on="0"/>
        <pt x="552" y="395" on="0"/>
        <pt x="518" y="395" on="1"/>
        <pt x="473" y="395" on="0"/>
        <pt x="414" y="333" on="0"/>
        <pt x="395" y="263" on="1"/>
      </contour>
    </TTGlyph>
    <TTGlyph name="aeacute" xMin="30" yMin="-11" xMax="658" yMax="654">
      <component glyphName="ae" x="0" y="0" flags="0x0"/>
      <component glyphName="acutecomb" x="128" y="0" flags="0x0"/>
    </TTGlyph>
    <TTGlyph name="agrave" xMin="8" yMin="-4" xMax="387" yMax="640">
      <component glyphName="a" x="0" y="0" flags="0x0"/>
      <component glyphName="gravecomb" x="-14" y="0" flags="0x0"/>
    </TTGlyph>
    <TTGlyph name="alpha" xMin="41" yMin="-8" xMax="445" yMax="456">
      <contour>
        <pt x="115" y="155" on="0"/>
        <pt x="115" y="118" on="1"/>
        <pt x="115" y="84" on="0"/>
        <pt x="136" y="56" on="0"/>
        <pt x="159" y="56" on="1"/>
        <pt x="198" y="56" on="0"/>
        <pt x="282" y="146" on="0"/>
        <pt x="314" y="230" on="1"/>
        <pt x="316" y="309" on="0"/>
        <pt x="273" y="392" on="0"/>
        <pt x="239" y="392" on="1"/>
        <pt x="200" y="392" on="0"/>
        <pt x="147" y="314" on="0"/>
        <pt x="128" y="220" on="1"/>
      </contour>
      <contour>
        <pt x="97" y="456" on="0"/>
        <pt x="234" y="456" on="1"/>
        <pt x="274" y="456" on="0"/>
        <pt x="333" y="407" on="0"/>
        <pt x="351" y="358" on="1"/>
        <pt x="373" y="451" on="1"/>
        <pt x="445" y="446" on="1"/>
        <pt x="419" y="353" on="1"/>
        <pt x="399" y="281" on="0"/>
        <pt x="373" y="217" on="1"/>
        <pt x="373" y="151" on="0"/>
        <pt x="365" y="87" on="1"/>
        <pt x="355" y="2" on="1"/>
        <pt x="283" y="-3" on="1"/>
        <pt x="296" y="79" on="1"/>
        <pt x="228" y="-8" on="0"/>
        <pt x="154" y="-8" on="1"/>
        <pt x="95" y="-8" on="0"/>
        <pt x="41" y="67" on="0"/>
        <pt x="41" y="133" on="1"/>
        <pt x="41" y="175" on="0"/>
        <pt x="52" y="228" on="1"/>
      </contour>
    </TTGlyph>
    <TTGlyph name="alphatonos" xMin="41" yMin="-8" xMax="445" yMax="704">
      <component glyphName="alpha" x="0" y="0" flags="0x0"/>
      <component glyphName="tonos" x="0" y="0" flags="0x0"/>
    </TTGlyph>
    <TTGlyph name="amacron" xMin="8" yMin="-4" xMax="423" yMax="640">
      <component glyphName="a" x="0" y="0" flags="0x0"/>
      <component glyphName="uni0304" x="-14" y="0" flags="0x0"/>
    </TTGlyph>
    <TTGlyph name="ampersand" xMin="8" yMin="-10" xMax="459" yMax="542">
      <contour>
        <pt x="323" y="462" on="0"/>
        <pt x="288" y="462" on="1"/>
        <pt x="242" y="462" on="0"/>
        <pt x="191" y="418" on="0"/>
        <pt x="184" y="386" on="1"/>
        <pt x="183" y="381" on="0"/>
        <pt x="183" y="372" on="1"/>
        <pt x="183" y="328" on="0"/>
        <pt x="267" y="328" on="1"/>
        <pt x="459" y="328" on="1"/>
        <pt x="443" y="248" on="1"/>
        <pt x="383" y="248" on="1"/>
        <pt x="340" y="17" on="1"/>
        <pt x="297" y="5" on="0"/>
        <pt x="203" y="-10" on="0"/>
        <pt x="168" y="-10" on="1"/>
        <pt x="84" y="-10" on="0"/>
        <pt x="8" y="59" on="0"/>
        <pt x="8" y="117" on="1"/>
        <pt x="8" y="139" on="0"/>
        <pt x="12" y="158" on="1"/>
        <pt x="20" y="195" on="0"/>
        <pt x="71" y="265" on="0"/>
        <pt x="120" y="290" on="1"/>
        <pt x="74" y="319" on="0"/>
        <pt x="74" y="376" on="1"/>
        <pt x="74" y="391" on="0"/>
        <pt x="77" y="407" on="1"/>
        <pt x="89" y="468" on="0"/>
        <pt x="190" y="542" on="0"/>
        <pt x="274" y="542" on="1"/>
        <pt x="330" y="542" on="0"/>
        <pt x="390" y="525" on="1"/>
        <pt x="366" y="453" on="1"/>
      </contour>
      <contour>
        <pt x="119" y="130" on="0"/>
        <pt x="119" y="116" on="1"/>
        <pt x="119" y="70" on="0"/>
        <pt x="172" y="70" on="1"/>
        <pt x="204" y="70" on="0"/>
        <pt x="237" y="76" on="1"/>
        <pt x="271" y="248" on="1"/>
        <pt x="268" y="248" on="1"/>
        <pt x="200" y="248" on="0"/>
        <pt x="131" y="188" on="0"/>
        <pt x="122" y="143" on="1"/>
      </contour>
    </TTGlyph>
    <TTGlyph name="angle" xMin="32" yMin="64" xMax="371" yMax="522">
      <contour>
        <pt x="32" y="64" on="1"/>
        <pt x="44" y="128" on="1"/>
        <pt x="316" y="522" on="1"/>
        <pt x="371" y="494" on="1"/>
        <pt x="118" y="128" on="1"/>
        <pt x="365" y="128" on="1"/>
        <pt x="352" y="64" on="1"/>
      </contour>
    </TTGlyph>
    <TTGlyph name="anoteleia" xMin="46" yMin="192" xMax="214" yMax="360">
      <component glyphName="period" x="32" y="202" flags="0x4"/>
    </TTGlyph>
    <TTGlyph name="aogonek" xMin="8" yMin="-197" xMax="387" yMax="454">
      <component glyphName="a" x="0" y="0" flags="0x0"/>
      <component glyphName="uni0328" x="-20" y="0" flags="0x0"/>
    </TTGlyph>
    <TTGlyph name="approxequal" xMin="32" yMin="64" xMax="429" yMax="448">
      <contour>
        <pt x="122" y="192" on="1"/>
        <pt x="96" y="64" on="1"/>
        <pt x="32" y="64" on="1"/>
        <pt x="58" y="192" on="1"/>
      </contour>
      <contour>
        <pt x="96" y="384" on="1"/>
        <pt x="160" y="384" on="1"/>
        <pt x="134" y="256" on="1"/>
        <pt x="70" y="256" on="1"/>
      </contour>
      <contour>
        <pt x="134" y="256" on="1"/>
        <pt x="198" y="256" on="1"/>
        <pt x="186" y="192" on="1"/>
        <pt x="122" y="192" on="1"/>
      </contour>
      <contour>
        <pt x="173" y="448" on="1"/>
        <pt x="237" y="448" on="1"/>
        <pt x="224" y="384" on="1"/>
        <pt x="160" y="384" on="1"/>
      </contour>
      <contour>
        <pt x="186" y="192" on="1"/>
        <pt x="250" y="192" on="1"/>
        <pt x="237" y="128" on="1"/>
        <pt x="173" y="128" on="1"/>
      </contour>
      <contour>
        <pt x="224" y="384" on="1"/>
        <pt x="288" y="384" on="1"/>
        <pt x="275" y="320" on="1"/>
        <pt x="211" y="320" on="1"/>
      </contour>
      <contour>
        <pt x="237" y="128" on="1"/>
        <pt x="301" y="128" on="1"/>
        <pt x="288" y="64" on="1"/>
        <pt x="224" y="64" on="1"/>
      </contour>
      <contour>
        <pt x="275" y="320" on="1"/>
        <pt x="339" y="320" on="1"/>
        <pt x="326" y="256" on="1"/>
        <pt x="262" y="256" on="1"/>
      </contour>
      <contour>
        <pt x="314" y="192" on="1"/>
        <pt x="326" y="256" on="1"/>
        <pt x="390" y="256" on="1"/>
        <pt x="378" y="192" on="1"/>
        <pt x="365" y="128" on="1"/>
        <pt x="301" y="128" on="1"/>
      </contour>
      <contour>
        <pt x="365" y="448" on="1"/>
        <pt x="429" y="448" on="1"/>
        <pt x="403" y="320" on="1"/>
        <pt x="339" y="320" on="1"/>
      </contour>
    </TTGlyph>
    <TTGlyph name="aring" xMin="8" yMin="-4" xMax="415" yMax="707">
      <component glyphName="a" x="0" y="0" flags="0x0"/>
      <component glyphName="uni030A" x="-14" y="0" flags="0x0"/>
    </TTGlyph>
    <TTGlyph name="aringacute" xMin="8" yMin="-4" xMax="493" yMax="878">
      <component glyphName="a" x="0" y="0" flags="0x0"/>
      <component glyphName="uni030A" x="-14" y="0" flags="0x0"/>
      <component glyphName="acutecomb" x="31" y="224" flags="0x4"/>
    </TTGlyph>
    <TTGlyph name="arrowboth" xMin="-13" yMin="54" xMax="461" yMax="394">
      <contour>
        <pt x="182" y="98" on="1"/>
        <pt x="137" y="54" on="1"/>
        <pt x="-13" y="202" on="1"/>
        <pt x="-7" y="246" on="1"/>
        <pt x="201" y="394" on="1"/>
        <pt x="232" y="350" on="1"/>
        <pt x="105" y="256" on="1"/>
        <pt x="357" y="256" on="1"/>
        <pt x="266" y="350" on="1"/>
        <pt x="311" y="394" on="1"/>
        <pt x="461" y="246" on="1"/>
        <pt x="455" y="202" on="1"/>
        <pt x="247" y="54" on="1"/>
        <pt x="216" y="98" on="1"/>
        <pt x="343" y="192" on="1"/>
        <pt x="91" y="192" on="1"/>
      </contour>
    </TTGlyph>
    <TTGlyph name="arrowdown" xMin="56" yMin="54" xMax="396" yMax="512">
      <contour>
        <pt x="314" y="512" on="1"/>
        <pt x="242" y="162" on="1"/>
        <pt x="357" y="271" on="1"/>
        <pt x="396" y="233" on="1"/>
        <pt x="213" y="54" on="1"/>
        <pt x="169" y="54" on="1"/>
        <pt x="56" y="233" on="1"/>
        <pt x="105" y="271" on="1"/>
        <pt x="178" y="162" on="1"/>
        <pt x="250" y="512" on="1"/>
      </contour>
    </TTGlyph>
    <TTGlyph name="arrowleft" xMin="-13" yMin="54" xMax="454" yMax="394">
      <contour>
        <pt x="182" y="98" on="1"/>
        <pt x="137" y="54" on="1"/>
        <pt x="-13" y="202" on="1"/>
        <pt x="-7" y="246" on="1"/>
        <pt x="201" y="394" on="1"/>
        <pt x="232" y="350" on="1"/>
        <pt x="105" y="256" on="1"/>
        <pt x="454" y="256" on="1"/>
        <pt x="442" y="192" on="1"/>
        <pt x="91" y="192" on="1"/>
      </contour>
    </TTGlyph>
    <TTGlyph name="arrowright" xMin="-6" yMin="54" xMax="461" yMax="394">
      <contour>
        <pt x="6" y="256" on="1"/>
        <pt x="357" y="256" on="1"/>
        <pt x="266" y="350" on="1"/>
        <pt x="311" y="394" on="1"/>
        <pt x="461" y="246" on="1"/>
        <pt x="455" y="202" on="1"/>
        <pt x="247" y="54" on="1"/>
        <pt x="216" y="98" on="1"/>
        <pt x="343" y="192" on="1"/>
        <pt x="-6" y="192" on="1"/>
      </contour>
    </TTGlyph>
    <TTGlyph name="arrowup" xMin="78" yMin="64" xMax="418" yMax="522">
      <contour>
        <pt x="116" y="305" on="1"/>
        <pt x="78" y="343" on="1"/>
        <pt x="260" y="522" on="1"/>
        <pt x="304" y="522" on="1"/>
        <pt x="418" y="343" on="1"/>
        <pt x="368" y="305" on="1"/>
        <pt x="295" y="414" on="1"/>
        <pt x="224" y="64" on="1"/>
        <pt x="160" y="64" on="1"/>
        <pt x="231" y="414" on="1"/>
      </contour>
    </TTGlyph>
    <TTGlyph name="arrowupdn" xMin="56" yMin="54" xMax="418" yMax="522">
      <contour>
        <pt x="116" y="305" on="1"/>
        <pt x="78" y="343" on="1"/>
        <pt x="260" y="522" on="1"/>
        <pt x="304" y="522" on="1"/>
        <pt x="418" y="343" on="1"/>
        <pt x="368" y="305" on="1"/>
        <pt x="295" y="414" on="1"/>
        <pt x="242" y="162" on="1"/>
        <pt x="357" y="271" on="1"/>
        <pt x="396" y="233" on="1"/>
        <pt x="213" y="54" on="1"/>
        <pt x="169" y="54" on="1"/>
        <pt x="56" y="233" on="1"/>
        <pt x="105" y="271" on="1"/>
        <pt x="178" y="162" on="1"/>
        <pt x="231" y="414" on="1"/>
      </contour>
    </TTGlyph>
    <TTGlyph name="arrowupdnbse" xMin="56" yMin="0" xMax="418" yMax="522">
      <contour>
        <pt x="163" y="64" on="1"/>
        <pt x="56" y="233" on="1"/>
        <pt x="105" y="271" on="1"/>
        <pt x="178" y="162" on="1"/>
        <pt x="231" y="414" on="1"/>
        <pt x="116" y="305" on="1"/>
        <pt x="78" y="343" on="1"/>
        <pt x="260" y="522" on="1"/>
        <pt x="304" y="522" on="1"/>
        <pt x="418" y="343" on="1"/>
        <pt x="368" y="305" on="1"/>
        <pt x="295" y="414" on="1"/>
        <pt x="242" y="162" on="1"/>
        <pt x="357" y="271" on="1"/>
        <pt x="396" y="233" on="1"/>
        <pt x="223" y="64" on="1"/>
        <pt x="384" y="64" on="1"/>
        <pt x="384" y="0" on="1"/>
        <pt x="64" y="0" on="1"/>
        <pt x="64" y="64" on="1"/>
      </contour>
    </TTGlyph>
    <TTGlyph name="asciicircum" xMin="31" yMin="192" xMax="403" yMax="566">
      <contour>
        <pt x="344" y="566" on="1"/>
        <pt x="403" y="192" on="1"/>
        <pt x="288" y="192" on="1"/>
        <pt x="265" y="426" on="1"/>
        <pt x="148" y="192" on="1"/>
        <pt x="31" y="192" on="1"/>
        <pt x="238" y="566" on="1"/>
      </contour>
    </TTGlyph>
    <TTGlyph name="asciitilde" xMin="-10" yMin="188" xMax="483" yMax="388">
      <contour>
        <pt x="263" y="188" on="0"/>
        <pt x="215" y="223" on="0"/>
        <pt x="197" y="254" on="1"/>
        <pt x="185" y="273" on="0"/>
        <pt x="167" y="290" on="0"/>
        <pt x="150" y="290" on="1"/>
        <pt x="118" y="290" on="0"/>
        <pt x="81" y="244" on="0"/>
        <pt x="67" y="193" on="1"/>
        <pt x="-10" y="206" on="1"/>
        <pt x="12" y="299" on="0"/>
        <pt x="88" y="388" on="0"/>
        <pt x="154" y="388" on="1"/>
        <pt x="192" y="388" on="0"/>
        <pt x="240" y="369" on="0"/>
        <pt x="265" y="343" on="0"/>
        <pt x="277" y="322" on="1"/>
        <pt x="289" y="303" on="0"/>
        <pt x="307" y="286" on="0"/>
        <pt x="324" y="286" on="1"/>
        <pt x="355" y="286" on="0"/>
        <pt x="393" y="333" on="0"/>
        <pt x="407" y="383" on="1"/>
        <pt x="483" y="371" on="1"/>
        <pt x="461" y="277" on="0"/>
        <pt x="385" y="188" on="0"/>
        <pt x="317" y="188" on="1"/>
      </contour>
    </TTGlyph>
    <TTGlyph name="asterisk" xMin="10" yMin="64" xMax="464" yMax="512">
      <contour>
        <pt x="302" y="287" on="1"/>
        <pt x="424" y="187" on="1"/>
        <pt x="337" y="101" on="1"/>
        <pt x="263" y="190" on="1"/>
        <pt x="248" y="64" on="1"/>
        <pt x="136" y="64" on="1"/>
        <pt x="171" y="188" on="1"/>
        <pt x="67" y="102" on="1"/>
        <pt x="10" y="187" on="1"/>
        <pt x="172" y="289" on="1"/>
        <pt x="50" y="389" on="1"/>
        <pt x="137" y="475" on="1"/>
        <pt x="211" y="386" on="1"/>
        <pt x="226" y="512" on="1"/>
        <pt x="338" y="512" on="1"/>
        <pt x="303" y="388" on="1"/>
        <pt x="407" y="474" on="1"/>
        <pt x="464" y="389" on="1"/>
      </contour>
    </TTGlyph>
    <TTGlyph name="at" xMin="11" yMin="-128" xMax="445" yMax="586">
      <contour>
        <pt x="343" y="56" on="0"/>
        <pt x="288" y="56" on="1"/>
        <pt x="223" y="56" on="0"/>
        <pt x="153" y="119" on="0"/>
        <pt x="153" y="178" on="1"/>
        <pt x="153" y="206" on="0"/>
        <pt x="158" y="227" on="1"/>
        <pt x="171" y="294" on="0"/>
        <pt x="254" y="378" on="0"/>
        <pt x="330" y="394" on="1"/>
        <pt x="337" y="434" on="0"/>
        <pt x="337" y="453" on="1"/>
        <pt x="337" y="481" on="0"/>
        <pt x="316" y="507" on="0"/>
        <pt x="294" y="507" on="1"/>
        <pt x="258" y="507" on="0"/>
        <pt x="204" y="448" on="0"/>
        <pt x="159" y="321" on="0"/>
        <pt x="138" y="214" on="1"/>
        <pt x="117" y="109" on="0"/>
        <pt x="117" y="52" on="1"/>
        <pt x="117" y="-3" on="0"/>
        <pt x="157" y="-48" on="0"/>
        <pt x="203" y="-48" on="1"/>
        <pt x="242" y="-48" on="0"/>
        <pt x="291" y="-37" on="1"/>
        <pt x="303" y="-105" on="1"/>
        <pt x="275" y="-116" on="0"/>
        <pt x="210" y="-128" on="0"/>
        <pt x="180" y="-128" on="1"/>
        <pt x="94" y="-128" on="0"/>
        <pt x="11" y="-33" on="0"/>
        <pt x="11" y="67" on="1"/>
        <pt x="11" y="138" on="0"/>
        <pt x="30" y="232" on="1"/>
        <pt x="66" y="415" on="0"/>
        <pt x="191" y="586" on="0"/>
        <pt x="299" y="586" on="1"/>
        <pt x="372" y="586" on="0"/>
        <pt x="445" y="508" on="0"/>
        <pt x="445" y="440" on="1"/>
        <pt x="445" y="407" on="0"/>
        <pt x="438" y="375" on="1"/>
        <pt x="379" y="65" on="1"/>
      </contour>
      <contour>
        <pt x="262" y="180" on="0"/>
        <pt x="262" y="162" on="1"/>
        <pt x="262" y="139" on="0"/>
        <pt x="276" y="138" on="1"/>
        <pt x="310" y="297" on="1"/>
        <pt x="294" y="285" on="0"/>
        <pt x="274" y="243" on="0"/>
        <pt x="268" y="211" on="1"/>
      </contour>
    </TTGlyph>
    <TTGlyph name="atilde" xMin="8" yMin="-4" xMax="455" yMax="651">
      <component glyphName="a" x="0" y="0" flags="0x0"/>
      <component glyphName="tildecomb" x="-14" y="0" flags="0x0"/>
    </TTGlyph>
    <TTGlyph name="b" xMin="3" yMin="-8" xMax="415" yMax="640">
      <contour>
        <pt x="140" y="-8" on="0"/>
        <pt x="105" y="34" on="1"/>
        <pt x="92" y="0" on="1"/>
        <pt x="3" y="0" on="1"/>
        <pt x="18" y="65" on="1"/>
        <pt x="133" y="640" on="1"/>
        <pt x="245" y="640" on="1"/>
        <pt x="203" y="428" on="1"/>
        <pt x="243" y="456" on="0"/>
        <pt x="291" y="456" on="1"/>
        <pt x="347" y="456" on="0"/>
        <pt x="415" y="383" on="0"/>
        <pt x="415" y="306" on="1"/>
        <pt x="415" y="265" on="0"/>
        <pt x="405" y="215" on="1"/>
        <pt x="361" y="-8" on="0"/>
        <pt x="204" y="-8" on="1"/>
      </contour>
      <contour>
        <pt x="158" y="72" on="0"/>
        <pt x="190" y="72" on="1"/>
        <pt x="225" y="72" on="0"/>
        <pt x="273" y="145" on="0"/>
        <pt x="291" y="233" on="1"/>
        <pt x="302" y="291" on="0"/>
        <pt x="302" y="320" on="1"/>
        <pt x="302" y="350" on="0"/>
        <pt x="283" y="374" on="0"/>
        <pt x="263" y="374" on="1"/>
        <pt x="223" y="374" on="0"/>
        <pt x="184" y="332" on="1"/>
        <pt x="138" y="104" on="1"/>
      </contour>
    </TTGlyph>
    <TTGlyph name="backslash" xMin="116" yMin="-69" xMax="243" yMax="710">
      <contour>
        <pt x="116" y="-69" on="1"/>
        <pt x="130" y="698" on="1"/>
        <pt x="243" y="710" on="1"/>
        <pt x="228" y="-57" on="1"/>
      </contour>
    </TTGlyph>
    <TTGlyph name="bar" xMin="113" yMin="-64" xMax="374" yMax="704">
      <contour>
        <pt x="113" y="-64" on="1"/>
        <pt x="266" y="704" on="1"/>
        <pt x="374" y="704" on="1"/>
        <pt x="221" y="-64" on="1"/>
      </contour>
    </TTGlyph>
    <TTGlyph name="beta" xMin="-19" yMin="-192" xMax="454" yMax="640">
      <contour>
        <pt x="70" y="256" on="1"/>
        <pt x="122" y="512" on="1"/>
        <pt x="134" y="576" on="1"/>
        <pt x="198" y="576" on="1"/>
        <pt x="186" y="512" on="1"/>
        <pt x="134" y="256" on="1"/>
        <pt x="122" y="192" on="1"/>
        <pt x="109" y="128" on="1"/>
        <pt x="173" y="128" on="1"/>
        <pt x="160" y="64" on="1"/>
        <pt x="96" y="64" on="1"/>
        <pt x="70" y="-64" on="1"/>
        <pt x="58" y="-128" on="1"/>
        <pt x="45" y="-192" on="1"/>
        <pt x="-19" y="-192" on="1"/>
        <pt x="-6" y="-128" on="1"/>
        <pt x="6" y="-64" on="1"/>
        <pt x="58" y="192" on="1"/>
      </contour>
      <contour>
        <pt x="160" y="64" on="1"/>
        <pt x="288" y="64" on="1"/>
        <pt x="275" y="0" on="1"/>
        <pt x="147" y="0" on="1"/>
      </contour>
      <contour>
        <pt x="211" y="640" on="1"/>
        <pt x="403" y="640" on="1"/>
        <pt x="390" y="576" on="1"/>
        <pt x="198" y="576" on="1"/>
      </contour>
      <contour>
        <pt x="224" y="384" on="1"/>
        <pt x="352" y="384" on="1"/>
        <pt x="339" y="320" on="1"/>
        <pt x="211" y="320" on="1"/>
      </contour>
      <contour>
        <pt x="314" y="192" on="1"/>
        <pt x="326" y="256" on="1"/>
        <pt x="339" y="320" on="1"/>
        <pt x="403" y="320" on="1"/>
        <pt x="390" y="256" on="1"/>
        <pt x="378" y="192" on="1"/>
        <pt x="352" y="64" on="1"/>
        <pt x="288" y="64" on="1"/>
      </contour>
      <contour>
        <pt x="378" y="512" on="1"/>
        <pt x="390" y="576" on="1"/>
        <pt x="454" y="576" on="1"/>
        <pt x="442" y="512" on="1"/>
        <pt x="416" y="384" on="1"/>
        <pt x="352" y="384" on="1"/>
      </contour>
    </TTGlyph>
    <TTGlyph name="block" xMin="-83" yMin="-192" xMax="570" yMax="832">
      <contour>
        <pt x="-83" y="-192" on="1"/>
        <pt x="122" y="832" on="1"/>
        <pt x="570" y="832" on="1"/>
        <pt x="365" y="-192" on="1"/>
      </contour>
    </TTGlyph>
    <TTGlyph name="braceleft" xMin="86" yMin="-64" xMax="455" yMax="704">
      <contour>
        <pt x="212" y="-54" on="0"/>
        <pt x="110" y="-3" on="0"/>
        <pt x="110" y="52" on="1"/>
        <pt x="110" y="66" on="0"/>
        <pt x="113" y="79" on="1"/>
        <pt x="116" y="94" on="0"/>
        <pt x="127" y="125" on="1"/>
        <pt x="144" y="170" on="0"/>
        <pt x="148" y="194" on="1"/>
        <pt x="150" y="206" on="0"/>
        <pt x="150" y="212" on="1"/>
        <pt x="150" y="235" on="0"/>
        <pt x="120" y="262" on="0"/>
        <pt x="86" y="268" on="1"/>
        <pt x="101" y="374" on="1"/>
        <pt x="187" y="388" on="0"/>
        <pt x="202" y="464" on="1"/>
        <pt x="206" y="484" on="0"/>
        <pt x="208" y="521" on="1"/>
        <pt x="208" y="553" on="0"/>
        <pt x="213" y="579" on="1"/>
        <pt x="222" y="622" on="0"/>
        <pt x="284" y="673" on="0"/>
        <pt x="381" y="697" on="0"/>
        <pt x="454" y="704" on="1"/>
        <pt x="455" y="630" on="1"/>
        <pt x="383" y="617" on="0"/>
        <pt x="322" y="582" on="0"/>
        <pt x="314" y="543" on="1"/>
        <pt x="312" y="533" on="0"/>
        <pt x="310" y="506" on="0"/>
        <pt x="310" y="501" on="1"/>
        <pt x="310" y="462" on="0"/>
        <pt x="303" y="428" on="1"/>
        <pt x="294" y="381" on="0"/>
        <pt x="237" y="331" on="0"/>
        <pt x="185" y="317" on="1"/>
        <pt x="222" y="304" on="0"/>
        <pt x="259" y="261" on="0"/>
        <pt x="259" y="226" on="1"/>
        <pt x="259" y="212" on="0"/>
        <pt x="256" y="194" on="1"/>
        <pt x="252" y="172" on="0"/>
        <pt x="238" y="134" on="1"/>
        <pt x="226" y="104" on="0"/>
        <pt x="221" y="79" on="1"/>
        <pt x="219" y="69" on="0"/>
        <pt x="219" y="65" on="1"/>
        <pt x="219" y="42" on="0"/>
        <pt x="264" y="19" on="0"/>
        <pt x="325" y="8" on="1"/>
        <pt x="307" y="-64" on="1"/>
      </contour>
    </TTGlyph>
    <TTGlyph name="braceright" xMin="31" yMin="-64" xMax="400" yMax="704">
      <contour>
        <pt x="103" y="23" on="0"/>
        <pt x="164" y="58" on="0"/>
        <pt x="172" y="97" on="1"/>
        <pt x="174" y="107" on="0"/>
        <pt x="176" y="134" on="0"/>
        <pt x="176" y="139" on="1"/>
        <pt x="176" y="178" on="0"/>
        <pt x="183" y="212" on="1"/>
        <pt x="192" y="259" on="0"/>
        <pt x="249" y="309" on="0"/>
        <pt x="301" y="323" on="1"/>
        <pt x="264" y="336" on="0"/>
        <pt x="227" y="379" on="0"/>
        <pt x="227" y="414" on="1"/>
        <pt x="227" y="428" on="0"/>
        <pt x="230" y="446" on="1"/>
        <pt x="234" y="468" on="0"/>
        <pt x="248" y="506" on="1"/>
        <pt x="260" y="536" on="0"/>
        <pt x="265" y="561" on="1"/>
        <pt x="267" y="571" on="0"/>
        <pt x="267" y="575" on="1"/>
        <pt x="267" y="598" on="0"/>
        <pt x="222" y="621" on="0"/>
        <pt x="161" y="632" on="1"/>
        <pt x="179" y="704" on="1"/>
        <pt x="274" y="694" on="0"/>
        <pt x="376" y="643" on="0"/>
        <pt x="376" y="588" on="1"/>
        <pt x="376" y="575" on="0"/>
        <pt x="373" y="561" on="1"/>
        <pt x="370" y="546" on="0"/>
        <pt x="359" y="515" on="1"/>
        <pt x="342" y="470" on="0"/>
        <pt x="338" y="446" on="1"/>
        <pt x="336" y="434" on="0"/>
        <pt x="336" y="428" on="1"/>
        <pt x="336" y="405" on="0"/>
        <pt x="366" y="378" on="0"/>
        <pt x="400" y="372" on="1"/>
        <pt x="385" y="266" on="1"/>
        <pt x="299" y="252" on="0"/>
        <pt x="284" y="176" on="1"/>
        <pt x="280" y="156" on="0"/>
        <pt x="278" y="119" on="1"/>
        <pt x="278" y="87" on="0"/>
        <pt x="273" y="61" on="1"/>
        <pt x="264" y="18" on="0"/>
        <pt x="202" y="-33" on="0"/>
        <pt x="105" y="-57" on="0"/>
        <pt x="32" y="-64" on="1"/>
        <pt x="31" y="10" on="1"/>
      </contour>
    </TTGlyph>
    <TTGlyph name="bracketleft" xMin="66" yMin="-64" xMax="456" yMax="704">
      <contour>
        <pt x="316" y="624" on="1"/>
        <pt x="194" y="16" on="1"/>
        <pt x="318" y="16" on="1"/>
        <pt x="302" y="-64" on="1"/>
        <pt x="66" y="-64" on="1"/>
        <pt x="220" y="704" on="1"/>
        <pt x="456" y="704" on="1"/>
        <pt x="440" y="624" on="1"/>
      </contour>
    </TTGlyph>
    <TTGlyph name="bracketright" xMin="30" yMin="-64" xMax="420" yMax="704">
      <contour>
        <pt x="30" y="-64" on="1"/>
        <pt x="46" y="16" on="1"/>
        <pt x="170" y="16" on="1"/>
        <pt x="292" y="624" on="1"/>
        <pt x="168" y="624" on="1"/>
        <pt x="184" y="704" on="1"/>
        <pt x="420" y="704" on="1"/>
        <pt x="266" y="-64" on="1"/>
      </contour>
    </TTGlyph>
    <TTGlyph name="breve" xMin="166" yMin="496" xMax="448" yMax="654">
      <component glyphName="uni0306" x="0" y="0" flags="0x0"/>
    </TTGlyph>
    <TTGlyph name="brokenbar" xMin="87" yMin="-192" xMax="374" yMax="704">
      <contour>
        <pt x="189" y="320" on="1"/>
        <pt x="266" y="704" on="1"/>
        <pt x="374" y="704" on="1"/>
        <pt x="297" y="320" on="1"/>
      </contour>
      <contour>
        <pt x="164" y="192" on="1"/>
        <pt x="272" y="192" on="1"/>
        <pt x="195" y="-192" on="1"/>
        <pt x="87" y="-192" on="1"/>
      </contour>
    </TTGlyph>
    <TTGlyph name="bullet" xMin="101" yMin="100" xMax="347" yMax="348">
      <contour>
        <pt x="289" y="348" on="0"/>
        <pt x="347" y="289" on="0"/>
        <pt x="347" y="244" on="1"/>
        <pt x="347" y="205" on="0"/>
        <pt x="308" y="139" on="0"/>
        <pt x="243" y="100" on="0"/>
        <pt x="206" y="100" on="1"/>
        <pt x="159" y="100" on="0"/>
        <pt x="101" y="159" on="0"/>
        <pt x="101" y="204" on="1"/>
        <pt x="101" y="243" on="0"/>
        <pt x="140" y="309" on="0"/>
        <pt x="205" y="348" on="0"/>
        <pt x="242" y="348" on="1"/>
      </contour>
    </TTGlyph>
    <TTGlyph name="c" xMin="32" yMin="-7" xMax="387" yMax="455">
      <contour>
        <pt x="32" y="-7" on="0"/>
        <pt x="32" y="146" on="1"/>
        <pt x="32" y="181" on="0"/>
        <pt x="42" y="233" on="1"/>
        <pt x="62" y="336" on="0"/>
        <pt x="166" y="455" on="0"/>
        <pt x="267" y="455" on="1"/>
        <pt x="332" y="455" on="0"/>
        <pt x="387" y="429" on="1"/>
        <pt x="361" y="359" on="1"/>
        <pt x="330" y="371" on="0"/>
        <pt x="285" y="371" on="1"/>
        <pt x="230" y="371" on="0"/>
        <pt x="171" y="301" on="0"/>
        <pt x="154" y="215" on="1"/>
        <pt x="145" y="170" on="0"/>
        <pt x="145" y="142" on="1"/>
        <pt x="145" y="106" on="0"/>
        <pt x="177" y="77" on="0"/>
        <pt x="213" y="77" on="1"/>
        <pt x="250" y="77" on="0"/>
        <pt x="301" y="92" on="1"/>
        <pt x="309" y="15" on="1"/>
        <pt x="255" y="-7" on="0"/>
        <pt x="187" y="-7" on="1"/>
      </contour>
    </TTGlyph>
    <TTGlyph name="cacute" xMin="32" yMin="-7" xMax="456" yMax="654">
      <component glyphName="c" x="0" y="0" flags="0x0"/>
      <component glyphName="acutecomb" x="-6" y="0" flags="0x0"/>
    </TTGlyph>
    <TTGlyph name="caron" xMin="153" yMin="511" xMax="469" yMax="654">
      <component glyphName="uni030C" x="0" y="0" flags="0x0"/>
    </TTGlyph>
    <TTGlyph name="ccaron" xMin="32" yMin="-7" xMax="463" yMax="654">
      <component glyphName="c" x="0" y="0" flags="0x0"/>
      <component glyphName="uni030C" x="-6" y="0" flags="0x0"/>
    </TTGlyph>
    <TTGlyph name="ccedilla" xMin="4" yMin="-192" xMax="387" yMax="455">
      <component glyphName="c" x="0" y="0" flags="0x0"/>
      <component glyphName="uni0327" x="-44" y="0" flags="0x0"/>
    </TTGlyph>
    <TTGlyph name="ccircumflex" xMin="32" yMin="-7" xMax="431" yMax="650">
      <component glyphName="c" x="0" y="0" flags="0x0"/>
      <component glyphName="uni0302" x="-6" y="0" flags="0x0"/>
    </TTGlyph>
    <TTGlyph name="cdotaccent" xMin="32" yMin="-7" xMax="387" yMax="658">
      <component glyphName="c" x="0" y="0" flags="0x0"/>
      <component glyphName="uni0307" x="-6" y="0" flags="0x0"/>
    </TTGlyph>
    <TTGlyph name="cedilla" xMin="48" yMin="-192" xMax="278" yMax="14">
      <component glyphName="uni0327" x="0" y="0" flags="0x0"/>
    </TTGlyph>
    <TTGlyph name="cent" xMin="43" yMin="-64" xMax="398" yMax="640">
      <contour>
        <pt x="70" y="387" on="0"/>
        <pt x="154" y="501" on="0"/>
        <pt x="230" y="515" on="1"/>
        <pt x="255" y="640" on="1"/>
        <pt x="359" y="640" on="1"/>
        <pt x="334" y="514" on="1"/>
        <pt x="366" y="508" on="0"/>
        <pt x="398" y="493" on="1"/>
        <pt x="372" y="423" on="1"/>
        <pt x="341" y="435" on="0"/>
        <pt x="296" y="435" on="1"/>
        <pt x="241" y="435" on="0"/>
        <pt x="182" y="365" on="0"/>
        <pt x="165" y="279" on="1"/>
        <pt x="156" y="234" on="0"/>
        <pt x="156" y="206" on="1"/>
        <pt x="156" y="170" on="0"/>
        <pt x="188" y="141" on="0"/>
        <pt x="224" y="141" on="1"/>
        <pt x="261" y="141" on="0"/>
        <pt x="312" y="156" on="1"/>
        <pt x="320" y="79" on="1"/>
        <pt x="283" y="63" on="0"/>
        <pt x="243" y="60" on="1"/>
        <pt x="219" y="-64" on="1"/>
        <pt x="115" y="-64" on="1"/>
        <pt x="140" y="64" on="1"/>
        <pt x="43" y="89" on="0"/>
        <pt x="43" y="210" on="1"/>
        <pt x="43" y="245" on="0"/>
        <pt x="53" y="297" on="1"/>
      </contour>
    </TTGlyph>
    <TTGlyph name="chi" xMin="-59" yMin="-192" xMax="445" yMax="448">
      <contour>
        <pt x="445" y="448" on="1"/>
        <pt x="248" y="154" on="1"/>
        <pt x="284" y="104" on="0"/>
        <pt x="316" y="-4" on="0"/>
        <pt x="316" y="-77" on="1"/>
        <pt x="316" y="-132" on="0"/>
        <pt x="309" y="-192" on="1"/>
        <pt x="238" y="-192" on="1"/>
        <pt x="246" y="-115" on="0"/>
        <pt x="246" y="-70" on="1"/>
        <pt x="246" y="-18" on="0"/>
        <pt x="227" y="59" on="0"/>
        <pt x="207" y="93" on="1"/>
        <pt x="16" y="-192" on="1"/>
        <pt x="-59" y="-192" on="1"/>
        <pt x="164" y="141" on="1"/>
        <pt x="123" y="213" on="0"/>
        <pt x="92" y="347" on="0"/>
        <pt x="94" y="448" on="1"/>
        <pt x="167" y="448" on="1"/>
        <pt x="165" y="363" on="0"/>
        <pt x="182" y="256" on="0"/>
        <pt x="207" y="205" on="1"/>
        <pt x="369" y="448" on="1"/>
      </contour>
    </TTGlyph>
    <TTGlyph name="circle" xMin="64" yMin="120" xMax="409" yMax="456">
      <contour>
        <pt x="144" y="120" on="0"/>
        <pt x="64" y="197" on="0"/>
        <pt x="64" y="258" on="1"/>
        <pt x="64" y="277" on="0"/>
        <pt x="68" y="294" on="1"/>
        <pt x="77" y="340" on="0"/>
        <pt x="136" y="414" on="0"/>
        <pt x="219" y="456" on="0"/>
        <pt x="265" y="456" on="1"/>
        <pt x="330" y="456" on="0"/>
        <pt x="409" y="378" on="0"/>
        <pt x="409" y="317" on="1"/>
        <pt x="409" y="300" on="0"/>
        <pt x="406" y="282" on="1"/>
        <pt x="397" y="236" on="0"/>
        <pt x="338" y="162" on="0"/>
        <pt x="254" y="120" on="0"/>
        <pt x="208" y="120" on="1"/>
      </contour>
      <contour>
        <pt x="133" y="226" on="0"/>
        <pt x="176" y="184" on="0"/>
        <pt x="211" y="184" on="1"/>
        <pt x="244" y="184" on="0"/>
        <pt x="303" y="220" on="0"/>
        <pt x="340" y="280" on="0"/>
        <pt x="340" y="315" on="1"/>
        <pt x="340" y="349" on="0"/>
        <pt x="298" y="392" on="0"/>
        <pt x="263" y="392" on="1"/>
        <pt x="230" y="392" on="0"/>
        <pt x="170" y="356" on="0"/>
        <pt x="133" y="295" on="0"/>
        <pt x="133" y="259" on="1"/>
      </contour>
    </TTGlyph>
    <TTGlyph name="circumflex" xMin="121" yMin="507" xMax="437" yMax="650">
      <component glyphName="uni0302" x="0" y="0" flags="0x0"/>
    </TTGlyph>
    <TTGlyph name="club" xMin="32" yMin="64" xMax="416" yMax="512">
      <contour>
        <pt x="416" y="384" on="1"/>
        <pt x="378" y="192" on="1"/>
        <pt x="314" y="192" on="1"/>
        <pt x="326" y="256" on="1"/>
        <pt x="262" y="256" on="1"/>
        <pt x="237" y="128" on="1"/>
        <pt x="365" y="128" on="1"/>
        <pt x="352" y="64" on="1"/>
        <pt x="32" y="64" on="1"/>
        <pt x="45" y="128" on="1"/>
        <pt x="173" y="128" on="1"/>
        <pt x="198" y="256" on="1"/>
        <pt x="134" y="256" on="1"/>
        <pt x="122" y="192" on="1"/>
        <pt x="58" y="192" on="1"/>
        <pt x="96" y="384" on="1"/>
        <pt x="160" y="384" on="1"/>
        <pt x="147" y="320" on="1"/>
        <pt x="211" y="320" on="1"/>
        <pt x="237" y="448" on="1"/>
        <pt x="173" y="448" on="1"/>
        <pt x="186" y="512" on="1"/>
        <pt x="378" y="512" on="1"/>
        <pt x="365" y="448" on="1"/>
        <pt x="301" y="448" on="1"/>
        <pt x="275" y="320" on="1"/>
        <pt x="339" y="320" on="1"/>
        <pt x="352" y="384" on="1"/>
      </contour>
    </TTGlyph>
    <TTGlyph name="colon" xMin="14" yMin="-10" xMax="242" yMax="458">
      <contour>
        <pt x="141" y="158" on="0"/>
        <pt x="182" y="121" on="0"/>
        <pt x="182" y="88" on="1"/>
        <pt x="182" y="42" on="0"/>
        <pt x="127" y="-10" on="0"/>
        <pt x="88" y="-10" on="1"/>
        <pt x="55" y="-10" on="0"/>
        <pt x="14" y="27" on="0"/>
        <pt x="14" y="60" on="1"/>
        <pt x="14" y="106" on="0"/>
        <pt x="70" y="158" on="0"/>
        <pt x="108" y="158" on="1"/>
      </contour>
      <contour>
        <pt x="74" y="406" on="0"/>
        <pt x="130" y="458" on="0"/>
        <pt x="168" y="458" on="1"/>
        <pt x="201" y="458" on="0"/>
        <pt x="242" y="421" on="0"/>
        <pt x="242" y="388" on="1"/>
        <pt x="242" y="342" on="0"/>
        <pt x="187" y="290" on="0"/>
        <pt x="148" y="290" on="1"/>
        <pt x="115" y="290" on="0"/>
        <pt x="74" y="327" on="0"/>
        <pt x="74" y="360" on="1"/>
      </contour>
    </TTGlyph>
    <TTGlyph name="comma" xMin="-1" yMin="-152" xMax="179" yMax="153">
      <contour>
        <pt x="138" y="153" on="0"/>
        <pt x="179" y="117" on="0"/>
        <pt x="179" y="78" on="1"/>
        <pt x="179" y="69" on="0"/>
        <pt x="175" y="43" on="1"/>
        <pt x="165" y="-6" on="0"/>
        <pt x="101" y="-106" on="0"/>
        <pt x="55" y="-152" on="1"/>
        <pt x="-1" y="-107" on="1"/>
        <pt x="45" y="-52" on="0"/>
        <pt x="69" y="-4" on="1"/>
        <pt x="44" y="-2" on="0"/>
        <pt x="14" y="30" on="0"/>
        <pt x="14" y="58" on="1"/>
        <pt x="14" y="101" on="0"/>
        <pt x="68" y="153" on="0"/>
        <pt x="106" y="153" on="1"/>
      </contour>
    </TTGlyph>
    <TTGlyph name="copyright" xMin="9" yMin="11" xMax="452" yMax="501">
      <contour>
        <pt x="302" y="348" on="0"/>
        <pt x="268" y="348" on="1"/>
        <pt x="228" y="348" on="0"/>
        <pt x="184" y="304" on="0"/>
        <pt x="173" y="250" on="1"/>
        <pt x="168" y="225" on="0"/>
        <pt x="168" y="212" on="1"/>
        <pt x="168" y="188" on="0"/>
        <pt x="193" y="170" on="0"/>
        <pt x="220" y="170" on="1"/>
        <pt x="248" y="170" on="0"/>
        <pt x="289" y="182" on="1"/>
        <pt x="299" y="134" on="1"/>
        <pt x="259" y="120" on="0"/>
        <pt x="220" y="120" on="1"/>
        <pt x="166" y="120" on="0"/>
        <pt x="116" y="174" on="0"/>
        <pt x="116" y="221" on="1"/>
        <pt x="116" y="240" on="0"/>
        <pt x="121" y="267" on="1"/>
        <pt x="132" y="326" on="0"/>
        <pt x="201" y="397" on="0"/>
        <pt x="262" y="397" on="1"/>
        <pt x="302" y="397" on="0"/>
        <pt x="343" y="379" on="1"/>
        <pt x="324" y="338" on="1"/>
      </contour>
      <contour>
        <pt x="31" y="341" on="0"/>
        <pt x="112" y="448" on="0"/>
        <pt x="218" y="501" on="0"/>
        <pt x="273" y="501" on="1"/>
        <pt x="322" y="501" on="0"/>
        <pt x="403" y="459" on="0"/>
        <pt x="452" y="374" on="0"/>
        <pt x="452" y="314" on="1"/>
        <pt x="452" y="281" on="0"/>
        <pt x="445" y="247" on="1"/>
        <pt x="430" y="172" on="0"/>
        <pt x="349" y="65" on="0"/>
        <pt x="242" y="11" on="0"/>
        <pt x="188" y="11" on="1"/>
        <pt x="139" y="11" on="0"/>
        <pt x="57" y="54" on="0"/>
        <pt x="9" y="140" on="0"/>
        <pt x="9" y="200" on="1"/>
        <pt x="9" y="233" on="0"/>
        <pt x="16" y="265" on="1"/>
      </contour>
      <contour>
        <pt x="59" y="219" on="0"/>
        <pt x="59" y="190" on="1"/>
        <pt x="59" y="131" on="0"/>
        <pt x="119" y="59" on="0"/>
        <pt x="185" y="59" on="1"/>
        <pt x="271" y="59" on="0"/>
        <pt x="379" y="178" on="0"/>
        <pt x="396" y="265" on="1"/>
        <pt x="402" y="294" on="0"/>
        <pt x="402" y="321" on="1"/>
        <pt x="402" y="380" on="0"/>
        <pt x="342" y="453" on="0"/>
        <pt x="276" y="453" on="1"/>
        <pt x="190" y="453" on="0"/>
        <pt x="82" y="333" on="0"/>
        <pt x="65" y="247" on="1"/>
      </contour>
    </TTGlyph>
    <TTGlyph name="currency" xMin="17" yMin="57" xMax="457" yMax="519">
      <contour>
        <pt x="309" y="464" on="0"/>
        <pt x="343" y="446" on="1"/>
        <pt x="410" y="519" on="1"/>
        <pt x="457" y="481" on="1"/>
        <pt x="389" y="407" on="1"/>
        <pt x="417" y="368" on="0"/>
        <pt x="417" y="316" on="1"/>
        <pt x="417" y="296" on="0"/>
        <pt x="413" y="279" on="1"/>
        <pt x="406" y="245" on="0"/>
        <pt x="369" y="185" on="0"/>
        <pt x="342" y="162" on="1"/>
        <pt x="379" y="95" on="1"/>
        <pt x="322" y="57" on="1"/>
        <pt x="283" y="127" on="1"/>
        <pt x="249" y="112" on="0"/>
        <pt x="208" y="112" on="1"/>
        <pt x="166" y="112" on="0"/>
        <pt x="130" y="130" on="1"/>
        <pt x="64" y="57" on="1"/>
        <pt x="17" y="95" on="1"/>
        <pt x="85" y="169" on="1"/>
        <pt x="57" y="206" on="0"/>
        <pt x="57" y="258" on="1"/>
        <pt x="57" y="280" on="0"/>
        <pt x="61" y="297" on="1"/>
        <pt x="68" y="331" on="0"/>
        <pt x="105" y="391" on="0"/>
        <pt x="132" y="414" on="1"/>
        <pt x="95" y="481" on="1"/>
        <pt x="152" y="519" on="1"/>
        <pt x="190" y="449" on="1"/>
        <pt x="226" y="464" on="0"/>
        <pt x="266" y="464" on="1"/>
      </contour>
      <contour>
        <pt x="123" y="265" on="0"/>
        <pt x="123" y="258" on="1"/>
        <pt x="123" y="222" on="0"/>
        <pt x="170" y="176" on="0"/>
        <pt x="208" y="176" on="1"/>
        <pt x="257" y="176" on="0"/>
        <pt x="338" y="246" on="0"/>
        <pt x="349" y="297" on="1"/>
        <pt x="351" y="311" on="0"/>
        <pt x="351" y="317" on="1"/>
        <pt x="351" y="354" on="0"/>
        <pt x="305" y="400" on="0"/>
        <pt x="266" y="400" on="1"/>
        <pt x="216" y="400" on="0"/>
        <pt x="135" y="330" on="0"/>
        <pt x="125" y="279" on="1"/>
      </contour>
    </TTGlyph>
    <TTGlyph name="d" xMin="33" yMin="-8" xMax="481" yMax="640">
      <contour>
        <pt x="100" y="-8" on="0"/>
        <pt x="33" y="65" on="0"/>
        <pt x="33" y="142" on="1"/>
        <pt x="33" y="184" on="0"/>
        <pt x="43" y="233" on="1"/>
        <pt x="66" y="351" on="0"/>
        <pt x="170" y="456" on="0"/>
        <pt x="237" y="456" on="1"/>
        <pt x="292" y="456" on="0"/>
        <pt x="325" y="420" on="1"/>
        <pt x="369" y="640" on="1"/>
        <pt x="481" y="640" on="1"/>
        <pt x="366" y="65" on="1"/>
        <pt x="357" y="0" on="1"/>
        <pt x="270" y="0" on="1"/>
        <pt x="270" y="54" on="1"/>
        <pt x="227" y="-8" on="0"/>
        <pt x="155" y="-8" on="1"/>
      </contour>
      <contour>
        <pt x="146" y="160" on="0"/>
        <pt x="146" y="132" on="1"/>
        <pt x="146" y="74" on="0"/>
        <pt x="185" y="74" on="1"/>
        <pt x="218" y="74" on="0"/>
        <pt x="273" y="157" on="0"/>
        <pt x="293" y="260" on="1"/>
        <pt x="310" y="343" on="1"/>
        <pt x="289" y="374" on="0"/>
        <pt x="257" y="374" on="1"/>
        <pt x="223" y="374" on="0"/>
        <pt x="175" y="303" on="0"/>
        <pt x="157" y="215" on="1"/>
      </contour>
    </TTGlyph>
    <TTGlyph name="dagger" xMin="86" yMin="0" xMax="442" yMax="640">
      <contour>
        <pt x="326" y="466" on="1"/>
        <pt x="442" y="466" on="1"/>
        <pt x="426" y="386" on="1"/>
        <pt x="310" y="386" on="1"/>
        <pt x="233" y="0" on="1"/>
        <pt x="125" y="0" on="1"/>
        <pt x="202" y="386" on="1"/>
        <pt x="86" y="386" on="1"/>
        <pt x="102" y="466" on="1"/>
        <pt x="218" y="466" on="1"/>
        <pt x="253" y="640" on="1"/>
        <pt x="361" y="640" on="1"/>
      </contour>
    </TTGlyph>
    <TTGlyph name="daggerdbl" xMin="56" yMin="0" xMax="431" yMax="640">
      <contour>
        <pt x="305" y="458" on="1"/>
        <pt x="431" y="458" on="1"/>
        <pt x="418" y="394" on="1"/>
        <pt x="292" y="394" on="1"/>
        <pt x="262" y="246" on="1"/>
        <pt x="388" y="246" on="1"/>
        <pt x="376" y="182" on="1"/>
        <pt x="250" y="182" on="1"/>
        <pt x="213" y="0" on="1"/>
        <pt x="145" y="0" on="1"/>
        <pt x="182" y="182" on="1"/>
        <pt x="56" y="182" on="1"/>
        <pt x="68" y="246" on="1"/>
        <pt x="194" y="246" on="1"/>
        <pt x="224" y="394" on="1"/>
        <pt x="98" y="394" on="1"/>
        <pt x="111" y="458" on="1"/>
        <pt x="237" y="458" on="1"/>
        <pt x="273" y="640" on="1"/>
        <pt x="341" y="640" on="1"/>
      </contour>
    </TTGlyph>
    <TTGlyph name="dcaron" xMin="3" yMin="-8" xMax="562" yMax="644">
      <component glyphName="d" x="-30" y="0" flags="0x0"/>
      <component glyphName="uni0315" x="44" y="0" flags="0x0"/>
    </TTGlyph>
    <TTGlyph name="dcroat" xMin="33" yMin="-8" xMax="518" yMax="640">
      <component glyphName="d" x="0" y="0" flags="0x0"/>
      <component glyphName="uni0335" x="148" y="310" flags="0x4"/>
    </TTGlyph>
    <TTGlyph name="degree" xMin="175" yMin="377" xMax="452" yMax="647">
      <contour>
        <pt x="388" y="647" on="0"/>
        <pt x="452" y="582" on="0"/>
        <pt x="452" y="532" on="1"/>
        <pt x="452" y="492" on="0"/>
        <pt x="409" y="421" on="0"/>
        <pt x="336" y="377" on="0"/>
        <pt x="293" y="377" on="1"/>
        <pt x="239" y="377" on="0"/>
        <pt x="175" y="442" on="0"/>
        <pt x="175" y="492" on="1"/>
        <pt x="175" y="532" on="0"/>
        <pt x="218" y="603" on="0"/>
        <pt x="291" y="647" on="0"/>
        <pt x="334" y="647" on="1"/>
      </contour>
      <contour>
        <pt x="236" y="463" on="0"/>
        <pt x="261" y="433" on="0"/>
        <pt x="291" y="433" on="1"/>
        <pt x="324" y="433" on="0"/>
        <pt x="369" y="467" on="0"/>
        <pt x="391" y="517" on="0"/>
        <pt x="391" y="539" on="1"/>
        <pt x="391" y="561" on="0"/>
        <pt x="366" y="591" on="0"/>
        <pt x="336" y="591" on="1"/>
        <pt x="303" y="591" on="0"/>
        <pt x="258" y="555" on="0"/>
        <pt x="236" y="505" on="0"/>
        <pt x="236" y="485" on="1"/>
      </contour>
    </TTGlyph>
    <TTGlyph name="delta" xMin="37" yMin="-13" xMax="463" yMax="642">
      <contour>
        <pt x="389" y="578" on="0"/>
        <pt x="355" y="578" on="1"/>
        <pt x="306" y="578" on="0"/>
        <pt x="255" y="538" on="0"/>
        <pt x="249" y="507" on="1"/>
        <pt x="247" y="497" on="0"/>
        <pt x="247" y="492" on="1"/>
        <pt x="247" y="477" on="0"/>
        <pt x="266" y="449" on="0"/>
        <pt x="292" y="424" on="1"/>
        <pt x="336" y="391" on="0"/>
        <pt x="395" y="302" on="0"/>
        <pt x="395" y="237" on="1"/>
        <pt x="395" y="207" on="0"/>
        <pt x="390" y="183" on="1"/>
        <pt x="374" y="102" on="0"/>
        <pt x="267" y="-13" on="0"/>
        <pt x="180" y="-13" on="1"/>
        <pt x="106" y="-13" on="0"/>
        <pt x="37" y="74" on="0"/>
        <pt x="37" y="138" on="1"/>
        <pt x="37" y="159" on="0"/>
        <pt x="42" y="186" on="1"/>
        <pt x="56" y="255" on="0"/>
        <pt x="150" y="366" on="0"/>
        <pt x="221" y="401" on="1"/>
        <pt x="174" y="438" on="0"/>
        <pt x="174" y="493" on="1"/>
        <pt x="174" y="503" on="0"/>
        <pt x="178" y="527" on="1"/>
        <pt x="187" y="577" on="0"/>
        <pt x="272" y="642" on="0"/>
        <pt x="355" y="642" on="1"/>
        <pt x="395" y="642" on="0"/>
        <pt x="463" y="634" on="1"/>
        <pt x="451" y="573" on="1"/>
      </contour>
      <contour>
        <pt x="109" y="142" on="0"/>
        <pt x="109" y="126" on="1"/>
        <pt x="109" y="90" on="0"/>
        <pt x="145" y="51" on="0"/>
        <pt x="180" y="51" on="1"/>
        <pt x="233" y="51" on="0"/>
        <pt x="305" y="128" on="0"/>
        <pt x="319" y="201" on="1"/>
        <pt x="323" y="221" on="0"/>
        <pt x="323" y="242" on="1"/>
        <pt x="323" y="308" on="0"/>
        <pt x="275" y="358" on="1"/>
        <pt x="198" y="320" on="0"/>
        <pt x="127" y="231" on="0"/>
        <pt x="114" y="167" on="1"/>
      </contour>
    </TTGlyph>
    <TTGlyph name="diamond" xMin="71" yMin="80" xMax="395" yMax="456">
      <contour>
        <pt x="247" y="456" on="1"/>
        <pt x="291" y="456" on="1"/>
        <pt x="395" y="284" on="1"/>
        <pt x="391" y="252" on="1"/>
        <pt x="218" y="80" on="1"/>
        <pt x="174" y="80" on="1"/>
        <pt x="71" y="252" on="1"/>
        <pt x="75" y="284" on="1"/>
      </contour>
    </TTGlyph>
    <TTGlyph name="dieresis" xMin="150" yMin="512" xMax="442" yMax="658">
      <component glyphName="uni0308" x="0" y="0" flags="0x0"/>
    </TTGlyph>
    <TTGlyph name="dieresistonos" xMin="129" yMin="512" xMax="464" yMax="704">
      <contour>
        <pt x="372" y="704" on="1"/>
        <pt x="304" y="512" on="1"/>
        <pt x="239" y="512" on="1"/>
        <pt x="288" y="704" on="1"/>
      </contour>
      <contour>
        <pt x="143" y="650" on="0"/>
        <pt x="175" y="650" on="1"/>
        <pt x="208" y="650" on="0"/>
        <pt x="208" y="605" on="1"/>
        <pt x="208" y="594" on="0"/>
        <pt x="205" y="577" on="1"/>
        <pt x="194" y="522" on="0"/>
        <pt x="162" y="522" on="1"/>
        <pt x="129" y="522" on="0"/>
        <pt x="129" y="567" on="1"/>
        <pt x="129" y="579" on="0"/>
        <pt x="132" y="595" on="1"/>
      </contour>
      <contour>
        <pt x="399" y="650" on="0"/>
        <pt x="431" y="650" on="1"/>
        <pt x="464" y="650" on="0"/>
        <pt x="464" y="605" on="1"/>
        <pt x="464" y="594" on="0"/>
        <pt x="461" y="577" on="1"/>
        <pt x="450" y="522" on="0"/>
        <pt x="418" y="522" on="1"/>
        <pt x="385" y="522" on="0"/>
        <pt x="385" y="567" on="1"/>
        <pt x="385" y="579" on="0"/>
        <pt x="388" y="595" on="1"/>
      </contour>
    </TTGlyph>
    <TTGlyph name="divide" xMin="30" yMin="62" xMax="443" yMax="514">
      <contour>
        <pt x="237" y="190" on="0"/>
        <pt x="269" y="160" on="0"/>
        <pt x="269" y="134" on="1"/>
        <pt x="269" y="99" on="0"/>
        <pt x="228" y="62" on="0"/>
        <pt x="198" y="62" on="1"/>
        <pt x="172" y="62" on="0"/>
        <pt x="140" y="92" on="0"/>
        <pt x="140" y="118" on="1"/>
        <pt x="140" y="152" on="0"/>
        <pt x="182" y="190" on="0"/>
        <pt x="211" y="190" on="1"/>
      </contour>
      <contour>
        <pt x="43" y="320" on="1"/>
        <pt x="443" y="320" on="1"/>
        <pt x="430" y="256" on="1"/>
        <pt x="30" y="256" on="1"/>
      </contour>
      <contour>
        <pt x="205" y="476" on="0"/>
        <pt x="247" y="514" on="0"/>
        <pt x="276" y="514" on="1"/>
        <pt x="301" y="514" on="0"/>
        <pt x="333" y="485" on="0"/>
        <pt x="333" y="459" on="1"/>
        <pt x="333" y="424" on="0"/>
        <pt x="293" y="386" on="0"/>
        <pt x="263" y="386" on="1"/>
        <pt x="237" y="386" on="0"/>
        <pt x="205" y="416" on="0"/>
        <pt x="205" y="442" on="1"/>
      </contour>
    </TTGlyph>
    <TTGlyph name="dkshade" xMin="-70" yMin="-192" xMax="506" yMax="832">
      <contour>
        <pt x="32" y="64" on="1"/>
        <pt x="45" y="128" on="1"/>
        <pt x="-19" y="128" on="1"/>
        <pt x="-6" y="192" on="1"/>
        <pt x="6" y="256" on="1"/>
        <pt x="19" y="320" on="1"/>
        <pt x="83" y="320" on="1"/>
        <pt x="96" y="384" on="1"/>
        <pt x="32" y="384" on="1"/>
        <pt x="58" y="512" on="1"/>
        <pt x="70" y="576" on="1"/>
        <pt x="134" y="576" on="1"/>
        <pt x="147" y="640" on="1"/>
        <pt x="83" y="640" on="1"/>
        <pt x="122" y="832" on="1"/>
        <pt x="506" y="832" on="1"/>
        <pt x="493" y="768" on="1"/>
        <pt x="429" y="768" on="1"/>
        <pt x="416" y="704" on="1"/>
        <pt x="480" y="704" on="1"/>
        <pt x="454" y="576" on="1"/>
        <pt x="442" y="512" on="1"/>
        <pt x="378" y="512" on="1"/>
        <pt x="365" y="448" on="1"/>
        <pt x="429" y="448" on="1"/>
        <pt x="390" y="256" on="1"/>
        <pt x="326" y="256" on="1"/>
        <pt x="314" y="192" on="1"/>
        <pt x="378" y="192" on="1"/>
        <pt x="339" y="0" on="1"/>
        <pt x="275" y="0" on="1"/>
        <pt x="262" y="-64" on="1"/>
        <pt x="326" y="-64" on="1"/>
        <pt x="314" y="-128" on="1"/>
        <pt x="301" y="-192" on="1"/>
        <pt x="237" y="-192" on="1"/>
        <pt x="250" y="-128" on="1"/>
        <pt x="186" y="-128" on="1"/>
        <pt x="173" y="-192" on="1"/>
        <pt x="109" y="-192" on="1"/>
        <pt x="122" y="-128" on="1"/>
        <pt x="58" y="-128" on="1"/>
        <pt x="45" y="-192" on="1"/>
        <pt x="-19" y="-192" on="1"/>
        <pt x="-6" y="-128" on="1"/>
        <pt x="-70" y="-128" on="1"/>
        <pt x="-58" y="-64" on="1"/>
        <pt x="-32" y="64" on="1"/>
      </contour>
      <contour>
        <pt x="70" y="-64" on="1"/>
        <pt x="83" y="0" on="1"/>
        <pt x="19" y="0" on="1"/>
        <pt x="6" y="-64" on="1"/>
      </contour>
      <contour>
        <pt x="122" y="192" on="1"/>
        <pt x="134" y="256" on="1"/>
        <pt x="70" y="256" on="1"/>
        <pt x="58" y="192" on="1"/>
      </contour>
      <contour>
        <pt x="160" y="64" on="1"/>
        <pt x="173" y="128" on="1"/>
        <pt x="109" y="128" on="1"/>
        <pt x="96" y="64" on="1"/>
      </contour>
      <contour>
        <pt x="173" y="448" on="1"/>
        <pt x="186" y="512" on="1"/>
        <pt x="122" y="512" on="1"/>
        <pt x="109" y="448" on="1"/>
      </contour>
      <contour>
        <pt x="198" y="-64" on="1"/>
        <pt x="211" y="0" on="1"/>
        <pt x="147" y="0" on="1"/>
        <pt x="134" y="-64" on="1"/>
      </contour>
      <contour>
        <pt x="211" y="320" on="1"/>
        <pt x="224" y="384" on="1"/>
        <pt x="160" y="384" on="1"/>
        <pt x="147" y="320" on="1"/>
      </contour>
      <contour>
        <pt x="224" y="704" on="1"/>
        <pt x="237" y="768" on="1"/>
        <pt x="173" y="768" on="1"/>
        <pt x="160" y="704" on="1"/>
      </contour>
      <contour>
        <pt x="250" y="192" on="1"/>
        <pt x="262" y="256" on="1"/>
        <pt x="198" y="256" on="1"/>
        <pt x="186" y="192" on="1"/>
      </contour>
      <contour>
        <pt x="262" y="576" on="1"/>
        <pt x="275" y="640" on="1"/>
        <pt x="211" y="640" on="1"/>
        <pt x="198" y="576" on="1"/>
      </contour>
      <contour>
        <pt x="288" y="64" on="1"/>
        <pt x="301" y="128" on="1"/>
        <pt x="237" y="128" on="1"/>
        <pt x="224" y="64" on="1"/>
      </contour>
      <contour>
        <pt x="301" y="448" on="1"/>
        <pt x="314" y="512" on="1"/>
        <pt x="250" y="512" on="1"/>
        <pt x="237" y="448" on="1"/>
      </contour>
      <contour>
        <pt x="339" y="320" on="1"/>
        <pt x="352" y="384" on="1"/>
        <pt x="288" y="384" on="1"/>
        <pt x="275" y="320" on="1"/>
      </contour>
      <contour>
        <pt x="352" y="704" on="1"/>
        <pt x="365" y="768" on="1"/>
        <pt x="301" y="768" on="1"/>
        <pt x="288" y="704" on="1"/>
      </contour>
      <contour>
        <pt x="390" y="576" on="1"/>
        <pt x="403" y="640" on="1"/>
        <pt x="339" y="640" on="1"/>
        <pt x="326" y="576" on="1"/>
      </contour>
    </TTGlyph>
    <TTGlyph name="dnblock" xMin="-83" yMin="-192" xMax="467" yMax="320">
      <contour>
        <pt x="-83" y="-192" on="1"/>
        <pt x="19" y="320" on="1"/>
        <pt x="467" y="320" on="1"/>
        <pt x="365" y="-192" on="1"/>
      </contour>
    </TTGlyph>
    <TTGlyph name="dollar" xMin="4" yMin="-128" xMax="452" yMax="704">
      <contour>
        <pt x="27" y="99" on="1"/>
        <pt x="90" y="74" on="0"/>
        <pt x="161" y="74" on="1"/>
        <pt x="218" y="74" on="0"/>
        <pt x="273" y="108" on="0"/>
        <pt x="273" y="139" on="1"/>
        <pt x="273" y="163" on="0"/>
        <pt x="237" y="198" on="0"/>
        <pt x="200" y="221" on="1"/>
        <pt x="163" y="244" on="0"/>
        <pt x="116" y="283" on="0"/>
        <pt x="82" y="345" on="0"/>
        <pt x="82" y="389" on="1"/>
        <pt x="82" y="460" on="0"/>
        <pt x="164" y="558" on="0"/>
        <pt x="242" y="576" on="1"/>
        <pt x="268" y="704" on="1"/>
        <pt x="372" y="704" on="1"/>
        <pt x="348" y="583" on="1"/>
        <pt x="402" y="580" on="0"/>
        <pt x="452" y="563" on="1"/>
        <pt x="435" y="487" on="1"/>
        <pt x="382" y="502" on="0"/>
        <pt x="325" y="502" on="1"/>
        <pt x="262" y="502" on="0"/>
        <pt x="198" y="453" on="0"/>
        <pt x="198" y="408" on="1"/>
        <pt x="198" y="373" on="0"/>
        <pt x="238" y="333" on="0"/>
        <pt x="281" y="307" on="1"/>
        <pt x="316" y="286" on="0"/>
        <pt x="359" y="252" on="0"/>
        <pt x="389" y="196" on="0"/>
        <pt x="389" y="156" on="1"/>
        <pt x="389" y="94" on="0"/>
        <pt x="308" y="11" on="0"/>
        <pt x="231" y="-2" on="1"/>
        <pt x="206" y="-128" on="1"/>
        <pt x="102" y="-128" on="1"/>
        <pt x="126" y="-7" on="1"/>
        <pt x="56" y="0" on="0"/>
        <pt x="4" y="25" on="1"/>
      </contour>
    </TTGlyph>
    <TTGlyph name="dotaccent" xMin="228" yMin="520" xMax="366" yMax="658">
      <component glyphName="uni0307" x="0" y="0" flags="0x0"/>
    </TTGlyph>
    <TTGlyph name="dotbelowcomb" xMin="86" yMin="-190" xMax="224" yMax="-52">
      <component glyphName="uni0307" x="-142" y="-710" flags="0x4"/>
    </TTGlyph>
    <TTGlyph name="dotlessi" xMin="47" yMin="0" xMax="249" yMax="448">
      <contour>
        <pt x="120" y="366" on="1"/>
        <pt x="50" y="372" on="1"/>
        <pt x="65" y="448" on="1"/>
        <pt x="249" y="448" on="1"/>
        <pt x="159" y="0" on="1"/>
        <pt x="47" y="0" on="1"/>
      </contour>
    </TTGlyph>
    <TTGlyph name="dotmath" xMin="46" yMin="204" xMax="214" yMax="372">
      <component glyphName="period" x="32" y="214" flags="0x4"/>
    </TTGlyph>
    <TTGlyph name="e" xMin="33" yMin="-13" xMax="417" yMax="461">
      <contour>
        <pt x="63" y="337" on="0"/>
        <pt x="171" y="461" on="0"/>
        <pt x="265" y="461" on="1"/>
        <pt x="340" y="461" on="0"/>
        <pt x="417" y="376" on="0"/>
        <pt x="417" y="303" on="1"/>
        <pt x="417" y="252" on="0"/>
        <pt x="395" y="184" on="1"/>
        <pt x="149" y="187" on="1"/>
        <pt x="145" y="163" on="0"/>
        <pt x="145" y="139" on="1"/>
        <pt x="145" y="100" on="0"/>
        <pt x="180" y="67" on="0"/>
        <pt x="220" y="67" on="1"/>
        <pt x="261" y="67" on="0"/>
        <pt x="341" y="93" on="1"/>
        <pt x="351" y="18" on="1"/>
        <pt x="269" y="-13" on="0"/>
        <pt x="201" y="-13" on="1"/>
        <pt x="33" y="-13" on="0"/>
        <pt x="33" y="150" on="1"/>
        <pt x="33" y="190" on="0"/>
        <pt x="42" y="233" on="1"/>
      </contour>
      <contour>
        <pt x="300" y="266" on="1"/>
        <pt x="306" y="298" on="0"/>
        <pt x="306" y="320" on="1"/>
        <pt x="306" y="381" on="0"/>
        <pt x="262" y="381" on="1"/>
        <pt x="229" y="381" on="0"/>
        <pt x="183" y="327" on="0"/>
        <pt x="166" y="266" on="1"/>
      </contour>
    </TTGlyph>
    <TTGlyph name="eacute" xMin="33" yMin="-13" xMax="462" yMax="654">
      <component glyphName="e" x="0" y="0" flags="0x0"/>
      <component glyphName="acutecomb" x="0" y="0" flags="0x0"/>
    </TTGlyph>
    <TTGlyph name="ebreve" xMin="33" yMin="-13" xMax="448" yMax="654">
      <component glyphName="e" x="0" y="0" flags="0x0"/>
      <component glyphName="uni0306" x="0" y="0" flags="0x0"/>
    </TTGlyph>
    <TTGlyph name="ecaron" xMin="33" yMin="-13" xMax="469" yMax="654">
      <component glyphName="e" x="0" y="0" flags="0x0"/>
      <component glyphName="uni030C" x="0" y="0" flags="0x0"/>
    </TTGlyph>
    <TTGlyph name="ecircumflex" xMin="33" yMin="-13" xMax="437" yMax="650">
      <component glyphName="e" x="0" y="0" flags="0x0"/>
      <component glyphName="uni0302" x="0" y="0" flags="0x0"/>
    </TTGlyph>
    <TTGlyph name="edieresis" xMin="33" yMin="-13" xMax="442" yMax="658">
      <component glyphName="e" x="0" y="0" flags="0x0"/>
      <component glyphName="uni0308" x="0" y="0" flags="0x0"/>
    </TTGlyph>
    <TTGlyph name="edotaccent" xMin="33" yMin="-13" xMax="417" yMax="658">
      <component glyphName="e" x="0" y="0" flags="0x0"/>
      <component glyphName="uni0307" x="0" y="0" flags="0x0"/>
    </TTGlyph>
    <TTGlyph name="egrave" xMin="33" yMin="-13" xMax="417" yMax="640">
      <component glyphName="e" x="0" y="0" flags="0x0"/>
      <component glyphName="gravecomb" x="0" y="0" flags="0x0"/>
    </TTGlyph>
    <TTGlyph name="eight" xMin="3" yMin="-11" xMax="446" yMax="586">
      <contour>
        <pt x="90" y="-11" on="0"/>
        <pt x="3" y="57" on="0"/>
        <pt x="3" y="112" on="1"/>
        <pt x="3" y="127" on="0"/>
        <pt x="6" y="143" on="1"/>
        <pt x="16" y="191" on="0"/>
        <pt x="75" y="271" on="0"/>
        <pt x="117" y="300" on="1"/>
        <pt x="84" y="340" on="0"/>
        <pt x="84" y="387" on="1"/>
        <pt x="84" y="398" on="0"/>
        <pt x="88" y="422" on="1"/>
        <pt x="97" y="469" on="0"/>
        <pt x="160" y="544" on="0"/>
        <pt x="251" y="586" on="0"/>
        <pt x="303" y="586" on="1"/>
        <pt x="369" y="586" on="0"/>
        <pt x="446" y="523" on="0"/>
        <pt x="446" y="469" on="1"/>
        <pt x="446" y="460" on="0"/>
        <pt x="442" y="436" on="1"/>
        <pt x="435" y="397" on="0"/>
        <pt x="388" y="319" on="0"/>
        <pt x="349" y="287" on="1"/>
        <pt x="381" y="263" on="0"/>
        <pt x="413" y="212" on="0"/>
        <pt x="413" y="181" on="1"/>
        <pt x="413" y="167" on="0"/>
        <pt x="410" y="150" on="1"/>
        <pt x="401" y="107" on="0"/>
        <pt x="337" y="34" on="0"/>
        <pt x="234" y="-11" on="0"/>
        <pt x="171" y="-11" on="1"/>
      </contour>
      <contour>
        <pt x="122" y="156" on="0"/>
        <pt x="122" y="143" on="1"/>
        <pt x="122" y="111" on="0"/>
        <pt x="160" y="69" on="0"/>
        <pt x="199" y="69" on="1"/>
        <pt x="240" y="69" on="0"/>
        <pt x="288" y="109" on="0"/>
        <pt x="293" y="133" on="1"/>
        <pt x="295" y="143" on="0"/>
        <pt x="295" y="148" on="1"/>
        <pt x="295" y="172" on="0"/>
        <pt x="250" y="212" on="0"/>
        <pt x="188" y="244" on="1"/>
        <pt x="173" y="253" on="1"/>
        <pt x="151" y="235" on="0"/>
        <pt x="131" y="194" on="0"/>
        <pt x="125" y="168" on="1"/>
      </contour>
      <contour>
        <pt x="202" y="392" on="0"/>
        <pt x="237" y="352" on="0"/>
        <pt x="281" y="327" on="1"/>
        <pt x="314" y="366" on="0"/>
        <pt x="324" y="416" on="1"/>
        <pt x="327" y="430" on="0"/>
        <pt x="327" y="443" on="1"/>
        <pt x="327" y="471" on="0"/>
        <pt x="301" y="506" on="0"/>
        <pt x="274" y="506" on="1"/>
        <pt x="237" y="506" on="0"/>
        <pt x="202" y="448" on="0"/>
        <pt x="202" y="415" on="1"/>
      </contour>
    </TTGlyph>
    <TTGlyph name="eight.dnom" xMin="211" yMin="-198" xMax="459" yMax="134">
      <component glyphName="uni2078" x="128" y="-512" flags="0x4"/>
    </TTGlyph>
    <TTGlyph name="eight.numr" xMin="83" yMin="314" xMax="331" yMax="646">
      <component glyphName="uni2078" x="0" y="0" flags="0x0"/>
    </TTGlyph>
    <TTGlyph name="eight_fraction_nine" xMin="39" yMin="-199" xMax="458" yMax="646">
      <component glyphName="eight.numr" x="0" y="0" flags="0x0"/>
      <component glyphName="fraction.alt" x="0" y="0" flags="0x0"/>
      <component glyphName="nine.dnom" x="0" y="0" flags="0x0"/>
    </TTGlyph>
    <TTGlyph name="ellipsis" xMin="-103" yMin="-10" xMax="363" yMax="158">
      <component glyphName="period" x="-117" y="0" flags="0x0"/>
      <component glyphName="period" x="32" y="0" flags="0x0"/>
      <component glyphName="period" x="181" y="0" flags="0x0"/>
    </TTGlyph>
    <TTGlyph name="emacron" xMin="33" yMin="-13" xMax="437" yMax="640">
      <component glyphName="e" x="0" y="0" flags="0x0"/>
      <component glyphName="uni0304" x="0" y="0" flags="0x0"/>
    </TTGlyph>
    <TTGlyph name="emdash" xMin="-7" yMin="240" xMax="480" yMax="336">
      <contour>
        <pt x="-7" y="240" on="1"/>
        <pt x="12" y="336" on="1"/>
        <pt x="480" y="336" on="1"/>
        <pt x="461" y="240" on="1"/>
      </contour>
    </TTGlyph>
    <TTGlyph name="emoji.eyes" xMin="94" yMin="378" xMax="444" yMax="518">
      <contour>
        <pt x="114" y="378" on="0"/>
        <pt x="94" y="409" on="0"/>
        <pt x="94" y="433" on="1"/>
        <pt x="94" y="465" on="0"/>
        <pt x="128" y="518" on="0"/>
        <pt x="150" y="518" on="1"/>
        <pt x="167" y="518" on="0"/>
        <pt x="188" y="487" on="0"/>
        <pt x="188" y="463" on="1"/>
        <pt x="188" y="430" on="0"/>
        <pt x="153" y="378" on="0"/>
        <pt x="132" y="378" on="1"/>
      </contour>
      <contour>
        <pt x="350" y="465" on="0"/>
        <pt x="384" y="518" on="0"/>
        <pt x="406" y="518" on="1"/>
        <pt x="423" y="518" on="0"/>
        <pt x="444" y="487" on="0"/>
        <pt x="444" y="463" on="1"/>
        <pt x="444" y="430" on="0"/>
        <pt x="409" y="378" on="0"/>
        <pt x="388" y="378" on="1"/>
        <pt x="370" y="378" on="0"/>
        <pt x="350" y="409" on="0"/>
        <pt x="350" y="433" on="1"/>
      </contour>
    </TTGlyph>
    <TTGlyph name="emoji.eyes.smiling" xMin="31" yMin="384" xMax="479" yMax="512">
      <contour>
        <pt x="121" y="512" on="1"/>
        <pt x="185" y="512" on="1"/>
        <pt x="223" y="384" on="1"/>
        <pt x="166" y="384" on="1"/>
        <pt x="147" y="448" on="1"/>
        <pt x="137" y="448" on="1"/>
        <pt x="92" y="384" on="1"/>
        <pt x="31" y="384" on="1"/>
      </contour>
      <contour>
        <pt x="377" y="512" on="1"/>
        <pt x="441" y="512" on="1"/>
        <pt x="479" y="384" on="1"/>
        <pt x="422" y="384" on="1"/>
        <pt x="403" y="448" on="1"/>
        <pt x="393" y="448" on="1"/>
        <pt x="348" y="384" on="1"/>
        <pt x="287" y="384" on="1"/>
      </contour>
    </TTGlyph>
    <TTGlyph name="emoji.mouth" xMin="3" yMin="130" xMax="454" yMax="256">
      <contour>
        <pt x="54" y="130" on="0"/>
        <pt x="3" y="179" on="0"/>
        <pt x="3" y="220" on="1"/>
        <pt x="3" y="236" on="0"/>
        <pt x="6" y="252" on="1"/>
        <pt x="6" y="256" on="1"/>
        <pt x="70" y="256" on="1"/>
        <pt x="69" y="248" on="1"/>
        <pt x="66" y="235" on="0"/>
        <pt x="66" y="224" on="1"/>
        <pt x="66" y="207" on="0"/>
        <pt x="85" y="190" on="0"/>
        <pt x="107" y="190" on="1"/>
        <pt x="323" y="190" on="1"/>
        <pt x="377" y="190" on="0"/>
        <pt x="390" y="254" on="1"/>
        <pt x="390" y="256" on="1"/>
        <pt x="454" y="256" on="1"/>
        <pt x="452" y="246" on="1"/>
        <pt x="441" y="191" on="0"/>
        <pt x="371" y="130" on="0"/>
        <pt x="316" y="130" on="1"/>
        <pt x="100" y="130" on="1"/>
      </contour>
    </TTGlyph>
    <TTGlyph name="emoji.mouth.grinning" xMin="-10" yMin="66" xMax="454" yMax="254">
      <contour>
        <pt x="41" y="66" on="0"/>
        <pt x="-10" y="115" on="0"/>
        <pt x="-10" y="156" on="1"/>
        <pt x="-10" y="172" on="0"/>
        <pt x="-7" y="188" on="1"/>
        <pt x="6" y="254" on="1"/>
        <pt x="454" y="254" on="1"/>
        <pt x="440" y="182" on="1"/>
        <pt x="429" y="127" on="0"/>
        <pt x="358" y="66" on="0"/>
        <pt x="303" y="66" on="1"/>
        <pt x="87" y="66" on="1"/>
      </contour>
      <contour>
        <pt x="53" y="171" on="0"/>
        <pt x="53" y="160" on="1"/>
        <pt x="53" y="143" on="0"/>
        <pt x="72" y="126" on="0"/>
        <pt x="94" y="126" on="1"/>
        <pt x="108" y="126" on="1"/>
        <pt x="122" y="194" on="1"/>
        <pt x="58" y="194" on="1"/>
        <pt x="56" y="184" on="1"/>
      </contour>
      <contour>
        <pt x="236" y="126" on="1"/>
        <pt x="250" y="194" on="1"/>
        <pt x="186" y="194" on="1"/>
        <pt x="172" y="126" on="1"/>
      </contour>
      <contour>
        <pt x="310" y="126" on="1"/>
        <pt x="364" y="126" on="0"/>
        <pt x="377" y="190" on="1"/>
        <pt x="378" y="194" on="1"/>
        <pt x="314" y="194" on="1"/>
        <pt x="300" y="126" on="1"/>
      </contour>
    </TTGlyph>
    <TTGlyph name="endash" xMin="67" yMin="240" xMax="406" yMax="336">
      <component glyphName="hyphen" x="0" y="0" flags="0x0"/>
    </TTGlyph>
    <TTGlyph name="eng" xMin="5" yMin="-198" xMax="420" yMax="452">
      <contour>
        <pt x="82" y="383" on="1"/>
        <pt x="93" y="448" on="1"/>
        <pt x="190" y="448" on="1"/>
        <pt x="189" y="420" on="1"/>
        <pt x="247" y="452" on="0"/>
        <pt x="309" y="452" on="1"/>
        <pt x="362" y="452" on="0"/>
        <pt x="420" y="402" on="0"/>
        <pt x="420" y="353" on="1"/>
        <pt x="420" y="336" on="0"/>
        <pt x="415" y="309" on="1"/>
        <pt x="351" y="-9" on="1"/>
        <pt x="335" y="-87" on="0"/>
        <pt x="263" y="-172" on="0"/>
        <pt x="186" y="-198" on="1"/>
        <pt x="158" y="-114" on="1"/>
        <pt x="195" y="-98" on="0"/>
        <pt x="230" y="-53" on="0"/>
        <pt x="239" y="-9" on="1"/>
        <pt x="302" y="305" on="1"/>
        <pt x="306" y="322" on="0"/>
        <pt x="306" y="337" on="1"/>
        <pt x="306" y="357" on="0"/>
        <pt x="289" y="372" on="0"/>
        <pt x="271" y="372" on="1"/>
        <pt x="232" y="372" on="0"/>
        <pt x="185" y="339" on="1"/>
        <pt x="117" y="0" on="1"/>
        <pt x="5" y="0" on="1"/>
      </contour>
    </TTGlyph>
    <TTGlyph name="eogonek" xMin="33" yMin="-197" xMax="417" yMax="461">
      <component glyphName="e" x="0" y="0" flags="0x0"/>
      <component glyphName="uni0328" x="-59" y="0" flags="0x0"/>
    </TTGlyph>
    <TTGlyph name="epsilon" xMin="32" yMin="0" xMax="429" yMax="448">
      <contour>
        <pt x="339" y="0" on="1"/>
        <pt x="83" y="0" on="1"/>
        <pt x="96" y="64" on="1"/>
        <pt x="352" y="64" on="1"/>
      </contour>
      <contour>
        <pt x="58" y="192" on="1"/>
        <pt x="122" y="192" on="1"/>
        <pt x="96" y="64" on="1"/>
        <pt x="32" y="64" on="1"/>
      </contour>
      <contour>
        <pt x="96" y="384" on="1"/>
        <pt x="160" y="384" on="1"/>
        <pt x="134" y="256" on="1"/>
        <pt x="70" y="256" on="1"/>
      </contour>
      <contour>
        <pt x="134" y="256" on="1"/>
        <pt x="326" y="256" on="1"/>
        <pt x="314" y="192" on="1"/>
        <pt x="122" y="192" on="1"/>
      </contour>
      <contour>
        <pt x="173" y="448" on="1"/>
        <pt x="429" y="448" on="1"/>
        <pt x="416" y="384" on="1"/>
        <pt x="160" y="384" on="1"/>
      </contour>
    </TTGlyph>
    <TTGlyph name="epsilontonos" xMin="32" yMin="0" xMax="429" yMax="704">
      <component glyphName="epsilon" x="0" y="0" flags="0x0"/>
      <component glyphName="tonos" x="0" y="0" flags="0x0"/>
    </TTGlyph>
    <TTGlyph name="equal" xMin="18" yMin="152" xMax="456" yMax="424">
      <contour>
        <pt x="18" y="152" on="1"/>
        <pt x="37" y="248" on="1"/>
        <pt x="421" y="248" on="1"/>
        <pt x="402" y="152" on="1"/>
      </contour>
      <contour>
        <pt x="72" y="424" on="1"/>
        <pt x="456" y="424" on="1"/>
        <pt x="437" y="328" on="1"/>
        <pt x="53" y="328" on="1"/>
      </contour>
    </TTGlyph>
    <TTGlyph name="equivalence" xMin="5" yMin="128" xMax="469" yMax="448">
      <contour>
        <pt x="5" y="128" on="1"/>
        <pt x="18" y="192" on="1"/>
        <pt x="418" y="192" on="1"/>
        <pt x="405" y="128" on="1"/>
      </contour>
      <contour>
        <pt x="43" y="320" on="1"/>
        <pt x="443" y="320" on="1"/>
        <pt x="430" y="256" on="1"/>
        <pt x="30" y="256" on="1"/>
      </contour>
      <contour>
        <pt x="69" y="448" on="1"/>
        <pt x="469" y="448" on="1"/>
        <pt x="456" y="384" on="1"/>
        <pt x="56" y="384" on="1"/>
      </contour>
    </TTGlyph>
    <TTGlyph name="estimated" xMin="43" yMin="-13" xMax="407" yMax="461">
      <contour>
        <pt x="255" y="-13" on="0"/>
        <pt x="197" y="-13" on="1"/>
        <pt x="117" y="-13" on="0"/>
        <pt x="43" y="78" on="0"/>
        <pt x="43" y="152" on="1"/>
        <pt x="43" y="193" on="0"/>
        <pt x="52" y="233" on="1"/>
        <pt x="72" y="332" on="0"/>
        <pt x="183" y="461" on="0"/>
        <pt x="270" y="461" on="1"/>
        <pt x="340" y="461" on="0"/>
        <pt x="407" y="379" on="0"/>
        <pt x="407" y="307" on="1"/>
        <pt x="407" y="272" on="0"/>
        <pt x="397" y="220" on="1"/>
        <pt x="392" y="191" on="1"/>
        <pt x="390" y="192" on="1"/>
        <pt x="390" y="191" on="1"/>
        <pt x="157" y="191" on="1"/>
        <pt x="147" y="134" on="0"/>
        <pt x="147" y="108" on="1"/>
        <pt x="147" y="73" on="0"/>
        <pt x="175" y="41" on="0"/>
        <pt x="206" y="41" on="1"/>
        <pt x="255" y="41" on="0"/>
        <pt x="311" y="58" on="1"/>
        <pt x="322" y="7" on="1"/>
      </contour>
      <contour>
        <pt x="289" y="247" on="1"/>
        <pt x="303" y="320" on="0"/>
        <pt x="303" y="355" on="1"/>
        <pt x="303" y="382" on="0"/>
        <pt x="286" y="407" on="0"/>
        <pt x="268" y="407" on="1"/>
        <pt x="234" y="407" on="0"/>
        <pt x="189" y="333" on="0"/>
        <pt x="169" y="247" on="1"/>
      </contour>
    </TTGlyph>
    <TTGlyph name="eta" xMin="15" yMin="-192" xMax="408" yMax="452">
      <contour>
        <pt x="103" y="448" on="1"/>
        <pt x="168" y="448" on="1"/>
        <pt x="165" y="404" on="1"/>
        <pt x="235" y="452" on="0"/>
        <pt x="300" y="452" on="1"/>
        <pt x="348" y="452" on="0"/>
        <pt x="408" y="402" on="0"/>
        <pt x="408" y="345" on="1"/>
        <pt x="408" y="322" on="0"/>
        <pt x="402" y="293" on="1"/>
        <pt x="305" y="-192" on="1"/>
        <pt x="233" y="-192" on="1"/>
        <pt x="330" y="293" on="1"/>
        <pt x="336" y="322" on="0"/>
        <pt x="336" y="342" on="1"/>
        <pt x="336" y="367" on="0"/>
        <pt x="313" y="388" on="0"/>
        <pt x="286" y="388" on="1"/>
        <pt x="226" y="388" on="0"/>
        <pt x="152" y="325" on="1"/>
        <pt x="87" y="0" on="1"/>
        <pt x="15" y="0" on="1"/>
        <pt x="92" y="383" on="1"/>
      </contour>
    </TTGlyph>
    <TTGlyph name="etatonos" xMin="15" yMin="-192" xMax="416" yMax="704">
      <component glyphName="eta" x="0" y="0" flags="0x0"/>
      <component glyphName="tonos" x="0" y="0" flags="0x0"/>
    </TTGlyph>
    <TTGlyph name="eth" xMin="28" yMin="-8" xMax="427" yMax="646">
      <contour>
        <pt x="287" y="622" on="0"/>
        <pt x="314" y="595" on="1"/>
        <pt x="393" y="644" on="1"/>
        <pt x="427" y="588" on="1"/>
        <pt x="357" y="545" on="1"/>
        <pt x="424" y="453" on="0"/>
        <pt x="424" y="338" on="1"/>
        <pt x="424" y="290" on="0"/>
        <pt x="414" y="243" on="1"/>
        <pt x="389" y="119" on="0"/>
        <pt x="270" y="-8" on="0"/>
        <pt x="181" y="-8" on="1"/>
        <pt x="109" y="-8" on="0"/>
        <pt x="28" y="76" on="0"/>
        <pt x="28" y="150" on="1"/>
        <pt x="28" y="174" on="0"/>
        <pt x="35" y="212" on="1"/>
        <pt x="54" y="307" on="0"/>
        <pt x="172" y="414" on="0"/>
        <pt x="247" y="414" on="1"/>
        <pt x="278" y="414" on="0"/>
        <pt x="308" y="403" on="1"/>
        <pt x="297" y="449" on="0"/>
        <pt x="268" y="490" on="1"/>
        <pt x="178" y="435" on="1"/>
        <pt x="144" y="491" on="1"/>
        <pt x="223" y="540" on="1"/>
        <pt x="214" y="548" on="0"/>
        <pt x="185" y="571" on="1"/>
        <pt x="254" y="646" on="1"/>
      </contour>
      <contour>
        <pt x="138" y="157" on="0"/>
        <pt x="138" y="135" on="1"/>
        <pt x="138" y="72" on="0"/>
        <pt x="187" y="72" on="1"/>
        <pt x="231" y="72" on="0"/>
        <pt x="286" y="170" on="0"/>
        <pt x="304" y="260" on="1"/>
        <pt x="311" y="293" on="0"/>
        <pt x="313" y="324" on="1"/>
        <pt x="290" y="334" on="0"/>
        <pt x="262" y="334" on="1"/>
        <pt x="173" y="334" on="0"/>
        <pt x="145" y="194" on="1"/>
      </contour>
    </TTGlyph>
    <TTGlyph name="exclam" xMin="108" yMin="-10" xMax="373" yMax="640">
      <contour>
        <pt x="241" y="640" on="1"/>
        <pt x="373" y="640" on="1"/>
        <pt x="272" y="212" on="1"/>
        <pt x="172" y="212" on="1"/>
      </contour>
      <contour>
        <pt x="108" y="93" on="0"/>
        <pt x="162" y="138" on="0"/>
        <pt x="200" y="138" on="1"/>
        <pt x="234" y="138" on="0"/>
        <pt x="276" y="103" on="0"/>
        <pt x="276" y="73" on="1"/>
        <pt x="276" y="33" on="0"/>
        <pt x="223" y="-10" on="0"/>
        <pt x="184" y="-10" on="1"/>
        <pt x="150" y="-10" on="0"/>
        <pt x="108" y="23" on="0"/>
        <pt x="108" y="54" on="1"/>
      </contour>
    </TTGlyph>
    <TTGlyph name="exclamdbl" xMin="2" yMin="-10" xMax="479" yMax="640">
      <component glyphName="exclam" x="-106" y="0" flags="0x0"/>
      <component glyphName="exclam" x="106" y="0" flags="0x0"/>
    </TTGlyph>
    <TTGlyph name="exclamdown" xMin="75" yMin="-192" xMax="340" yMax="458">
      <contour>
        <pt x="207" y="-192" on="1"/>
        <pt x="75" y="-192" on="1"/>
        <pt x="176" y="236" on="1"/>
        <pt x="276" y="236" on="1"/>
      </contour>
      <contour>
        <pt x="172" y="415" on="0"/>
        <pt x="225" y="458" on="0"/>
        <pt x="264" y="458" on="1"/>
        <pt x="298" y="458" on="0"/>
        <pt x="340" y="425" on="0"/>
        <pt x="340" y="394" on="1"/>
        <pt x="340" y="355" on="0"/>
        <pt x="286" y="310" on="0"/>
        <pt x="248" y="310" on="1"/>
        <pt x="214" y="310" on="0"/>
        <pt x="172" y="345" on="0"/>
        <pt x="172" y="375" on="1"/>
      </contour>
    </TTGlyph>
    <TTGlyph name="f" xMin="44" yMin="0" xMax="443" yMax="648">
      <contour>
        <pt x="44" y="366" on="1"/>
        <pt x="61" y="448" on="1"/>
        <pt x="137" y="448" on="1"/>
        <pt x="147" y="502" on="1"/>
        <pt x="161" y="579" on="0"/>
        <pt x="251" y="648" on="0"/>
        <pt x="323" y="648" on="1"/>
        <pt x="351" y="648" on="0"/>
        <pt x="418" y="639" on="0"/>
        <pt x="443" y="632" on="1"/>
        <pt x="423" y="562" on="1"/>
        <pt x="387" y="568" on="0"/>
        <pt x="350" y="568" on="1"/>
        <pt x="308" y="568" on="0"/>
        <pt x="263" y="529" on="0"/>
        <pt x="257" y="496" on="1"/>
        <pt x="249" y="448" on="1"/>
        <pt x="372" y="448" on="1"/>
        <pt x="355" y="364" on="1"/>
        <pt x="234" y="364" on="1"/>
        <pt x="169" y="0" on="1"/>
        <pt x="58" y="0" on="1"/>
        <pt x="122" y="363" on="1"/>
      </contour>
    </TTGlyph>
    <TTGlyph name="f.italic" xMin="28" yMin="-205" xMax="486" yMax="648">
      <contour>
        <pt x="57" y="-131" on="0"/>
        <pt x="91" y="-56" on="0"/>
        <pt x="101" y="0" on="1"/>
        <pt x="165" y="363" on="1"/>
        <pt x="87" y="366" on="1"/>
        <pt x="104" y="448" on="1"/>
        <pt x="180" y="448" on="1"/>
        <pt x="190" y="502" on="1"/>
        <pt x="215" y="648" on="0"/>
        <pt x="366" y="648" on="1"/>
        <pt x="394" y="648" on="0"/>
        <pt x="461" y="639" on="0"/>
        <pt x="486" y="632" on="1"/>
        <pt x="466" y="562" on="1"/>
        <pt x="430" y="568" on="0"/>
        <pt x="393" y="568" on="1"/>
        <pt x="351" y="568" on="0"/>
        <pt x="306" y="529" on="0"/>
        <pt x="300" y="496" on="1"/>
        <pt x="292" y="448" on="1"/>
        <pt x="415" y="448" on="1"/>
        <pt x="398" y="364" on="1"/>
        <pt x="277" y="364" on="1"/>
        <pt x="211" y="-8" on="1"/>
        <pt x="199" y="-76" on="0"/>
        <pt x="156" y="-164" on="0"/>
        <pt x="118" y="-205" on="1"/>
        <pt x="28" y="-170" on="1"/>
      </contour>
    </TTGlyph>
    <TTGlyph name="female" xMin="64" yMin="-114" xMax="409" yMax="456">
      <contour>
        <pt x="190" y="48" on="1"/>
        <pt x="190" y="121" on="1"/>
        <pt x="133" y="127" on="0"/>
        <pt x="64" y="202" on="0"/>
        <pt x="64" y="258" on="1"/>
        <pt x="64" y="277" on="0"/>
        <pt x="68" y="294" on="1"/>
        <pt x="77" y="340" on="0"/>
        <pt x="136" y="414" on="0"/>
        <pt x="219" y="456" on="0"/>
        <pt x="265" y="456" on="1"/>
        <pt x="330" y="456" on="0"/>
        <pt x="409" y="378" on="0"/>
        <pt x="409" y="317" on="1"/>
        <pt x="409" y="300" on="0"/>
        <pt x="406" y="282" on="1"/>
        <pt x="394" y="225" on="0"/>
        <pt x="313" y="141" on="0"/>
        <pt x="258" y="127" on="1"/>
        <pt x="258" y="48" on="1"/>
        <pt x="354" y="48" on="1"/>
        <pt x="354" y="-16" on="1"/>
        <pt x="258" y="-16" on="1"/>
        <pt x="258" y="-114" on="1"/>
        <pt x="190" y="-114" on="1"/>
        <pt x="190" y="-16" on="1"/>
        <pt x="94" y="-16" on="1"/>
        <pt x="94" y="48" on="1"/>
      </contour>
      <contour>
        <pt x="133" y="226" on="0"/>
        <pt x="176" y="184" on="0"/>
        <pt x="211" y="184" on="1"/>
        <pt x="244" y="184" on="0"/>
        <pt x="303" y="220" on="0"/>
        <pt x="340" y="280" on="0"/>
        <pt x="340" y="315" on="1"/>
        <pt x="340" y="349" on="0"/>
        <pt x="298" y="392" on="0"/>
        <pt x="263" y="392" on="1"/>
        <pt x="230" y="392" on="0"/>
        <pt x="170" y="356" on="0"/>
        <pt x="133" y="295" on="0"/>
        <pt x="133" y="259" on="1"/>
      </contour>
    </TTGlyph>
    <TTGlyph name="filledbox" xMin="30" yMin="64" xMax="418" yMax="384">
      <contour>
        <pt x="354" y="64" on="1"/>
        <pt x="30" y="64" on="1"/>
        <pt x="94" y="384" on="1"/>
        <pt x="418" y="384" on="1"/>
      </contour>
    </TTGlyph>
    <TTGlyph name="filledrect" xMin="-3" yMin="128" xMax="451" yMax="320">
      <contour>
        <pt x="413" y="128" on="1"/>
        <pt x="-3" y="128" on="1"/>
        <pt x="35" y="320" on="1"/>
        <pt x="451" y="320" on="1"/>
      </contour>
    </TTGlyph>
    <TTGlyph name="five" xMin="6" yMin="0" xMax="454" yMax="576">
      <contour>
        <pt x="101" y="80" on="0"/>
        <pt x="152" y="80" on="1"/>
        <pt x="209" y="80" on="0"/>
        <pt x="271" y="128" on="0"/>
        <pt x="281" y="181" on="1"/>
        <pt x="285" y="203" on="0"/>
        <pt x="285" y="211" on="1"/>
        <pt x="285" y="234" on="0"/>
        <pt x="255" y="253" on="0"/>
        <pt x="218" y="253" on="1"/>
        <pt x="194" y="253" on="0"/>
        <pt x="141" y="245" on="0"/>
        <pt x="113" y="239" on="1"/>
        <pt x="68" y="271" on="1"/>
        <pt x="141" y="576" on="1"/>
        <pt x="454" y="576" on="1"/>
        <pt x="438" y="496" on="1"/>
        <pt x="234" y="496" on="1"/>
        <pt x="195" y="330" on="1"/>
        <pt x="221" y="333" on="0"/>
        <pt x="251" y="333" on="1"/>
        <pt x="317" y="333" on="0"/>
        <pt x="399" y="273" on="0"/>
        <pt x="399" y="211" on="1"/>
        <pt x="399" y="193" on="0"/>
        <pt x="394" y="166" on="1"/>
        <pt x="376" y="77" on="0"/>
        <pt x="263" y="0" on="0"/>
        <pt x="174" y="0" on="1"/>
        <pt x="127" y="0" on="0"/>
        <pt x="48" y="14" on="0"/>
        <pt x="6" y="28" on="1"/>
        <pt x="33" y="98" on="1"/>
      </contour>
    </TTGlyph>
    <TTGlyph name="five.dnom" xMin="199" yMin="-198" xMax="462" yMax="128">
      <component glyphName="uni2075" x="128" y="-512" flags="0x4"/>
    </TTGlyph>
    <TTGlyph name="five.numr" xMin="71" yMin="314" xMax="334" yMax="640">
      <component glyphName="uni2075" x="0" y="0" flags="0x0"/>
    </TTGlyph>
    <TTGlyph name="five_fraction_nine" xMin="39" yMin="-199" xMax="458" yMax="640">
      <component glyphName="five.numr" x="0" y="0" flags="0x0"/>
      <component glyphName="fraction.alt" x="0" y="0" flags="0x0"/>
      <component glyphName="nine.dnom" x="0" y="0" flags="0x0"/>
    </TTGlyph>
    <TTGlyph name="five_fraction_seven" xMin="39" yMin="-200" xMax="467" yMax="640">
      <component glyphName="five.numr" x="0" y="0" flags="0x0"/>
      <component glyphName="fraction.alt" x="0" y="0" flags="0x0"/>
      <component glyphName="seven.dnom" x="0" y="0" flags="0x0"/>
    </TTGlyph>
    <TTGlyph name="fiveeighths" xMin="39" yMin="-198" xMax="459" yMax="640">
      <component glyphName="five.numr" x="0" y="0" flags="0x0"/>
      <component glyphName="fraction.alt" x="0" y="0" flags="0x0"/>
      <component glyphName="eight.dnom" x="0" y="0" flags="0x0"/>
    </TTGlyph>
    <TTGlyph name="florin" xMin="6" yMin="-198" xMax="486" yMax="648">
      <contour>
        <pt x="43" y="-98" on="0"/>
        <pt x="78" y="-53" on="0"/>
        <pt x="87" y="-9" on="1"/>
        <pt x="162" y="363" on="1"/>
        <pt x="87" y="366" on="1"/>
        <pt x="104" y="448" on="1"/>
        <pt x="179" y="448" on="1"/>
        <pt x="191" y="508" on="1"/>
        <pt x="205" y="581" on="0"/>
        <pt x="297" y="648" on="0"/>
        <pt x="366" y="648" on="1"/>
        <pt x="394" y="648" on="0"/>
        <pt x="461" y="639" on="0"/>
        <pt x="486" y="632" on="1"/>
        <pt x="466" y="562" on="1"/>
        <pt x="430" y="568" on="0"/>
        <pt x="391" y="568" on="1"/>
        <pt x="351" y="568" on="0"/>
        <pt x="308" y="531" on="0"/>
        <pt x="302" y="502" on="1"/>
        <pt x="291" y="448" on="1"/>
        <pt x="415" y="448" on="1"/>
        <pt x="398" y="364" on="1"/>
        <pt x="274" y="364" on="1"/>
        <pt x="199" y="-9" on="1"/>
        <pt x="184" y="-87" on="0"/>
        <pt x="111" y="-172" on="0"/>
        <pt x="34" y="-198" on="1"/>
        <pt x="6" y="-114" on="1"/>
      </contour>
    </TTGlyph>
    <TTGlyph name="four" xMin="11" yMin="0" xMax="432" yMax="593">
      <contour>
        <pt x="226" y="120" on="1"/>
        <pt x="11" y="124" on="1"/>
        <pt x="61" y="337" on="0"/>
        <pt x="265" y="569" on="0"/>
        <pt x="430" y="593" on="1"/>
        <pt x="429" y="590" on="1"/>
        <pt x="432" y="592" on="1"/>
        <pt x="354" y="200" on="1"/>
        <pt x="428" y="200" on="1"/>
        <pt x="412" y="120" on="1"/>
        <pt x="338" y="120" on="1"/>
        <pt x="314" y="0" on="1"/>
        <pt x="202" y="0" on="1"/>
      </contour>
      <contour>
        <pt x="242" y="200" on="1"/>
        <pt x="280" y="392" on="1"/>
        <pt x="296" y="455" on="1"/>
        <pt x="193" y="373" on="0"/>
        <pt x="142" y="196" on="1"/>
      </contour>
    </TTGlyph>
    <TTGlyph name="four.dnom" xMin="222" yMin="-192" xMax="463" yMax="142">
      <component glyphName="uni2074" x="128" y="-512" flags="0x4"/>
    </TTGlyph>
    <TTGlyph name="four.numr" xMin="94" yMin="320" xMax="335" yMax="654">
      <component glyphName="uni2074" x="0" y="0" flags="0x0"/>
    </TTGlyph>
    <TTGlyph name="four_fraction_nine" xMin="39" yMin="-199" xMax="458" yMax="654">
      <component glyphName="four.numr" x="0" y="0" flags="0x0"/>
      <component glyphName="fraction.alt" x="0" y="0" flags="0x0"/>
      <component glyphName="nine.dnom" x="0" y="0" flags="0x0"/>
    </TTGlyph>
    <TTGlyph name="four_fraction_seven" xMin="39" yMin="-200" xMax="467" yMax="654">
      <component glyphName="four.numr" x="0" y="0" flags="0x0"/>
      <component glyphName="fraction.alt" x="0" y="0" flags="0x0"/>
      <component glyphName="seven.dnom" x="0" y="0" flags="0x0"/>
    </TTGlyph>
    <TTGlyph name="fraction" xMin="-22" yMin="-69" xMax="380" yMax="710">
      <component glyphName="slash" x="0" y="0" flags="0x0"/>
    </TTGlyph>
    <TTGlyph name="fraction.alt" xMin="39" yMin="171" xMax="408" yMax="277">
      <contour>
        <pt x="408" y="277" on="1"/>
        <pt x="405" y="222" on="1"/>
        <pt x="39" y="171" on="1"/>
        <pt x="42" y="226" on="1"/>
      </contour>
    </TTGlyph>
    <TTGlyph name="franc" xMin="-12" yMin="0" xMax="454" yMax="576">
      <contour>
        <pt x="50" y="174" on="1"/>
        <pt x="130" y="576" on="1"/>
        <pt x="454" y="576" on="1"/>
        <pt x="442" y="512" on="1"/>
        <pt x="190" y="512" on="1"/>
        <pt x="151" y="320" on="1"/>
        <pt x="339" y="320" on="1"/>
        <pt x="326" y="256" on="1"/>
        <pt x="138" y="256" on="1"/>
        <pt x="122" y="174" on="1"/>
        <pt x="256" y="174" on="1"/>
        <pt x="244" y="114" on="1"/>
        <pt x="110" y="114" on="1"/>
        <pt x="87" y="0" on="1"/>
        <pt x="15" y="0" on="1"/>
        <pt x="38" y="114" on="1"/>
        <pt x="-12" y="114" on="1"/>
        <pt x="0" y="174" on="1"/>
      </contour>
    </TTGlyph>
    <TTGlyph name="g" xMin="0" yMin="-196" xMax="444" yMax="456">
      <contour>
        <pt x="79" y="-196" on="0"/>
        <pt x="0" y="-178" on="1"/>
        <pt x="20" y="-106" on="1"/>
        <pt x="83" y="-116" on="0"/>
        <pt x="125" y="-116" on="1"/>
        <pt x="177" y="-116" on="0"/>
        <pt x="224" y="-81" on="0"/>
        <pt x="231" y="-45" on="1"/>
        <pt x="244" y="20" on="1"/>
        <pt x="203" y="-8" on="0"/>
        <pt x="155" y="-8" on="1"/>
        <pt x="99" y="-8" on="0"/>
        <pt x="31" y="65" on="0"/>
        <pt x="31" y="142" on="1"/>
        <pt x="31" y="183" on="0"/>
        <pt x="41" y="233" on="1"/>
        <pt x="85" y="456" on="0"/>
        <pt x="242" y="456" on="1"/>
        <pt x="307" y="456" on="0"/>
        <pt x="342" y="413" on="1"/>
        <pt x="355" y="448" on="1"/>
        <pt x="444" y="448" on="1"/>
        <pt x="429" y="384" on="1"/>
        <pt x="344" y="-40" on="1"/>
        <pt x="328" y="-124" on="0"/>
        <pt x="223" y="-196" on="0"/>
        <pt x="141" y="-196" on="1"/>
      </contour>
      <contour>
        <pt x="144" y="161" on="0"/>
        <pt x="144" y="126" on="1"/>
        <pt x="144" y="96" on="0"/>
        <pt x="162" y="72" on="0"/>
        <pt x="182" y="72" on="1"/>
        <pt x="223" y="72" on="0"/>
        <pt x="263" y="117" on="1"/>
        <pt x="308" y="342" on="1"/>
        <pt x="289" y="376" on="0"/>
        <pt x="256" y="376" on="1"/>
        <pt x="221" y="376" on="0"/>
        <pt x="173" y="303" on="0"/>
        <pt x="155" y="215" on="1"/>
      </contour>
    </TTGlyph>
    <TTGlyph name="g.ss01" xMin="-37" yMin="-200" xMax="487" yMax="456">
      <contour>
        <pt x="293" y="456" on="0"/>
        <pt x="322" y="448" on="1"/>
        <pt x="487" y="448" on="1"/>
        <pt x="472" y="372" on="1"/>
        <pt x="408" y="368" on="1"/>
        <pt x="414" y="349" on="0"/>
        <pt x="414" y="325" on="1"/>
        <pt x="414" y="304" on="0"/>
        <pt x="410" y="287" on="1"/>
        <pt x="396" y="222" on="0"/>
        <pt x="291" y="136" on="0"/>
        <pt x="209" y="136" on="1"/>
        <pt x="178" y="136" on="0"/>
        <pt x="154" y="142" on="1"/>
        <pt x="123" y="129" on="0"/>
        <pt x="118" y="104" on="1"/>
        <pt x="116" y="95" on="0"/>
        <pt x="130" y="87" on="0"/>
        <pt x="149" y="87" on="1"/>
        <pt x="241" y="87" on="1"/>
        <pt x="314" y="87" on="0"/>
        <pt x="386" y="24" on="0"/>
        <pt x="386" y="-28" on="1"/>
        <pt x="386" y="-44" on="0"/>
        <pt x="383" y="-62" on="1"/>
        <pt x="370" y="-130" on="0"/>
        <pt x="254" y="-200" on="0"/>
        <pt x="155" y="-200" on="1"/>
        <pt x="54" y="-200" on="0"/>
        <pt x="-37" y="-142" on="0"/>
        <pt x="-37" y="-98" on="1"/>
        <pt x="-37" y="-68" on="0"/>
        <pt x="3" y="-16" on="0"/>
        <pt x="39" y="2" on="1"/>
        <pt x="8" y="24" on="0"/>
        <pt x="8" y="68" on="1"/>
        <pt x="8" y="105" on="0"/>
        <pt x="47" y="164" on="0"/>
        <pt x="81" y="184" on="1"/>
        <pt x="55" y="218" on="0"/>
        <pt x="55" y="266" on="1"/>
        <pt x="55" y="288" on="0"/>
        <pt x="59" y="305" on="1"/>
        <pt x="72" y="372" on="0"/>
        <pt x="177" y="456" on="0"/>
        <pt x="260" y="456" on="1"/>
      </contour>
      <contour>
        <pt x="80" y="-102" on="0"/>
        <pt x="113" y="-120" on="0"/>
        <pt x="158" y="-120" on="1"/>
        <pt x="209" y="-120" on="0"/>
        <pt x="262" y="-86" on="0"/>
        <pt x="268" y="-58" on="1"/>
        <pt x="275" y="-21" on="0"/>
        <pt x="219" y="-21" on="1"/>
        <pt x="128" y="-21" on="1"/>
        <pt x="106" y="-32" on="0"/>
        <pt x="80" y="-68" on="0"/>
        <pt x="80" y="-86" on="1"/>
      </contour>
      <contour>
        <pt x="168" y="271" on="0"/>
        <pt x="168" y="259" on="1"/>
        <pt x="168" y="214" on="0"/>
        <pt x="212" y="214" on="1"/>
        <pt x="245" y="214" on="0"/>
        <pt x="289" y="261" on="0"/>
        <pt x="298" y="305" on="1"/>
        <pt x="301" y="320" on="0"/>
        <pt x="301" y="333" on="1"/>
        <pt x="301" y="378" on="0"/>
        <pt x="257" y="378" on="1"/>
        <pt x="224" y="378" on="0"/>
        <pt x="179" y="331" on="0"/>
        <pt x="171" y="287" on="1"/>
      </contour>
    </TTGlyph>
    <TTGlyph name="gamma" xMin="81" yMin="-192" xMax="450" yMax="455">
      <contour>
        <pt x="161" y="447" on="1"/>
        <pt x="153" y="378" on="0"/>
        <pt x="153" y="310" on="1"/>
        <pt x="153" y="244" on="0"/>
        <pt x="173" y="141" on="0"/>
        <pt x="193" y="87" on="1"/>
        <pt x="257" y="169" on="0"/>
        <pt x="340" y="329" on="0"/>
        <pt x="377" y="455" on="1"/>
        <pt x="450" y="443" on="1"/>
        <pt x="411" y="307" on="0"/>
        <pt x="298" y="103" on="0"/>
        <pt x="217" y="7" on="1"/>
        <pt x="177" y="-192" on="1"/>
        <pt x="105" y="-192" on="1"/>
        <pt x="147" y="21" on="1"/>
        <pt x="115" y="94" on="0"/>
        <pt x="81" y="242" on="0"/>
        <pt x="81" y="330" on="1"/>
        <pt x="81" y="391" on="0"/>
        <pt x="88" y="451" on="1"/>
      </contour>
    </TTGlyph>
    <TTGlyph name="gbreve" xMin="0" yMin="-196" xMax="448" yMax="654">
      <component glyphName="g" x="0" y="0" flags="0x0"/>
      <component glyphName="uni0306" x="0" y="0" flags="0x0"/>
    </TTGlyph>
    <TTGlyph name="gbreve.ss01" xMin="-37" yMin="-200" xMax="487" yMax="654">
      <component glyphName="g.ss01" x="0" y="0" flags="0x0"/>
      <component glyphName="uni0306" x="5" y="0" flags="0x0"/>
    </TTGlyph>
    <TTGlyph name="gcaron" xMin="0" yMin="-196" xMax="469" yMax="654">
      <component glyphName="g" x="0" y="0" flags="0x0"/>
      <component glyphName="uni030C" x="0" y="0" flags="0x0"/>
    </TTGlyph>
    <TTGlyph name="gcaron.ss01" xMin="-37" yMin="-200" xMax="487" yMax="654">
      <component glyphName="g.ss01" x="0" y="0" flags="0x0"/>
      <component glyphName="uni030C" x="5" y="0" flags="0x0"/>
    </TTGlyph>
    <TTGlyph name="gcircumflex" xMin="0" yMin="-196" xMax="444" yMax="650">
      <component glyphName="g" x="0" y="0" flags="0x0"/>
      <component glyphName="uni0302" x="0" y="0" flags="0x0"/>
    </TTGlyph>
    <TTGlyph name="gcircumflex.ss01" xMin="-37" yMin="-200" xMax="487" yMax="650">
      <component glyphName="g.ss01" x="0" y="0" flags="0x0"/>
      <component glyphName="uni0302" x="5" y="0" flags="0x0"/>
    </TTGlyph>
    <TTGlyph name="gdotaccent" xMin="0" yMin="-196" xMax="444" yMax="658">
      <component glyphName="g" x="0" y="0" flags="0x0"/>
      <component glyphName="uni0307" x="0" y="0" flags="0x0"/>
    </TTGlyph>
    <TTGlyph name="gdotaccent.ss01" xMin="-37" yMin="-200" xMax="487" yMax="658">
      <component glyphName="g.ss01" x="0" y="0" flags="0x0"/>
      <component glyphName="uni0307" x="5" y="0" flags="0x0"/>
    </TTGlyph>
    <TTGlyph name="germandbls" xMin="5" yMin="-8" xMax="440" yMax="648">
      <contour>
        <pt x="135" y="648" on="0"/>
        <pt x="295" y="648" on="1"/>
        <pt x="365" y="648" on="0"/>
        <pt x="440" y="581" on="0"/>
        <pt x="440" y="528" on="1"/>
        <pt x="440" y="491" on="0"/>
        <pt x="408" y="441" on="0"/>
        <pt x="376" y="409" on="1"/>
        <pt x="348" y="382" on="0"/>
        <pt x="321" y="343" on="0"/>
        <pt x="321" y="316" on="1"/>
        <pt x="321" y="297" on="0"/>
        <pt x="338" y="266" on="0"/>
        <pt x="354" y="247" on="1"/>
        <pt x="376" y="218" on="0"/>
        <pt x="399" y="172" on="0"/>
        <pt x="399" y="135" on="1"/>
        <pt x="399" y="91" on="0"/>
        <pt x="352" y="26" on="0"/>
        <pt x="276" y="-8" on="0"/>
        <pt x="232" y="-8" on="1"/>
        <pt x="182" y="-8" on="0"/>
        <pt x="139" y="8" on="1"/>
        <pt x="161" y="82" on="1"/>
        <pt x="187" y="74" on="0"/>
        <pt x="212" y="74" on="1"/>
        <pt x="242" y="74" on="0"/>
        <pt x="284" y="109" on="0"/>
        <pt x="284" y="138" on="1"/>
        <pt x="284" y="159" on="0"/>
        <pt x="267" y="184" on="0"/>
        <pt x="248" y="201" on="1"/>
        <pt x="226" y="220" on="0"/>
        <pt x="203" y="257" on="0"/>
        <pt x="203" y="292" on="1"/>
        <pt x="203" y="334" on="0"/>
        <pt x="236" y="390" on="0"/>
        <pt x="270" y="428" on="1"/>
        <pt x="298" y="457" on="0"/>
        <pt x="326" y="501" on="0"/>
        <pt x="326" y="530" on="1"/>
        <pt x="326" y="547" on="0"/>
        <pt x="306" y="568" on="0"/>
        <pt x="286" y="568" on="1"/>
        <pt x="259" y="568" on="0"/>
        <pt x="223" y="529" on="0"/>
        <pt x="216" y="496" on="1"/>
        <pt x="117" y="0" on="1"/>
        <pt x="5" y="0" on="1"/>
        <pt x="105" y="500" on="1"/>
      </contour>
    </TTGlyph>
    <TTGlyph name="germandbls.italic" xMin="-56" yMin="-205" xMax="440" yMax="648">
      <contour>
        <pt x="-27" y="-131" on="0"/>
        <pt x="7" y="-56" on="0"/>
        <pt x="17" y="0" on="1"/>
        <pt x="105" y="500" on="1"/>
        <pt x="131" y="648" on="0"/>
        <pt x="295" y="648" on="1"/>
        <pt x="365" y="648" on="0"/>
        <pt x="440" y="581" on="0"/>
        <pt x="440" y="528" on="1"/>
        <pt x="440" y="491" on="0"/>
        <pt x="408" y="441" on="0"/>
        <pt x="376" y="409" on="1"/>
        <pt x="348" y="382" on="0"/>
        <pt x="321" y="343" on="0"/>
        <pt x="321" y="316" on="1"/>
        <pt x="321" y="297" on="0"/>
        <pt x="338" y="266" on="0"/>
        <pt x="354" y="247" on="1"/>
        <pt x="376" y="218" on="0"/>
        <pt x="399" y="172" on="0"/>
        <pt x="399" y="135" on="1"/>
        <pt x="399" y="91" on="0"/>
        <pt x="352" y="26" on="0"/>
        <pt x="276" y="-8" on="0"/>
        <pt x="232" y="-8" on="1"/>
        <pt x="182" y="-8" on="0"/>
        <pt x="139" y="8" on="1"/>
        <pt x="161" y="82" on="1"/>
        <pt x="187" y="74" on="0"/>
        <pt x="212" y="74" on="1"/>
        <pt x="242" y="74" on="0"/>
        <pt x="284" y="109" on="0"/>
        <pt x="284" y="138" on="1"/>
        <pt x="284" y="159" on="0"/>
        <pt x="267" y="184" on="0"/>
        <pt x="248" y="201" on="1"/>
        <pt x="226" y="220" on="0"/>
        <pt x="203" y="257" on="0"/>
        <pt x="203" y="292" on="1"/>
        <pt x="203" y="334" on="0"/>
        <pt x="236" y="390" on="0"/>
        <pt x="270" y="428" on="1"/>
        <pt x="298" y="457" on="0"/>
        <pt x="326" y="501" on="0"/>
        <pt x="326" y="530" on="1"/>
        <pt x="326" y="547" on="0"/>
        <pt x="306" y="568" on="0"/>
        <pt x="286" y="568" on="1"/>
        <pt x="259" y="568" on="0"/>
        <pt x="222" y="529" on="0"/>
        <pt x="216" y="496" on="1"/>
        <pt x="127" y="-8" on="1"/>
        <pt x="115" y="-77" on="0"/>
        <pt x="72" y="-165" on="0"/>
        <pt x="34" y="-205" on="1"/>
        <pt x="-56" y="-170" on="1"/>
      </contour>
    </TTGlyph>
    <TTGlyph name="grave" xMin="200" yMin="384" xMax="349" yMax="640">
      <contour>
        <pt x="241" y="384" on="1"/>
        <pt x="200" y="640" on="1"/>
        <pt x="335" y="640" on="1"/>
        <pt x="349" y="384" on="1"/>
      </contour>
    </TTGlyph>
    <TTGlyph name="gravecomb" xMin="157" yMin="508" xMax="325" yMax="640">
      <contour>
        <pt x="237" y="508" on="1"/>
        <pt x="157" y="640" on="1"/>
        <pt x="321" y="640" on="1"/>
        <pt x="325" y="508" on="1"/>
      </contour>
    </TTGlyph>
    <TTGlyph name="gravecomb.case" xMin="195" yMin="700" xMax="363" yMax="832">
      <component glyphName="gravecomb" x="38" y="192" flags="0x4"/>
    </TTGlyph>
    <TTGlyph name="greater" xMin="61" yMin="38" xMax="435" yMax="538">
      <contour>
        <pt x="61" y="108" on="1"/>
        <pt x="284" y="288" on="1"/>
        <pt x="133" y="468" on="1"/>
        <pt x="225" y="538" on="1"/>
        <pt x="435" y="288" on="1"/>
        <pt x="129" y="38" on="1"/>
      </contour>
    </TTGlyph>
    <TTGlyph name="greaterequal" xMin="61" yMin="0" xMax="435" yMax="602">
      <contour>
        <pt x="64" y="0" on="1"/>
        <pt x="64" y="64" on="1"/>
        <pt x="384" y="64" on="1"/>
        <pt x="384" y="0" on="1"/>
      </contour>
      <contour>
        <pt x="284" y="352" on="1"/>
        <pt x="133" y="532" on="1"/>
        <pt x="225" y="602" on="1"/>
        <pt x="435" y="352" on="1"/>
        <pt x="129" y="102" on="1"/>
        <pt x="61" y="172" on="1"/>
      </contour>
    </TTGlyph>
    <TTGlyph name="guillemotleft" xMin="64" yMin="31" xMax="406" yMax="417">
      <contour>
        <pt x="163" y="51" on="1"/>
        <pt x="91" y="31" on="1"/>
        <pt x="64" y="224" on="1"/>
        <pt x="165" y="417" on="1"/>
        <pt x="233" y="397" on="1"/>
        <pt x="141" y="224" on="1"/>
      </contour>
      <contour>
        <pt x="338" y="411" on="1"/>
        <pt x="406" y="391" on="1"/>
        <pt x="317" y="224" on="1"/>
        <pt x="338" y="57" on="1"/>
        <pt x="266" y="37" on="1"/>
        <pt x="240" y="224" on="1"/>
      </contour>
    </TTGlyph>
    <TTGlyph name="guillemotright" xMin="42" yMin="31" xMax="384" yMax="417">
      <contour>
        <pt x="110" y="37" on="1"/>
        <pt x="42" y="57" on="1"/>
        <pt x="131" y="224" on="1"/>
        <pt x="110" y="391" on="1"/>
        <pt x="182" y="411" on="1"/>
        <pt x="208" y="224" on="1"/>
      </contour>
      <contour>
        <pt x="307" y="224" on="1"/>
        <pt x="285" y="397" on="1"/>
        <pt x="357" y="417" on="1"/>
        <pt x="384" y="224" on="1"/>
        <pt x="283" y="31" on="1"/>
        <pt x="215" y="51" on="1"/>
      </contour>
    </TTGlyph>
    <TTGlyph name="guilsinglleft" xMin="58" yMin="31" xMax="227" yMax="417">
      <contour>
        <pt x="157" y="51" on="1"/>
        <pt x="85" y="31" on="1"/>
        <pt x="58" y="224" on="1"/>
        <pt x="159" y="417" on="1"/>
        <pt x="227" y="397" on="1"/>
        <pt x="135" y="224" on="1"/>
      </contour>
    </TTGlyph>
    <TTGlyph name="guilsinglright" xMin="29" yMin="31" xMax="198" yMax="417">
      <contour>
        <pt x="97" y="31" on="1"/>
        <pt x="29" y="51" on="1"/>
        <pt x="121" y="224" on="1"/>
        <pt x="99" y="397" on="1"/>
        <pt x="171" y="417" on="1"/>
        <pt x="198" y="224" on="1"/>
      </contour>
    </TTGlyph>
    <TTGlyph name="h" xMin="5" yMin="0" xMax="419" yMax="640">
      <contour>
        <pt x="133" y="640" on="1"/>
        <pt x="245" y="640" on="1"/>
        <pt x="202" y="426" on="1"/>
        <pt x="254" y="452" on="0"/>
        <pt x="309" y="452" on="1"/>
        <pt x="361" y="452" on="0"/>
        <pt x="419" y="405" on="0"/>
        <pt x="419" y="350" on="1"/>
        <pt x="419" y="332" on="0"/>
        <pt x="412" y="293" on="1"/>
        <pt x="353" y="0" on="1"/>
        <pt x="241" y="0" on="1"/>
        <pt x="300" y="293" on="1"/>
        <pt x="306" y="322" on="0"/>
        <pt x="306" y="339" on="1"/>
        <pt x="306" y="356" on="0"/>
        <pt x="290" y="372" on="0"/>
        <pt x="271" y="372" on="1"/>
        <pt x="234" y="372" on="0"/>
        <pt x="185" y="339" on="1"/>
        <pt x="117" y="0" on="1"/>
        <pt x="5" y="0" on="1"/>
      </contour>
    </TTGlyph>
    <TTGlyph name="hbar" xMin="5" yMin="0" xMax="419" yMax="640">
      <component glyphName="h" x="0" y="0" flags="0x0"/>
      <component glyphName="uni0335" x="-24" y="310" flags="0x4"/>
    </TTGlyph>
    <TTGlyph name="hcircumflex" xMin="5" yMin="0" xMax="475" yMax="842">
      <component glyphName="h" x="0" y="0" flags="0x0"/>
      <component glyphName="uni0302" x="38" y="192" flags="0x4"/>
    </TTGlyph>
    <TTGlyph name="heart" xMin="79" yMin="52" xMax="421" yMax="448">
      <contour>
        <pt x="177" y="76" on="1"/>
        <pt x="177" y="115" on="0"/>
        <pt x="151" y="176" on="0"/>
        <pt x="125" y="217" on="1"/>
        <pt x="102" y="253" on="0"/>
        <pt x="79" y="304" on="0"/>
        <pt x="79" y="335" on="1"/>
        <pt x="79" y="349" on="0"/>
        <pt x="82" y="364" on="1"/>
        <pt x="91" y="406" on="0"/>
        <pt x="136" y="448" on="0"/>
        <pt x="166" y="448" on="1"/>
        <pt x="198" y="448" on="0"/>
        <pt x="242" y="395" on="0"/>
        <pt x="248" y="354" on="1"/>
        <pt x="271" y="398" on="0"/>
        <pt x="332" y="448" on="0"/>
        <pt x="358" y="448" on="1"/>
        <pt x="387" y="448" on="0"/>
        <pt x="421" y="412" on="0"/>
        <pt x="421" y="378" on="1"/>
        <pt x="421" y="364" on="0"/>
        <pt x="418" y="346" on="1"/>
        <pt x="411" y="309" on="0"/>
        <pt x="365" y="251" on="0"/>
        <pt x="322" y="210" on="1"/>
        <pt x="276" y="167" on="0"/>
        <pt x="221" y="98" on="0"/>
        <pt x="206" y="52" on="1"/>
        <pt x="176" y="60" on="1"/>
      </contour>
    </TTGlyph>
    <TTGlyph name="hookabovecomb" xMin="215" yMin="502" xMax="403" yMax="704">
      <contour>
        <pt x="293" y="571" on="0"/>
        <pt x="336" y="605" on="0"/>
        <pt x="336" y="627" on="1"/>
        <pt x="336" y="638" on="0"/>
        <pt x="314" y="648" on="0"/>
        <pt x="288" y="648" on="1"/>
        <pt x="260" y="648" on="0"/>
        <pt x="220" y="643" on="1"/>
        <pt x="215" y="697" on="1"/>
        <pt x="253" y="704" on="0"/>
        <pt x="292" y="704" on="1"/>
        <pt x="345" y="704" on="0"/>
        <pt x="403" y="666" on="0"/>
        <pt x="403" y="630" on="1"/>
        <pt x="403" y="585" on="0"/>
        <pt x="336" y="528" on="0"/>
        <pt x="270" y="502" on="1"/>
        <pt x="249" y="554" on="1"/>
      </contour>
    </TTGlyph>
    <TTGlyph name="hookabovecomb.case" xMin="255" yMin="694" xMax="443" yMax="896">
      <component glyphName="hookabovecomb" x="40" y="192" flags="0x4"/>
    </TTGlyph>
    <TTGlyph name="house" xMin="30" yMin="64" xMax="404" yMax="458">
      <contour>
        <pt x="246" y="458" on="1"/>
        <pt x="294" y="458" on="1"/>
        <pt x="404" y="320" on="1"/>
        <pt x="354" y="64" on="1"/>
        <pt x="30" y="64" on="1"/>
        <pt x="80" y="320" on="1"/>
      </contour>
      <contour>
        <pt x="299" y="128" on="1"/>
        <pt x="335" y="302" on="1"/>
        <pt x="260" y="393" on="1"/>
        <pt x="147" y="302" on="1"/>
        <pt x="111" y="128" on="1"/>
      </contour>
    </TTGlyph>
    <TTGlyph name="hungarumlaut" xMin="171" yMin="508" xMax="523" yMax="640">
      <component glyphName="uni030B" x="0" y="0" flags="0x0"/>
    </TTGlyph>
    <TTGlyph name="hyphen" xMin="67" yMin="240" xMax="406" yMax="336">
      <contour>
        <pt x="67" y="240" on="1"/>
        <pt x="86" y="336" on="1"/>
        <pt x="406" y="336" on="1"/>
        <pt x="387" y="240" on="1"/>
      </contour>
    </TTGlyph>
    <TTGlyph name="i" xMin="47" yMin="0" xMax="286" yMax="658">
      <component glyphName="dotlessi" x="0" y="0" flags="0x0"/>
      <component glyphName="uni0307" x="-80" y="0" flags="0x0"/>
    </TTGlyph>
    <TTGlyph name="i.loclTRK" xMin="47" yMin="0" xMax="286" yMax="658">
      <component glyphName="dotlessi" x="0" y="0" flags="0x0"/>
      <component glyphName="uni0307" x="-80" y="0" flags="0x0"/>
    </TTGlyph>
    <TTGlyph name="iacute" xMin="47" yMin="0" xMax="382" yMax="654">
      <component glyphName="dotlessi" x="0" y="0" flags="0x0"/>
      <component glyphName="acutecomb" x="-80" y="0" flags="0x0"/>
    </TTGlyph>
    <TTGlyph name="iacute_j.loclNLD" xMin="20" yMin="-200" xMax="500" yMax="846">
      <component glyphName="ij" x="0" y="0" flags="0x0"/>
      <component glyphName="acutecomb" x="38" y="192" flags="0x4"/>
    </TTGlyph>
    <TTGlyph name="ibreve" xMin="47" yMin="0" xMax="368" yMax="654">
      <component glyphName="dotlessi" x="0" y="0" flags="0x0"/>
      <component glyphName="uni0306" x="-80" y="0" flags="0x0"/>
    </TTGlyph>
</ttFont>
